<?xml version="1.0" encoding="utf-8"?>
<!-- Generator: Adobe Illustrator 27.5.0, SVG Export Plug-In . SVG Version: 6.00 Build 0)  -->
<svg version="1.1" xmlns="http://www.w3.org/2000/svg" xmlns:xlink="http://www.w3.org/1999/xlink" x="0px" y="0px"
	 viewBox="0 0 500 500" style="enable-background:new 0 0 500 500;" xml:space="preserve">
<g id="Background_Simple">
	<g>
		<path style="fill:#92E3A9;" d="M459.576,389.073c8.822-15.453,14.656-32.836,17.81-50.67
			c18.592-105.14-18.278-229.683-123.79-274.045c-36.367-15.291-78.119-17.592-115.817-5.797
			c-42.824,13.4-70.358,46.777-104.79,73.326c-24.285,18.725-55.007,27.867-77.341,49.19
			c-23.575,22.509-38.694,54.871-38.758,87.656c-0.045,23.052,9.247,45.425,27.97,59.492c18.351,13.788,41.698,17.38,61.596,28.163
			c22.159,12.008,35.487,32.965,53.219,50.062c40.901,39.435,102.178,51.646,157.216,49.797
			C370.934,454.433,430.987,439.153,459.576,389.073z"/>
		<path style="opacity:0.7;fill:#FFFFFF;" d="M459.576,389.073c8.822-15.453,14.656-32.836,17.81-50.67
			c18.592-105.14-18.278-229.683-123.79-274.045c-36.367-15.291-78.119-17.592-115.817-5.797
			c-42.824,13.4-70.358,46.777-104.79,73.326c-24.285,18.725-55.007,27.867-77.341,49.19
			c-23.575,22.509-38.694,54.871-38.758,87.656c-0.045,23.052,9.247,45.425,27.97,59.492c18.351,13.788,41.698,17.38,61.596,28.163
			c22.159,12.008,35.487,32.965,53.219,50.062c40.901,39.435,102.178,51.646,157.216,49.797
			C370.934,454.433,430.987,439.153,459.576,389.073z"/>
	</g>
</g>
<g id="Plants">
	<g>
		<path style="fill:#92E3A9;" d="M388.221,376.032c2.721,1.188,9.374,1.038,9.379,1.038c0.069-0.002-1.43-4.356-1.556-4.62
			c-1.459-3.054-6.076-8.097-9.833-7.589c-2.706,0.366-4.211,3.074-3.6,5.622C383.234,373.086,385.904,375.019,388.221,376.032z"/>
		<path style="fill:#92E3A9;" d="M390.517,395.305c2.822,0.411,8.76-1.311,9.232-1.45c0.938,3.324,2.169,6.659,3.602,9.965
			c0.816,1.891,1.698,3.77,2.606,5.643c-0.542-0.793-1.032-1.499-1.111-1.59c-2.215-2.56-8-6.204-11.488-4.722
			c-2.514,1.067-3.25,4.077-1.988,6.373c1.288,2.345,4.375,3.505,6.876,3.869c2.539,0.37,7.63-0.996,8.973-1.376
			c0.356,0.715,0.703,1.433,1.062,2.146c1.719,3.424,3.45,6.833,5.045,10.229c0.563,1.196,1.073,2.395,1.588,3.593
			c-0.482-0.704-0.893-1.293-0.966-1.377c-2.215-2.559-7.999-6.204-11.488-4.722c-2.514,1.068-3.25,4.077-1.988,6.373
			c1.29,2.345,4.375,3.505,6.877,3.869c2.423,0.353,7.134-0.866,8.731-1.309c0.49,1.242,0.984,2.486,1.403,3.712
			c0.267,0.844,0.584,1.637,0.804,2.499c0.237,0.849,0.472,1.69,0.704,2.522c0.389,1.62,0.8,3.288,1.139,4.878
			c0.244,1.104,0.457,2.16,0.674,3.224c-0.546-1.198-1.665-3.52-1.781-3.703c-1.801-2.866-6.966-7.344-10.64-6.408
			c-2.646,0.675-3.83,3.538-2.93,5.998c0.919,2.513,3.793,4.127,6.21,4.866c2.662,0.813,8.556,0.07,9.291-0.028
			c0.353,1.761,0.68,3.477,0.962,5.102c0.632,3.585,1.109,6.798,1.471,9.517h2.485c-0.433-2.814-0.999-6.166-1.748-9.93
			c-0.352-1.789-0.763-3.695-1.203-5.647c0.443-0.176,2.957-1.193,5.184-2.438c1.94,2.101,6.911,4.56,7.555,4.872
			c-0.676,1.664-1.351,3.276-2.012,4.786c-1.375,3.164-2.68,5.97-3.833,8.356h2.687c0.991-2.2,2.08-4.706,3.216-7.482
			c0.694-1.687,1.402-3.503,2.112-5.374c0.713,0.149,6.547,1.334,9.267,0.72c2.465-0.557,5.453-1.953,6.557-4.391
			c1.081-2.386,0.113-5.33-2.476-6.2c-3.593-1.207-9.078,2.874-11.087,5.598c-0.119,0.16-1.21,2.048-1.879,3.249
			c0.286-0.766,0.572-1.507,0.856-2.299c0.574-1.563,1.1-3.14,1.672-4.834c0.248-0.828,0.498-1.664,0.751-2.509
			c0.268-0.832,0.446-1.746,0.675-2.626c0.489-2.052,0.884-4.155,1.235-6.282c1.37,0.498,6.26,2.2,8.794,2.022
			c2.522-0.177,5.685-1.104,7.146-3.346c1.43-2.195,0.92-5.252-1.507-6.504c-3.369-1.737-9.409,1.466-11.808,3.854
			c-0.15,0.148-1.678,2.055-2.498,3.119c0.201-1.281,0.408-2.557,0.569-3.86c0.467-3.758,0.822-7.577,1.193-11.385
			c0.113-1.167,0.24-2.328,0.362-3.49c0.486,0.183,6.255,2.331,9.093,2.131c2.522-0.176,5.686-1.103,7.146-3.346
			c1.43-2.195,0.92-5.252-1.508-6.503c-3.369-1.738-9.408,1.465-11.807,3.853c-0.181,0.18-2.377,2.927-2.901,3.653
			c0.271-2.561,0.564-5.11,0.956-7.611c0.535-3.452,1.251-6.809,2.185-10.011c0.226,0.086,6.237,2.354,9.143,2.151
			c2.522-0.177,5.686-1.104,7.146-3.346c1.43-2.195,0.92-5.251-1.508-6.503c-3.369-1.738-9.408,1.466-11.808,3.853
			c-0.188,0.188-2.549,3.144-2.939,3.711c0.056-0.19,0.093-0.394,0.151-0.583c1.04-3.405,2.476-6.573,3.966-9.473
			c0.862-1.687,1.781-3.251,2.708-4.753c1.076,0.538,6.022,2.939,8.658,3.044c2.526,0.101,5.773-0.473,7.47-2.541
			c1.662-2.025,1.491-5.119-0.784-6.63c-3.158-2.097-9.513,0.423-12.16,2.533c-0.144,0.115-1.478,1.443-2.436,2.424
			c0.429-0.672,0.859-1.372,1.283-2.007c1.586-2.388,3.185-4.477,4.616-6.316c0.822-1.039,1.586-1.962,2.31-2.819
			c1.331-0.023,6.695-0.186,9.04-1.287c2.288-1.075,4.905-3.079,5.459-5.698c0.541-2.564-1.036-5.231-3.751-5.523
			c-3.769-0.406-8.248,4.759-9.625,7.851c-0.119,0.268-1.5,4.661-1.43,4.66c0,0,0.065-0.001,0.081-0.001
			c-0.714,0.81-1.469,1.686-2.275,2.661c-1.475,1.811-3.123,3.871-4.767,6.234c-1.649,2.357-3.374,4.964-4.944,7.874
			c-1.577,2.915-3.086,6.062-4.222,9.505c-0.013,0.039-0.021,0.081-0.034,0.12c0.02-1.11-0.029-4.217-0.06-4.455
			c-0.435-3.357-3.248-9.588-6.977-10.277c-2.685-0.496-4.96,1.608-5.174,4.219c-0.218,2.667,1.715,5.336,3.601,7.021
			c2.126,1.899,8.029,3.739,8.499,3.884c-1.052,3.289-1.864,6.75-2.494,10.297c-0.362,2.028-0.663,4.082-0.939,6.145
			c-0.014-0.961-0.033-1.82-0.049-1.939c-0.435-3.357-3.249-9.587-6.977-10.277c-2.686-0.497-4.96,1.608-5.173,4.219
			c-0.219,2.667,1.715,5.336,3.6,7.021c1.914,1.709,6.914,3.379,8.243,3.802c-0.098,0.793-0.204,1.583-0.299,2.376
			c-0.455,3.804-0.891,7.602-1.435,11.315c-0.19,1.309-0.426,2.59-0.658,3.872c-0.014-0.853-0.032-1.571-0.046-1.68
			c-0.435-3.357-3.248-9.588-6.976-10.277c-2.686-0.496-4.961,1.607-5.175,4.219c-0.219,2.666,1.716,5.336,3.602,7.02
			c1.825,1.631,6.428,3.214,8.005,3.725c-0.276,1.307-0.551,2.616-0.878,3.87c-0.243,0.851-0.417,1.687-0.708,2.529
			c-0.271,0.838-0.539,1.669-0.804,2.492c-0.57,1.565-1.147,3.184-1.741,4.696c-0.405,1.056-0.811,2.054-1.216,3.06
			c0.205-1.3,0.553-3.854,0.558-4.07c0.052-2.248-0.746-5.904-2.336-8.474c0.01-0.332-0.009-0.663-0.062-0.992
			c-0.416-2.587-2.846-4.509-5.486-3.806c-3.663,0.975-5.986,7.405-6.159,10.785c-0.01,0.199,0.12,2.375,0.225,3.747
			c-0.185-0.797-0.354-1.573-0.554-2.39c-0.384-1.62-0.815-3.225-1.272-4.955c-0.25-0.827-0.503-1.662-0.759-2.507
			c-0.235-0.842-0.591-1.701-0.885-2.562c-0.725-1.981-1.555-3.953-2.436-5.921c1.419-0.34,6.436-1.619,8.451-3.165
			c2.006-1.539,4.133-4.057,4.114-6.732c-0.019-2.621-2.129-4.888-4.845-4.593c-3.769,0.409-7.039,6.413-7.724,9.728
			c-0.042,0.207-0.266,2.641-0.363,3.98c-0.539-1.179-1.07-2.358-1.654-3.534c-1.684-3.392-3.494-6.773-5.286-10.154
			c-0.549-1.035-1.084-2.073-1.624-3.111c0.506-0.116,6.503-1.507,8.76-3.239c2.005-1.539,4.133-4.057,4.114-6.733
			c-0.019-2.619-2.13-4.888-4.845-4.592c-3.769,0.409-7.039,6.412-7.723,9.728c-0.051,0.25-0.368,3.752-0.405,4.647
			c-1.187-2.284-2.348-4.573-3.402-6.875c-1.458-3.174-2.713-6.369-3.7-9.555c0.236-0.054,6.501-1.478,8.813-3.251
			c2.006-1.539,4.133-4.057,4.114-6.733c-0.018-2.62-2.129-4.887-4.845-4.592c-3.768,0.409-7.039,6.412-7.723,9.728
			c-0.054,0.261-0.392,4.029-0.404,4.716c-0.058-0.189-0.14-0.379-0.196-0.569c-1.01-3.415-1.56-6.849-1.918-10.09
			c-0.211-1.882-0.308-3.693-0.362-5.457c1.194-0.146,6.644-0.871,8.9-2.237c2.163-1.31,4.554-3.579,4.829-6.24
			c0.269-2.606-1.581-5.092-4.311-5.097c-3.791-0.007-7.701,5.601-8.745,8.821c-0.057,0.175-0.437,2.019-0.695,3.366
			c-0.012-0.797-0.04-1.619-0.037-2.382c0.006-2.866,0.187-5.491,0.366-7.814c0.113-1.321,0.241-2.512,0.373-3.625
			c1.097-0.755,5.481-3.849,6.829-6.061c1.316-2.159,2.392-5.274,1.41-7.763c-0.962-2.437-3.749-3.791-6.175-2.538
			c-3.368,1.741-4.253,8.52-3.697,11.859c0.049,0.288,1.321,4.714,1.378,4.676c0,0,0.054-0.037,0.066-0.046
			c-0.148,1.069-0.294,2.217-0.429,3.474c-0.231,2.324-0.47,4.952-0.537,7.829c-0.075,2.875-0.075,6.002,0.221,9.295
			c0.293,3.301,0.77,6.759,1.722,10.257c0.011,0.039,0.027,0.079,0.038,0.119c-0.596-0.937-2.352-3.5-2.509-3.682
			c-2.215-2.56-7.999-6.204-11.488-4.723c-2.514,1.068-3.25,4.077-1.988,6.374C384.931,393.781,388.016,394.94,390.517,395.305z"/>
		<path style="fill:#92E3A9;" d="M455.521,377.496c0.059,0.037,1.21-4.422,1.251-4.712c0.466-3.352-0.602-10.105-4.016-11.754
			c-2.459-1.188-5.208,0.241-6.103,2.704c-0.915,2.514,0.245,5.6,1.619,7.722C449.884,373.947,455.517,377.493,455.521,377.496z"/>
	</g>
	<g>
		<path style="fill:#92E3A9;" d="M28.433,376.032c2.721,1.188,9.374,1.038,9.379,1.038c0.069-0.002-1.43-4.356-1.556-4.62
			c-1.46-3.054-6.077-8.097-9.833-7.589c-2.706,0.366-4.211,3.074-3.6,5.622C23.447,373.086,26.116,375.019,28.433,376.032z"/>
		<path style="fill:#92E3A9;" d="M30.73,395.305c2.822,0.411,8.76-1.311,9.232-1.45c0.938,3.324,2.169,6.659,3.602,9.965
			c0.816,1.891,1.698,3.77,2.606,5.643c-0.542-0.793-1.032-1.499-1.111-1.59c-2.215-2.56-8-6.204-11.488-4.722
			c-2.514,1.067-3.25,4.077-1.988,6.373c1.288,2.345,4.375,3.505,6.876,3.869c2.539,0.37,7.63-0.996,8.973-1.376
			c0.356,0.715,0.703,1.433,1.062,2.146c1.719,3.424,3.45,6.833,5.045,10.229c0.563,1.196,1.073,2.395,1.588,3.593
			c-0.482-0.704-0.893-1.293-0.966-1.377c-2.215-2.559-7.999-6.204-11.488-4.722c-2.514,1.068-3.25,4.077-1.988,6.373
			c1.29,2.345,4.375,3.505,6.877,3.869c2.423,0.353,7.134-0.866,8.731-1.309c0.49,1.242,0.984,2.486,1.403,3.712
			c0.267,0.844,0.584,1.637,0.804,2.499c0.237,0.849,0.472,1.69,0.704,2.522c0.389,1.62,0.8,3.288,1.139,4.878
			c0.244,1.104,0.457,2.16,0.674,3.224c-0.546-1.198-1.665-3.52-1.781-3.703c-1.801-2.866-6.966-7.344-10.64-6.408
			c-2.646,0.675-3.83,3.538-2.93,5.998c0.919,2.513,3.793,4.127,6.21,4.866c2.662,0.813,8.556,0.07,9.291-0.028
			c0.353,1.761,0.68,3.477,0.962,5.102c0.632,3.585,1.109,6.798,1.471,9.517h2.485c-0.433-2.814-1-6.166-1.748-9.93
			c-0.351-1.789-0.763-3.695-1.204-5.647c0.443-0.176,2.957-1.193,5.184-2.438c1.94,2.101,6.911,4.56,7.555,4.872
			c-0.676,1.664-1.351,3.276-2.011,4.786c-1.375,3.164-2.68,5.97-3.833,8.356h2.687c0.991-2.2,2.08-4.706,3.216-7.482
			c0.694-1.687,1.403-3.503,2.112-5.374c0.713,0.149,6.548,1.334,9.267,0.72c2.465-0.557,5.453-1.953,6.557-4.391
			c1.081-2.386,0.113-5.33-2.476-6.2c-3.593-1.207-9.078,2.874-11.087,5.598c-0.119,0.16-1.211,2.048-1.879,3.249
			c0.286-0.766,0.572-1.507,0.856-2.299c0.574-1.563,1.1-3.14,1.672-4.834c0.248-0.828,0.498-1.664,0.751-2.509
			c0.268-0.832,0.446-1.746,0.675-2.626c0.489-2.052,0.884-4.155,1.235-6.282c1.37,0.498,6.26,2.2,8.794,2.022
			c2.522-0.177,5.685-1.104,7.145-3.346c1.43-2.195,0.92-5.252-1.507-6.504c-3.369-1.737-9.409,1.466-11.808,3.854
			c-0.15,0.148-1.678,2.055-2.498,3.119c0.201-1.281,0.408-2.557,0.57-3.86c0.467-3.758,0.822-7.577,1.193-11.385
			c0.113-1.167,0.24-2.328,0.362-3.49c0.486,0.183,6.255,2.331,9.093,2.131c2.522-0.176,5.686-1.103,7.145-3.346
			c1.43-2.195,0.92-5.252-1.507-6.503c-3.369-1.738-9.408,1.465-11.808,3.853c-0.181,0.18-2.377,2.927-2.901,3.653
			c0.271-2.561,0.564-5.11,0.955-7.611c0.535-3.452,1.251-6.809,2.185-10.011c0.226,0.086,6.237,2.354,9.143,2.151
			c2.522-0.177,5.686-1.104,7.146-3.346c1.43-2.195,0.92-5.251-1.508-6.503c-3.369-1.738-9.408,1.466-11.808,3.853
			c-0.188,0.188-2.549,3.144-2.939,3.711c0.056-0.19,0.093-0.394,0.151-0.583c1.04-3.405,2.476-6.573,3.966-9.473
			c0.862-1.687,1.781-3.251,2.708-4.753c1.076,0.538,6.022,2.939,8.658,3.044c2.526,0.101,5.773-0.473,7.47-2.541
			c1.662-2.025,1.491-5.119-0.784-6.63c-3.158-2.097-9.513,0.423-12.16,2.533c-0.144,0.115-1.478,1.443-2.436,2.424
			c0.429-0.672,0.859-1.372,1.283-2.007c1.586-2.388,3.185-4.477,4.616-6.316c0.822-1.039,1.586-1.962,2.31-2.819
			c1.331-0.023,6.695-0.186,9.04-1.287c2.288-1.075,4.905-3.079,5.459-5.698c0.541-2.564-1.036-5.231-3.751-5.523
			c-3.769-0.406-8.248,4.759-9.625,7.851c-0.119,0.268-1.5,4.661-1.43,4.66c0,0,0.065-0.001,0.081-0.001
			c-0.714,0.81-1.469,1.686-2.275,2.661c-1.475,1.811-3.123,3.871-4.767,6.234c-1.649,2.357-3.374,4.964-4.944,7.874
			c-1.577,2.915-3.086,6.062-4.222,9.505c-0.013,0.039-0.021,0.081-0.034,0.12c0.02-1.11-0.029-4.217-0.06-4.455
			c-0.435-3.357-3.249-9.588-6.977-10.277c-2.685-0.496-4.96,1.608-5.174,4.219c-0.218,2.667,1.715,5.336,3.602,7.021
			c2.126,1.899,8.029,3.739,8.499,3.884c-1.052,3.289-1.864,6.75-2.494,10.297c-0.362,2.028-0.663,4.082-0.939,6.145
			c-0.014-0.961-0.033-1.82-0.05-1.939c-0.435-3.357-3.248-9.587-6.976-10.277c-2.686-0.497-4.96,1.608-5.174,4.219
			c-0.219,2.667,1.715,5.336,3.6,7.021c1.914,1.709,6.914,3.379,8.243,3.802c-0.097,0.793-0.204,1.583-0.298,2.376
			c-0.455,3.804-0.892,7.602-1.435,11.315c-0.19,1.309-0.426,2.59-0.658,3.872c-0.013-0.853-0.032-1.571-0.046-1.68
			c-0.435-3.357-3.248-9.588-6.976-10.277c-2.686-0.496-4.96,1.607-5.175,4.219c-0.219,2.666,1.716,5.336,3.602,7.02
			c1.825,1.631,6.428,3.214,8.005,3.725c-0.276,1.307-0.551,2.616-0.878,3.87c-0.243,0.851-0.417,1.687-0.708,2.529
			c-0.271,0.838-0.539,1.669-0.804,2.492c-0.57,1.565-1.147,3.184-1.741,4.696c-0.405,1.056-0.811,2.054-1.216,3.06
			c0.205-1.3,0.553-3.854,0.558-4.07c0.052-2.248-0.747-5.904-2.336-8.474c0.01-0.332-0.009-0.663-0.062-0.992
			c-0.416-2.587-2.846-4.509-5.486-3.806c-3.663,0.975-5.986,7.405-6.159,10.785c-0.01,0.199,0.12,2.375,0.225,3.747
			c-0.185-0.797-0.354-1.573-0.554-2.39c-0.384-1.62-0.816-3.225-1.272-4.955c-0.25-0.827-0.503-1.662-0.759-2.507
			c-0.235-0.842-0.591-1.701-0.885-2.562c-0.725-1.981-1.555-3.953-2.436-5.921c1.419-0.34,6.436-1.619,8.451-3.165
			c2.006-1.539,4.133-4.057,4.114-6.732c-0.019-2.621-2.129-4.888-4.845-4.593c-3.769,0.409-7.039,6.413-7.724,9.728
			c-0.042,0.207-0.266,2.641-0.363,3.98c-0.539-1.179-1.07-2.358-1.654-3.534c-1.684-3.392-3.494-6.773-5.286-10.154
			c-0.549-1.035-1.084-2.073-1.624-3.111c0.506-0.116,6.503-1.507,8.76-3.239c2.006-1.539,4.133-4.057,4.114-6.733
			c-0.019-2.619-2.13-4.888-4.845-4.592c-3.769,0.409-7.039,6.412-7.723,9.728c-0.051,0.25-0.368,3.752-0.404,4.647
			c-1.187-2.284-2.348-4.573-3.402-6.875c-1.458-3.174-2.713-6.369-3.7-9.555c0.236-0.054,6.501-1.478,8.813-3.251
			c2.006-1.539,4.133-4.057,4.114-6.733c-0.018-2.62-2.129-4.887-4.845-4.592c-3.769,0.409-7.039,6.412-7.723,9.728
			c-0.054,0.261-0.392,4.029-0.404,4.716c-0.059-0.189-0.14-0.379-0.196-0.569c-1.01-3.415-1.56-6.849-1.918-10.09
			c-0.211-1.882-0.308-3.693-0.362-5.457c1.194-0.146,6.644-0.871,8.9-2.237c2.163-1.31,4.554-3.579,4.829-6.24
			c0.269-2.606-1.581-5.092-4.311-5.097c-3.791-0.007-7.701,5.601-8.745,8.821c-0.057,0.175-0.437,2.019-0.695,3.366
			c-0.012-0.797-0.04-1.619-0.037-2.382c0.006-2.866,0.187-5.491,0.366-7.814c0.113-1.321,0.241-2.512,0.373-3.625
			c1.097-0.755,5.481-3.849,6.829-6.061c1.316-2.159,2.392-5.274,1.41-7.763c-0.962-2.437-3.749-3.791-6.175-2.538
			c-3.368,1.741-4.253,8.52-3.697,11.859c0.049,0.288,1.321,4.714,1.378,4.676c0,0,0.054-0.037,0.066-0.046
			c-0.148,1.069-0.294,2.217-0.429,3.474c-0.231,2.324-0.47,4.952-0.537,7.829c-0.075,2.875-0.075,6.002,0.221,9.295
			c0.293,3.301,0.77,6.759,1.722,10.257c0.011,0.039,0.027,0.079,0.038,0.119c-0.597-0.937-2.352-3.5-2.509-3.682
			c-2.215-2.56-7.999-6.204-11.488-4.723c-2.514,1.068-3.25,4.077-1.988,6.374C25.143,393.781,28.228,394.94,30.73,395.305z"/>
		<path style="fill:#92E3A9;" d="M95.733,377.496c0.059,0.037,1.21-4.422,1.251-4.712c0.466-3.352-0.603-10.105-4.016-11.754
			c-2.459-1.188-5.208,0.241-6.103,2.704c-0.915,2.514,0.245,5.6,1.619,7.722C90.096,373.947,95.729,377.493,95.733,377.496z"/>
	</g>
</g>
<g id="Floor">
	<g>
		
			<line style="fill:none;stroke:#263238;stroke-linecap:round;stroke-linejoin:round;stroke-miterlimit:10;" x1="459" y1="463" x2="473" y2="463"/>
		
			<line style="fill:none;stroke:#263238;stroke-linecap:round;stroke-linejoin:round;stroke-miterlimit:10;" x1="199" y1="463" x2="445" y2="463"/>
		
			<line style="fill:none;stroke:#263238;stroke-linecap:round;stroke-linejoin:round;stroke-miterlimit:10;" x1="38" y1="463" x2="189" y2="463"/>
	</g>
</g>
<g id="Graphics">
	<path style="opacity:0.1;" d="M127.115,84.428c0,7.876-14.261,24.327-14.261,24.327s-14.26-16.451-14.26-24.327
		s6.385-14.26,14.26-14.26C120.73,70.168,127.115,76.552,127.115,84.428z M263.849,356.218c-7.876,0-14.261,6.385-14.261,14.26
		c0,7.876,14.261,24.327,14.261,24.327s14.26-16.451,14.26-24.327C278.109,362.602,271.724,356.218,263.849,356.218z
		 M382.966,29.903c-7.876,0-14.26,6.385-14.26,14.26c0,7.876,14.26,24.327,14.26,24.327s14.261-16.451,14.261-24.327
		C397.227,36.287,390.842,29.903,382.966,29.903z M65.879,217.806c-7.876,0-14.261,6.385-14.261,14.26
		c0,7.876,14.261,24.327,14.261,24.327s14.261-16.451,14.261-24.327C80.139,224.191,73.755,217.806,65.879,217.806z
		 M445.041,212.773c-7.876,0-14.26,6.385-14.26,14.26s14.26,24.327,14.26,24.327s14.261-16.451,14.261-24.327
		S452.917,212.773,445.041,212.773z M382.966,50.196h-6c-0.553,0-1-0.448-1-1c0-0.552,0.447-1,1-1h6c0.553,0,1,0.448,1,1
		C383.966,49.749,383.519,50.196,382.966,50.196z M321.726,375.512c0-0.553-0.447-1-1-1h-11.946c-0.553,0-1,0.447-1,1
		c0,0.553,0.447,1,1,1h11.946C321.278,376.512,321.726,376.065,321.726,375.512z M297.834,375.512c0-0.553-0.447-1-1-1h-11.946
		c-0.553,0-1,0.447-1,1c0,0.553,0.447,1,1,1h11.946C297.387,376.512,297.834,376.065,297.834,375.512z M332.773,376.415
		c4.262-0.455,8.163-2.496,10.983-5.748c0.362-0.417,0.317-1.049-0.1-1.411c-0.417-0.361-1.048-0.316-1.411,0.101
		c-2.488,2.868-5.928,4.669-9.686,5.07c-0.549,0.059-0.946,0.551-0.888,1.101c0.055,0.513,0.488,0.894,0.993,0.894
		C332.701,376.421,332.737,376.419,332.773,376.415z M274.013,374.797c0.217-0.508-0.019-1.096-0.526-1.314
		c-3.458-1.478-6.086-4.38-7.211-7.961c-0.165-0.525-0.725-0.821-1.254-0.654c-0.526,0.166-0.819,0.727-0.654,1.254
		c1.3,4.139,4.337,7.492,8.332,9.201c0.129,0.055,0.262,0.08,0.394,0.08C273.48,375.403,273.85,375.176,274.013,374.797z
		 M347.895,359.013v-11.946c0-0.553-0.447-1-1-1c-0.553,0-1,0.447-1,1v11.946c0,0.553,0.447,1,1,1
		C347.448,360.013,347.895,359.565,347.895,359.013z M265.688,353.941v-8.211c-0.001-1.297-0.099-2.599-0.289-3.868
		c-0.082-0.546-0.591-0.915-1.138-0.841c-0.547,0.083-0.923,0.592-0.841,1.138c0.177,1.173,0.267,2.375,0.268,3.572v8.21
		c0,0.553,0.447,1,1,1S265.688,354.494,265.688,353.941z M347.895,335.12v-11.945c0-0.553-0.447-1-1-1c-0.553,0-1,0.447-1,1v11.945
		c0,0.553,0.447,1,1,1C347.448,336.12,347.895,335.673,347.895,335.12z M260.48,331.889c0.444-0.327,0.54-0.953,0.213-1.398
		c-2.459-3.343-5.724-6.072-9.441-7.893c-0.493-0.243-1.095-0.036-1.337,0.459c-0.243,0.495-0.038,1.095,0.458,1.338
		c3.429,1.679,6.441,4.197,8.709,7.282c0.196,0.267,0.499,0.407,0.807,0.407C260.094,332.083,260.302,332.02,260.48,331.889z
		 M240.252,320.985c0-0.553-0.448-1-1-1h-11.946c-0.552,0-1,0.447-1,1c0,0.553,0.448,1,1,1h11.946
		C239.804,321.985,240.252,321.538,240.252,320.985z M216.36,320.985c0-0.553-0.448-1-1-1h-11.946c-0.552,0-1,0.447-1,1
		c0,0.553,0.448,1,1,1h11.946C215.912,321.985,216.36,321.538,216.36,320.985z M192.468,320.985c0-0.553-0.448-1-1-1h-11.946
		c-0.552,0-1,0.447-1,1c0,0.553,0.448,1,1,1h11.946C192.02,321.985,192.468,321.538,192.468,320.985z M168.576,320.985
		c0-0.553-0.448-1-1-1H155.63c-0.552,0-1,0.447-1,1c0,0.553,0.448,1,1,1h11.946C168.128,321.985,168.576,321.538,168.576,320.985z
		 M144.684,320.985c0-0.553-0.448-1-1-1h-11.946c-0.552,0-1,0.447-1,1c0,0.553,0.448,1,1,1h11.946
		C144.236,321.985,144.684,321.538,144.684,320.985z M120.792,320.985c0-0.553-0.448-1-1-1h-11.946c-0.552,0-1,0.447-1,1
		c0,0.553,0.448,1,1,1h11.946C120.344,321.985,120.792,321.538,120.792,320.985z M96.9,320.985c0-0.553-0.448-1-1-1H83.954
		c-0.552,0-1,0.447-1,1c0,0.553,0.448,1,1,1H95.9C96.452,321.985,96.9,321.538,96.9,320.985z M73.223,319.392
		c0.248-0.493,0.049-1.094-0.445-1.342c-3.37-1.692-6.201-4.46-7.97-7.793c-0.26-0.489-0.865-0.675-1.352-0.415
		c-0.488,0.26-0.673,0.865-0.415,1.353c1.962,3.696,5.101,6.766,8.839,8.643c0.144,0.072,0.297,0.106,0.448,0.106
		C72.695,319.943,73.048,319.741,73.223,319.392z M62.685,299.148v-11.945c0-0.553-0.448-1-1-1c-0.552,0-1,0.447-1,1v11.945
		c0,0.553,0.448,1,1,1C62.237,300.148,62.685,299.701,62.685,299.148z M62.685,275.257V263.31c0-0.553-0.448-1-1-1
		c-0.552,0-1,0.447-1,1v11.946c0,0.553,0.448,1,1,1C62.237,276.257,62.685,275.81,62.685,275.257z M62.685,251.365v-5.037
		c0-2.133,0.624-4.194,1.803-5.96c0.307-0.459,0.183-1.08-0.276-1.387c-0.458-0.308-1.08-0.184-1.387,0.276
		c-1.4,2.096-2.14,4.541-2.14,7.07v5.037c0,0.552,0.448,1,1,1C62.237,252.365,62.685,251.917,62.685,251.365z M468.275,234.749
		c0.524-0.174,0.809-0.74,0.635-1.264c-0.174-0.524-0.739-0.809-1.264-0.635c-1.469,0.487-3.006,0.733-4.569,0.733h-6.977
		c-0.553,0-1,0.448-1,1s0.447,1,1,1h6.977C464.854,235.583,466.603,235.303,468.275,234.749z M445.154,234.583c0-0.552-0.447-1-1-1
		h-11.946c-0.553,0-1,0.448-1,1s0.447,1,1,1h11.946C444.707,235.583,445.154,235.136,445.154,234.583z M421.262,234.583
		c0-0.552-0.447-1-1-1h-11.945c-0.553,0-1,0.448-1,1s0.447,1,1,1h11.945C420.814,235.583,421.262,235.136,421.262,234.583z
		 M397.37,234.583c0-0.552-0.447-1-1-1h-11.946c-0.553,0-1,0.448-1,1s0.447,1,1,1h11.946
		C396.923,235.583,397.37,235.136,397.37,234.583z M373.478,234.583c0-0.552-0.447-1-1-1h-11.946c-0.553,0-1,0.448-1,1s0.447,1,1,1
		h11.946C373.031,235.583,373.478,235.136,373.478,234.583z M349.586,234.583c0-0.552-0.447-1-1-1h-11.945c-0.553,0-1,0.448-1,1
		s0.447,1,1,1h11.945C349.139,235.583,349.586,235.136,349.586,234.583z M325.694,234.583c0-0.552-0.447-1-1-1h-11.946
		c-0.553,0-1,0.448-1,1s0.447,1,1,1h11.946C325.247,235.583,325.694,235.136,325.694,234.583z M301.802,234.583c0-0.552-0.447-1-1-1
		h-11.945c-0.553,0-1,0.448-1,1s0.447,1,1,1h11.945C301.354,235.583,301.802,235.136,301.802,234.583z M277.91,234.583
		c0-0.552-0.447-1-1-1h-11.946c-0.553,0-1,0.448-1,1s0.447,1,1,1h11.946C277.463,235.583,277.91,235.136,277.91,234.583z
		 M254.019,234.583c0-0.552-0.447-1-1-1h-11.946c-0.552,0-1,0.448-1,1s0.448,1,1,1h11.946
		C253.571,235.583,254.019,235.136,254.019,234.583z M230.126,234.583c0-0.552-0.448-1-1-1H217.18c-0.552,0-1,0.448-1,1s0.448,1,1,1
		h11.946C229.678,235.583,230.126,235.136,230.126,234.583z M206.234,234.583c0-0.552-0.448-1-1-1h-11.946c-0.552,0-1,0.448-1,1
		s0.448,1,1,1h11.946C205.787,235.583,206.234,235.136,206.234,234.583z M182.342,234.583c0-0.552-0.448-1-1-1h-11.946
		c-0.552,0-1,0.448-1,1s0.448,1,1,1h11.946C181.895,235.583,182.342,235.136,182.342,234.583z M158.45,234.583c0-0.552-0.448-1-1-1
		h-11.946c-0.552,0-1,0.448-1,1s0.448,1,1,1h11.946C158.002,235.583,158.45,235.136,158.45,234.583z M134.558,234.583
		c0-0.552-0.448-1-1-1h-11.946c-0.552,0-1,0.448-1,1s0.448,1,1,1h11.946C134.11,235.583,134.558,235.136,134.558,234.583z
		 M110.666,234.583c0-0.552-0.448-1-1-1H97.72c-0.552,0-1,0.448-1,1s0.448,1,1,1h11.946
		C110.218,235.583,110.666,235.136,110.666,234.583z M86.774,234.583c0-0.552-0.448-1-1-1H73.828c-0.552,0-1,0.448-1,1s0.448,1,1,1
		h11.946C86.327,235.583,86.774,235.136,86.774,234.583z M477.722,226.712c1.227-2.343,1.874-4.987,1.874-7.648v-4.475
		c0-0.552-0.447-1-1-1c-0.553,0-1,0.448-1,1v4.475c0,2.339-0.569,4.663-1.646,6.72c-0.257,0.49-0.067,1.094,0.422,1.35
		c0.148,0.077,0.307,0.114,0.463,0.114C477.195,227.249,477.543,227.053,477.722,226.712z M479.596,202.643v-11.946
		c0-0.552-0.447-1-1-1c-0.553,0-1,0.448-1,1v11.946c0,0.552,0.447,1,1,1C479.148,203.643,479.596,203.195,479.596,202.643z
		 M479.596,178.751v-4.145c0.001-2.782-0.704-5.533-2.038-7.957c-0.267-0.483-0.874-0.661-1.358-0.393
		c-0.483,0.267-0.66,0.874-0.393,1.358c1.172,2.128,1.791,4.545,1.79,6.991v4.146c0,0.552,0.447,1,1,1
		C479.148,179.751,479.596,179.304,479.596,178.751z M468.603,160.065c0.162-0.528-0.134-1.087-0.662-1.25
		c-1.569-0.483-3.206-0.729-4.864-0.729h-7.306c-0.553,0-1,0.448-1,1c0,0.552,0.447,1,1,1h7.306c1.459,0,2.897,0.215,4.276,0.64
		c0.098,0.03,0.196,0.045,0.294,0.045C468.075,160.771,468.471,160.495,468.603,160.065z M444.825,159.086c0-0.552-0.447-1-1-1
		H431.88c-0.553,0-1,0.448-1,1c0,0.552,0.447,1,1,1h11.945C444.378,160.086,444.825,159.639,444.825,159.086z M420.934,159.086
		c0-0.552-0.447-1-1-1h-11.946c-0.553,0-1,0.448-1,1c0,0.552,0.447,1,1,1h11.946C420.486,160.086,420.934,159.639,420.934,159.086z
		 M397.042,159.086c0-0.552-0.447-1-1-1h-11.946c-0.553,0-1,0.448-1,1c0,0.552,0.447,1,1,1h11.946
		C396.595,160.086,397.042,159.639,397.042,159.086z M373.149,159.086c0-0.552-0.447-1-1-1h-11.946c-0.553,0-1,0.448-1,1
		c0,0.552,0.447,1,1,1h11.946C372.702,160.086,373.149,159.639,373.149,159.086z M349.258,159.086c0-0.552-0.447-1-1-1h-11.946
		c-0.553,0-1,0.448-1,1c0,0.552,0.447,1,1,1h11.946C348.81,160.086,349.258,159.639,349.258,159.086z M325.365,159.086
		c0-0.552-0.447-1-1-1H312.42c-0.553,0-1,0.448-1,1c0,0.552,0.447,1,1,1h11.945C324.918,160.086,325.365,159.639,325.365,159.086z
		 M301.474,159.086c0-0.552-0.447-1-1-1h-11.946c-0.553,0-1,0.448-1,1c0,0.552,0.447,1,1,1h11.946
		C301.026,160.086,301.474,159.639,301.474,159.086z M277.582,159.086c0-0.552-0.447-1-1-1h-11.946c-0.553,0-1,0.448-1,1
		c0,0.552,0.447,1,1,1h11.946C277.135,160.086,277.582,159.639,277.582,159.086z M253.689,159.086c0-0.552-0.447-1-1-1h-11.946
		c-0.552,0-1,0.448-1,1c0,0.552,0.448,1,1,1h11.946C253.242,160.086,253.689,159.639,253.689,159.086z M229.797,159.086
		c0-0.552-0.448-1-1-1h-11.946c-0.552,0-1,0.448-1,1c0,0.552,0.448,1,1,1h11.946C229.35,160.086,229.797,159.639,229.797,159.086z
		 M205.906,159.086c0-0.552-0.448-1-1-1h-11.946c-0.552,0-1,0.448-1,1c0,0.552,0.448,1,1,1h11.946
		C205.458,160.086,205.906,159.639,205.906,159.086z M182.014,159.086c0-0.552-0.448-1-1-1h-11.946c-0.552,0-1,0.448-1,1
		c0,0.552,0.448,1,1,1h11.946C181.566,160.086,182.014,159.639,182.014,159.086z M158.122,159.086c0-0.552-0.448-1-1-1h-11.946
		c-0.552,0-1,0.448-1,1c0,0.552,0.448,1,1,1h11.946C157.674,160.086,158.122,159.639,158.122,159.086z M134.229,159.086
		c0-0.552-0.448-1-1-1h-11.946c-0.552,0-1,0.448-1,1c0,0.552,0.448,1,1,1h11.946C133.782,160.086,134.229,159.639,134.229,159.086z
		 M111.025,156.067c0.381-0.4,0.366-1.033-0.033-1.414c-2.482-2.367-3.849-5.559-3.849-8.988v-1.083c0-0.552-0.448-1-1-1
		c-0.552,0-1,0.448-1,1v1.083c0,3.981,1.587,7.687,4.468,10.436c0.194,0.185,0.442,0.276,0.69,0.276
		C110.565,156.377,110.829,156.273,111.025,156.067z M107.144,132.636V120.69c0-0.552-0.448-1-1-1c-0.552,0-1,0.448-1,1v11.946
		c0,0.552,0.448,1,1,1C106.696,133.636,107.144,133.188,107.144,132.636z M107.144,108.744v-2.505c0-2.987,0.878-5.871,2.54-8.337
		c0.309-0.458,0.188-1.079-0.271-1.388s-1.079-0.188-1.388,0.271c-1.886,2.798-2.882,6.067-2.882,9.455v2.505c0,0.552,0.448,1,1,1
		C106.696,109.744,107.144,109.296,107.144,108.744z M118.682,91.689c1.108-0.258,2.252-0.389,3.4-0.389h8.286c0.552,0,1-0.448,1-1
		c0-0.552-0.448-1-1-1h-8.286c-1.3,0-2.597,0.148-3.853,0.44c-0.538,0.126-0.873,0.663-0.748,1.201
		c0.107,0.462,0.519,0.774,0.973,0.773C118.53,91.715,118.606,91.706,118.682,91.689z M142.472,91.062
		c4.198-0.73,8.008-3.165,10.453-6.681c0.315-0.453,0.204-1.077-0.25-1.392c-0.453-0.315-1.076-0.203-1.392,0.25
		c-2.142,3.08-5.479,5.213-9.154,5.851c-0.544,0.095-0.908,0.612-0.814,1.157c0.085,0.486,0.507,0.829,0.984,0.829
		C142.356,91.076,142.414,91.071,142.472,91.062z M155.797,72.419v-8.123c0.001-1.198,0.15-2.386,0.446-3.532
		c0.138-0.535-0.184-1.08-0.719-1.218c-0.534-0.137-1.08,0.184-1.218,0.719c-0.337,1.309-0.509,2.665-0.509,4.031v8.124
		c0,0.552,0.448,1,1,1C155.35,73.419,155.797,72.972,155.797,72.419z M162.807,52.105c2.144-1.249,4.595-1.909,7.09-1.909h3.987
		c0.552,0,1-0.448,1-1c0-0.552-0.448-1-1-1h-3.987c-2.849,0-5.649,0.754-8.097,2.182c-0.477,0.278-0.639,0.89-0.36,1.367
		c0.186,0.319,0.521,0.497,0.865,0.497C162.475,52.242,162.648,52.198,162.807,52.105z M366.02,49.196c0-0.552-0.447-1-1-1h-11.946
		c-0.553,0-1,0.448-1,1c0,0.552,0.447,1,1,1h11.946C365.573,50.196,366.02,49.749,366.02,49.196z M342.129,49.196
		c0-0.552-0.447-1-1-1h-11.946c-0.553,0-1,0.448-1,1c0,0.552,0.447,1,1,1h11.946C341.682,50.196,342.129,49.749,342.129,49.196z
		 M318.236,49.196c0-0.552-0.447-1-1-1H305.29c-0.553,0-1,0.448-1,1c0,0.552,0.447,1,1,1h11.946
		C317.789,50.196,318.236,49.749,318.236,49.196z M294.345,49.196c0-0.552-0.447-1-1-1h-11.946c-0.553,0-1,0.448-1,1
		c0,0.552,0.447,1,1,1h11.946C293.897,50.196,294.345,49.749,294.345,49.196z M270.452,49.196c0-0.552-0.447-1-1-1h-11.945
		c-0.553,0-1,0.448-1,1c0,0.552,0.447,1,1,1h11.945C270.005,50.196,270.452,49.749,270.452,49.196z M246.561,49.196
		c0-0.552-0.448-1-1-1h-11.946c-0.552,0-1,0.448-1,1c0,0.552,0.448,1,1,1h11.946C246.113,50.196,246.561,49.749,246.561,49.196z
		 M222.668,49.196c0-0.552-0.448-1-1-1h-11.946c-0.552,0-1,0.448-1,1c0,0.552,0.448,1,1,1h11.946
		C222.221,50.196,222.668,49.749,222.668,49.196z M198.776,49.196c0-0.552-0.448-1-1-1h-11.946c-0.552,0-1,0.448-1,1
		c0,0.552,0.448,1,1,1h11.946C198.329,50.196,198.776,49.749,198.776,49.196z M347.895,311.048v-6c0-0.553-0.447-1-1-1
		c-0.553,0-1,0.447-1,1v6c0,0.553,0.447,1,1,1C347.448,312.048,347.895,311.601,347.895,311.048z"/>
	<path style="opacity:0.1;" d="M87.382,156.701v-5.118h-3.304v5.118h-8.26v-5.118h-3.304v5.118h-8.259v-5.118h-3.304v5.118H57.39
		v31.038h33.554v-31.038H87.382z M68,180.656h-5.286v-5.286H68V180.656z M68,172.286h-5.286V167H68V172.286z M76.81,180.656h-5.286
		v-5.286h5.286V180.656z M76.81,172.286h-5.286V167h5.286V172.286z M85.62,180.656h-5.286v-5.286h5.286V180.656z M85.62,172.286
		h-5.286V167h5.286V172.286z"/>
	<path style="opacity:0.1;" d="M281.382,409.701v-5.118h-3.304v5.118h-8.26v-5.118h-3.304v5.118h-8.259v-5.118h-3.304v5.118h-3.562
		v31.038h33.554v-31.038H281.382z M262,433.656h-5.286v-5.286H262V433.656z M262,425.286h-5.286V420H262V425.286z M270.81,433.656
		h-5.286v-5.286h5.286V433.656z M270.81,425.286h-5.286V420h5.286V425.286z M279.62,433.656h-5.286v-5.286h5.286V433.656z
		 M279.62,425.286h-5.286V420h5.286V425.286z"/>
	<path style="opacity:0.1;" d="M437.572,37.415v-5.119h-3.304v5.119h-8.26v-5.119h-3.304v5.119h-8.259v-5.119h-3.304v5.119h-3.562
		v31.038h33.554V37.415H437.572z M418.19,61.37h-5.286v-5.286h5.286V61.37z M418.19,53h-5.286v-5.286h5.286V53z M427,61.37h-5.286
		v-5.286H427V61.37z M427,53h-5.286v-5.286H427V53z M435.81,61.37h-5.286v-5.286h5.286V61.37z M435.81,53h-5.286v-5.286h5.286V53z"
		/>
</g>
<g id="Window">
	<g>
		<path style="fill:#E5E5E5;" d="M444.977,340.632H176.814V82.089c0-2.258,1.831-4.089,4.089-4.089h259.984
			c2.258,0,4.089,1.831,4.089,4.089V340.632z"/>
		<path style="fill:#CCCCCC;" d="M222.763,165.781c0,3.835-3.109,6.945-6.945,6.945c-3.836,0-6.945-3.109-6.945-6.945
			c0-3.836,3.109-6.945,6.945-6.945C219.654,158.836,222.763,161.945,222.763,165.781z"/>
		<path style="fill:#FFFFFF;" d="M444.977,107.317l-34.703,33.329c-6.112-0.516-11.883-0.22-15.27,0.204
			c-0.397,0.047-0.814-0.103-1.276-0.467c-6.494-5.102-12.554-42.257-15.184-62.383h-1.905c2.09,16.047,8.205,57.813,15.919,63.873
			c0.868,0.682,1.765,0.97,2.681,0.856c3.747-0.468,8.438-0.646,13.222-0.342l-28.09,26.978l-39.521-29.274
			c-4.072-3.016-9.78-2.529-13.273,1.137c-4.243,4.453-7.468,8.053-9.588,10.703c-2.794,3.493-7.219,8.97-12.147,14.986
			l-14.689-11.824c0.003-0.004,0.007-0.009,0.01-0.013c8.722-11.504,16.254-21.44,20.705-26.559
			c9.055-10.414,30.006-36.674,40.996-50.522h-2.418c-11.196,14.1-31.225,39.178-40.007,49.279
			c-4.489,5.162-12.029,15.108-20.761,26.627l-20.004-16.102c0.208-0.398,0.128-0.893-0.238-1.179
			c-0.359-0.28-0.846-0.245-1.181,0.037l-19.643-15.811c-0.406-0.328-1.003-0.264-1.331,0.144c-0.328,0.407-0.263,1.003,0.144,1.331
			l19.636,15.806c-2.809,3.611-10.696,13.786-16.325,21.394l-52.647-40.582c-0.413-0.319-1.01-0.243-1.328,0.172
			c-0.319,0.414-0.242,1.009,0.172,1.328l52.68,40.607c-1.159,1.582-2.189,3.015-3.004,4.192
			c-6.236,9.008-14.585,17.585-29.237,12.895c-14.995-4.798-16.955-15.827-17.031-16.292c-0.035-0.222-0.148-0.424-0.318-0.571
			l-13.624-11.712c1.019-7.298,2.172-17.554,3.455-31.996c1.358-15.286,2.434-30.561,3.032-39.566h-1.887
			c-1.503,23.013-3.86,51.794-6.288,70.112l-7.166-6.161v2.498l6.862,5.899c-1.257,9.002-2.525,15.03-3.694,15.831
			c-0.976,0.434-2.053,1.062-3.168,1.801v2.301c1.403-0.999,2.761-1.848,3.937-2.371c0.815-0.362,2.364-1.052,4.598-16.124
			l12.46,10.711c0.456,2.117,3.44,12.703,18.257,17.445c3.047,0.975,5.846,1.408,8.428,1.408
			c10.906-0.001,17.895-7.738,22.944-15.029c0.8-1.156,1.811-2.562,2.947-4.113l20.263,15.619
			c-10.874,13.959-21.572,27.016-29.054,33.982c-8.919,8.305-20.175,18.029-29.327,25.781
			c-12.837-8.417-24.865-17.523-25.013-17.635c-0.018-0.014-0.041-0.015-0.06-0.027c-0.023-0.015-0.037-0.038-0.061-0.051
			l-10.317-5.596v2.154l7.308,3.964c-1.745,0.441-4.347,1.067-7.308,1.682v1.944c4.592-0.941,8.37-1.93,9.667-2.28
			c2.109,1.586,12.813,9.576,24.277,17.12c-8.644,7.303-15.075,12.57-15.208,12.679c-0.405,0.331-0.464,0.928-0.133,1.333
			c0.187,0.229,0.459,0.347,0.733,0.347c0.211,0,0.423-0.07,0.599-0.214c0.135-0.111,6.787-5.56,15.663-13.063
			c2.635,1.712,5.291,3.385,7.873,4.934c1.787,1.072,3.792,2.257,5.947,3.531c5.158,3.049,11.439,6.764,17.651,10.683
			l-18.125,19.687c-0.246,0.267-0.317,0.652-0.184,0.99c0.134,0.339,0.449,0.57,0.811,0.596c0.166,0.012,16.758,1.449,30.234,20.439
			c11.729,16.527,22.865,30.416,42.51,39.825h4.603c-21.669-9.231-33.281-23.608-45.569-40.922
			c-11.474-16.169-24.934-20.061-29.794-20.968l17.139-18.616c12.398,7.916,24.095,16.495,25.485,22.053
			c2.029,8.114,11.861,18.109,16.586,22.913c1.211,1.229,2.255,2.292,2.485,2.637c1.322,1.983,9.968,6.909,11.688,7.877
			c0.066,0.036,0.135,0.066,0.207,0.086c1.7,0.479,12.138,3.324,20.421,3.324c4.32,0,8.053-0.774,9.654-3.061
			c2.553-3.648,9.985-9.499,15.958-14.201c4.243-3.34,7.908-6.226,9.247-7.832c0.373-0.448,2.074-2.033,4.788-4.485l7.061,7.061
			l-53.893,44.135h2.989l52.25-42.789l9.319,9.319l-37.652,33.47h2.85l36.811-32.721c0.195-0.173,0.31-0.419,0.318-0.68
			c0.007-0.261-0.093-0.513-0.277-0.697l-9.896-9.896l45.275-37.077l15.378,12.379l-56.874,50.555
			c-2.642,2.347-2.923,6.301-0.64,8.999c1.282,1.513,3.086,2.296,4.915,2.296c1.428,0,2.871-0.477,4.089-1.458l59.357-51.663
			l0.842,0.677v-3.92l-0.888,0.773l-7.868-6.333l8.756-7.783v-2.534l-10.252,9.113l-15.316-12.329l25.568-20.938v-2.448
			l-27.076,22.173l-9.623-7.746c12.732-11.109,25.848-22.516,36.699-31.934v-2.507c-7.632,6.625-22.653,19.674-38.196,33.236
			l-18.991-15.287c16.735-16.479,39.23-38.791,42.789-43.141c6.003-7.337,8.371-28.717,2.618-38.945
			c-3.469-6.166-12.026-8.875-20.455-9.895l32.235-30.958V107.317z M434.785,273.143l7.852,6.32l-59.073,51.417
			c-1.946,1.562-4.731,1.293-6.342-0.61c-1.614-1.908-1.416-4.701,0.451-6.361L434.785,273.143z M319.468,153.114
			c2.055-2.57,5.333-6.228,9.478-10.579c2.837-2.975,7.468-3.372,10.775-0.922l39.262,29.083l-31.21,29.974l-40.457-32.566
			C314.067,159.859,319.33,153.286,319.468,153.114z M290.008,156.603l14.632,11.779c-5.542,6.751-11.592,14.022-16.638,19.871
			l-13.965-10.764C279.474,170.486,284.92,163.313,290.008,156.603z M252.234,160.681c5.598-7.568,13.474-17.729,16.3-21.363
			l19.997,16.097c-5.095,6.72-10.552,13.907-15.994,20.917L252.234,160.681z M243.612,213.194
			c7.568-7.046,18.336-20.185,29.263-34.212l13.885,10.703c-4.68,5.381-8.314,9.297-9.54,9.997
			c-3.334,1.906-29.537,14.88-41.731,20.904C238.317,218.06,241.061,215.569,243.612,213.194z M245.92,257.673
			c-6.194-3.914-12.536-7.664-17.996-10.892c-2.151-1.272-4.152-2.455-5.936-3.525c-2.407-1.444-4.879-2.996-7.338-4.588
			c4.811-4.078,10.17-8.675,15.461-13.318c0.005-0.002,0.011-0.001,0.016-0.004c1.78-0.877,43.64-21.507,48.034-24.019
			c1.412-0.807,5.324-5.007,10.209-10.617c0.018,0.001,0.036,0.009,0.054,0.009c0.284,0,0.564-0.127,0.751-0.369
			c0.174-0.226,0.22-0.502,0.169-0.761c5.218-6.03,11.382-13.448,16.773-20.02l40.281,32.424l-20.747,19.926
			c-0.013,0.013-0.017,0.031-0.029,0.044c-0.016,0.016-0.036,0.024-0.051,0.042l-32.242,39.682l-28.941-22.783
			c-0.388-0.307-0.947-0.262-1.283,0.103L245.92,257.673z M331.211,314.868c-3.29,4.699-21.146,0.922-27.901-0.97
			c-3.839-2.164-10.12-5.988-10.942-7.22c-0.315-0.474-1.102-1.28-2.711-2.915c-4.607-4.683-14.196-14.431-16.099-22.042
			c-1.531-6.126-13.259-14.856-26.014-23.015l16.359-17.77l28.985,22.817c0.406,0.321,0.995,0.254,1.321-0.147l31.412-38.66
			l9.823,85.338C333.641,311.96,332.151,313.525,331.211,314.868z M362.078,287.505c-3.13,2.822-5.132,4.683-5.566,5.203
			c-1.212,1.454-4.978,4.418-8.964,7.557c-3.5,2.755-7.252,5.711-10.379,8.459l-9.871-85.763l20.585-19.77l37.059,29.831
			c-9.505,9.355-16.8,16.487-17.001,16.683c-0.147,0.144-0.244,0.333-0.275,0.537L362.078,287.505z M406.829,250.639l9.575,7.708
			l-45.114,36.945l-7.125-7.125C372.824,280.392,389.356,265.889,406.829,250.639z M405.331,249.434
			c-15.756,13.751-31.808,27.822-41.04,36.084l5.203-34.681c1.489-1.456,8.327-8.144,16.937-16.617L405.331,249.434z
			 M386.302,231.684l-37.041-29.816l31.266-30.028l37.799,28C409.39,208.885,396.708,221.435,386.302,231.684z M431.546,151.724
			c5.338,9.492,3.105,30.047-2.434,36.817c-1.202,1.469-4.696,5.116-9.442,9.936l-37.757-27.968l29.066-27.915
			C419.777,143.475,428.387,146.108,431.546,151.724z"/>
		<g>
			<rect x="285.145" y="310.305" style="fill:#FFFFFF;" width="150.613" height="25.968"/>
			<g>
				<rect x="295.296" y="322.698" style="fill:#92E3A9;" width="9.915" height="11.331"/>
				<rect x="308.988" y="322.462" style="fill:#92E3A9;" width="9.915" height="11.568"/>
				<rect x="322.68" y="319.865" style="fill:#92E3A9;" width="9.915" height="14.164"/>
				<rect x="336.372" y="326.475" style="fill:#92E3A9;" width="9.915" height="7.554"/>
				<rect x="350.065" y="318.921" style="fill:#92E3A9;" width="9.915" height="15.109"/>
				<rect x="363.757" y="323.406" style="fill:#92E3A9;" width="9.915" height="10.623"/>
				<rect x="377.449" y="328.364" style="fill:#92E3A9;" width="9.915" height="5.666"/>
				<rect x="391.141" y="325.531" style="fill:#92E3A9;" width="9.915" height="8.499"/>
				<rect x="404.833" y="327.892" style="fill:#92E3A9;" width="9.915" height="6.138"/>
				<rect x="418.525" y="318.921" style="fill:#92E3A9;" width="9.915" height="15.109"/>
			</g>
		</g>
		<path style="fill:#CCCCCC;" d="M177.542,340.632h67.015c-4.585-2.201-11.488-5.66-12.323-6.912
			c-1.263-1.894-8.208-13.89-11.996-14.521c-3.788-0.631-5.051,3.788-5.051,3.788l8.208,13.258l-3.157-1.894
			c0,0-7.576-8.207-9.47-9.47c-1.894-1.263,0-6.314,0.631-10.102c0.631-3.788,5.051-6.314,6.313-9.47c1.263-3.157,0-12.627,0-15.784
			c0-3.157-5.682-12.627-9.47-20.203c-3.788-7.576-16.415-22.097-23.36-25.254c-1.967-0.894-4.503-1.477-7.34-1.864V340.632z"/>
		<polygon style="fill:#CCCCCC;" points="335.143,153.154 325.042,165.781 337.669,182.196 361.029,170.201 		"/>
		<polygon style="fill:#CCCCCC;" points="347.77,209.975 333.249,223.865 338.931,254.801 354.715,259.221 359.766,245.962 
			374.918,231.441 		"/>
		<path style="fill:none;stroke:#263238;stroke-linecap:round;stroke-linejoin:round;stroke-miterlimit:10;" d="M444.977,340.632
			H176.814V82.089c0-2.258,1.831-4.089,4.089-4.089h259.984c2.258,0,4.089,1.831,4.089,4.089V340.632z"/>
		<path style="fill:#92E3A9;stroke:#263238;stroke-linecap:round;stroke-linejoin:round;stroke-miterlimit:10;" d="M444.977,128.499
			H176.814V82.089c0-2.258,1.831-4.089,4.089-4.089h259.984c2.258,0,4.089,1.831,4.089,4.089V128.499z"/>
		
			<rect x="194.352" y="109.591" style="fill:#FFFFFF;stroke:#263238;stroke-linecap:round;stroke-linejoin:round;stroke-miterlimit:10;" width="211.502" height="8.839"/>
		<path style="fill:#808080;stroke:#263238;stroke-linecap:round;stroke-linejoin:round;stroke-miterlimit:10;" d="M441.104,78
			H194.184v22.735h250.793V81.873C444.977,79.734,443.243,78,441.104,78z"/>
		<path style="fill:#263238;stroke:#263238;stroke-linecap:round;stroke-linejoin:round;stroke-miterlimit:10;" d="M444.977,92.786
			H176.814V82.089c0-2.258,1.831-4.089,4.089-4.089h259.984c2.258,0,4.089,1.831,4.089,4.089V92.786z"/>
		<circle style="fill:#FFFFFF;" cx="433.955" cy="85.65" r="2.021"/>
		<circle style="fill:#FFFFFF;" cx="425.619" cy="85.65" r="2.021"/>
		<circle style="fill:#FFFFFF;" cx="417.284" cy="85.65" r="2.021"/>
	</g>
</g>
<g id="Locations">
	<g>
		<g>
			<path style="fill:#263238;stroke:#263238;stroke-linecap:round;stroke-linejoin:round;stroke-miterlimit:10;" d="
				M374.899,167.999h-33.301c-2.609,0-4.723,2.115-4.723,4.723v31.265c0,2.609,2.115,4.723,4.723,4.723h9.856l7.239,14.249
				l6.65-14.249h9.556c2.608,0,4.723-2.115,4.723-4.723v-31.265C379.622,170.113,377.507,167.999,374.899,167.999z"/>
			<g>
				<path style="fill:#92E3A9;" d="M351.948,183.194l1.154-7.65h2.355v10.775h-1.601v-7.727l-1.171,7.727h-1.601l-1.262-7.619v7.619
					h-1.478v-10.775h2.355L351.948,183.194z"/>
				<path style="fill:#92E3A9;" d="M356.555,178.13c0-1.724,0.907-2.709,2.571-2.709c1.662,0,2.571,0.985,2.571,2.709v5.603
					c0,1.723-0.909,2.709-2.571,2.709c-1.663,0-2.571-0.985-2.571-2.709V178.13z M358.248,183.84c0,0.77,0.338,1.062,0.877,1.062
					c0.539,0,0.877-0.292,0.877-1.062v-5.818c0-0.77-0.338-1.062-0.877-1.062c-0.539,0-0.877,0.293-0.877,1.062V183.84z"/>
				<path style="fill:#92E3A9;" d="M364.301,178.515v7.804h-1.524v-10.775h2.124l1.74,6.45v-6.45h1.508v10.775h-1.74
					L364.301,178.515z"/>
			</g>
			<g>
				<path style="fill:#92E3A9;" d="M355.244,191.718c-0.539,0-0.879,0.293-0.879,1.062v1.154h-1.601v-1.047
					c0-1.724,0.862-2.709,2.524-2.709c1.663,0,2.526,0.985,2.526,2.709c0,3.386-3.372,4.649-3.372,6.418
					c0,0.077,0,0.154,0.015,0.231h3.202v1.539h-4.896v-1.324c0-3.171,3.356-3.694,3.356-6.804
					C356.121,191.98,355.782,191.718,355.244,191.718z"/>
				<path style="fill:#92E3A9;" d="M361.343,191.718c-0.539,0-0.879,0.293-0.879,1.062v1.154h-1.601v-1.047
					c0-1.724,0.862-2.709,2.524-2.709c1.663,0,2.526,0.985,2.526,2.709c0,3.386-3.371,4.649-3.371,6.418
					c0,0.077,0,0.154,0.015,0.231h3.202v1.539h-4.896v-1.324c0-3.171,3.357-3.694,3.357-6.804
					C362.22,191.98,361.88,191.718,361.343,191.718z"/>
			</g>
		</g>
		<g>
			
				<circle style="fill:#92E3A9;stroke:#263238;stroke-linecap:round;stroke-linejoin:round;stroke-miterlimit:10;" cx="358.251" cy="229.848" r="3.693"/>
			
				<circle style="fill:#92E3A9;stroke:#263238;stroke-linecap:round;stroke-linejoin:round;stroke-miterlimit:10;" cx="244.371" cy="137.513" r="3.693"/>
			<path style="fill:#92E3A9;stroke:#263238;stroke-linecap:round;stroke-linejoin:round;stroke-miterlimit:10;" d="
				M296.694,228.617c0,2.04-1.654,3.693-3.693,3.693c-2.04,0-3.693-1.654-3.693-3.693c0-2.04,1.654-3.693,3.693-3.693
				C295.04,224.924,296.694,226.577,296.694,228.617z"/>
			
				<circle style="fill:#92E3A9;stroke:#263238;stroke-linecap:round;stroke-linejoin:round;stroke-miterlimit:10;" cx="214.612" cy="200.805" r="3.693"/>
			<path style="fill:#92E3A9;stroke:#263238;stroke-linecap:round;stroke-linejoin:round;stroke-miterlimit:10;" d="
				M229.916,293.687c0,2.04-1.654,3.693-3.693,3.693c-2.04,0-3.693-1.654-3.693-3.693c0-2.04,1.653-3.693,3.693-3.693
				C228.262,289.993,229.916,291.647,229.916,293.687z"/>
			
				<circle style="fill:#92E3A9;stroke:#263238;stroke-linecap:round;stroke-linejoin:round;stroke-miterlimit:10;" cx="400.986" cy="287.576" r="3.693"/>
			
				<circle style="fill:#92E3A9;stroke:#263238;stroke-linecap:round;stroke-linejoin:round;stroke-miterlimit:10;" cx="419.902" cy="173.919" r="3.693"/>
			
				<circle style="fill:#92E3A9;stroke:#263238;stroke-linecap:round;stroke-linejoin:round;stroke-miterlimit:10;" cx="400.109" cy="138.129" r="3.693"/>
			<path style="fill:#92E3A9;stroke:#263238;stroke-linecap:round;stroke-linejoin:round;stroke-miterlimit:10;" d="
				M410.179,233.776c0,2.04-1.654,3.693-3.693,3.693s-3.693-1.654-3.693-3.693c0-2.04,1.654-3.693,3.693-3.693
				S410.179,231.736,410.179,233.776z"/>
			
				<circle style="fill:#92E3A9;stroke:#263238;stroke-linecap:round;stroke-linejoin:round;stroke-miterlimit:10;" cx="308.39" cy="195.377" r="3.693"/>
		</g>
	</g>
</g>
<g id="Character">
	<g>
		<g>
			<path style="fill:#263238;stroke:#263238;stroke-linecap:round;stroke-linejoin:round;stroke-miterlimit:10;" d="M95.5,357
				c0,0,2.25,25,3,30.25s-2.5,8.5-5.75,12s-4.5,10.75-4.5,16.25s-0.75,33-0.75,34.75s-0.5,6-0.5,6s8-0.25,9-0.25
				s4.75-14.25,5.75-18.25s8.75-29.25,11.75-36.25s3-12.25,4.25-15s2.75-25.25,2.75-25.25s13.5,23.75,14,27s0.75,4-0.5,6.75
				s-4,7.75-3.75,18.5s6.149,29.77,6.149,29.77l0.75,11.75c0,0,4.5,1.75,6.75,2.75s5.75-4.25,5.75-4.25s-0.149-8.77-0.399-15.27
				s1.5-30,2.5-34s2.5-12.75,1.5-18.25S149,355.25,149,355.25s-38,2.25-42.75,1.5s-11-1-11-1L95.5,357z"/>
			<g>
				<path style="fill:#FFFFFF;stroke:#263238;stroke-linecap:round;stroke-linejoin:round;stroke-miterlimit:10;" d="M100.5,447.75
					l1.5,7.75c0,0,6.25,5.25,8.75,7.25s4,1.5,4,3.25s-1.75,4.5-6,5.25S98.75,471,94,469.5s-6.932-4.467-6.932-4.467
					s-2.621,0.607-2.621-2.393s2.165-9.8,2.165-9.8s-1-3.716,0-4.216S91,451.75,91,451.75S91.5,443,100.5,447.75z"/>
				<path style="fill:#D2F4DC;stroke:#263238;stroke-linecap:round;stroke-linejoin:round;stroke-miterlimit:10;" d="
					M114.62,466.861c-0.611-0.133-1.163-0.142-1.557,0.076c-1.687,0.936-8.814,4.775-17.996,0.367
					c-5.892-2.828-8.901-5.65-10.308-7.313c-0.187,1.002-0.312,1.935-0.312,2.649c0,3,2.621,2.393,2.621,2.393S89.25,468,94,469.5
					s10.5,2.5,14.75,1.75C112.352,470.614,114.153,468.543,114.62,466.861z"/>
			</g>
			<g>
				<path style="fill:#FFFFFF;stroke:#263238;stroke-linecap:round;stroke-linejoin:round;stroke-miterlimit:10;" d="
					M151.839,447.522c0,0-2.519-0.523-3.638,1.829c-1.119,2.352-2.239,5.487-2.239,5.487s-4.477-0.523-5.597-1.045
					c-1.119-0.523-2.239-1.829-2.239-1.829s-2.239-4.442-3.638-2.874c-1.399,1.568,1.399,6.793,1.399,6.793s-2.239,4.18-2.239,6.793
					c0,2.613,1.119,5.226,1.119,5.226s4.477,1.045,8.115,1.045c3.638,0,3.918-1.045,7.836-1.045s13.992,2.351,17.35,1.568
					c3.358-0.784,6.436-3.135,6.156-4.703c-0.28-1.568-11.753-5.487-15.391-7.838c-3.638-2.352-4.198-2.09-4.757-3.135
					C153.518,452.748,151.839,447.522,151.839,447.522z"/>
				<path style="fill:#92E3A9;stroke:#263238;stroke-linecap:round;stroke-linejoin:round;stroke-miterlimit:10;" d="
					M174.237,465.01c-3.857,3.903-8.953,3.299-13.362,2.417c-4.718-0.944-8.965-1.73-16.357-1.415
					c-5.558,0.236-9.07-0.149-10.471-0.355c0.322,1.309,0.721,2.245,0.721,2.245s4.477,1.045,8.115,1.045
					c3.638,0,3.918-1.045,7.835-1.045s13.992,2.351,17.35,1.568C171.258,468.725,174.189,466.568,174.237,465.01z"/>
			</g>
		</g>
		<g>
			<path style="fill:#FFFFFF;stroke:#263238;stroke-linecap:round;stroke-linejoin:round;stroke-miterlimit:10;" d="M89.75,347.971
				L89,359.162c0,0,18.75,4.253,34.25,3.805s32-6.938,32-6.938L152,344.39c0,0-34.25-0.224-41-0.671
				c-6.75-0.448-11-5.148-13.5-4.476c-2.5,0.671-5.5,8.505-5.5,8.505L89.75,347.971z"/>
			<path style="fill:#969696;stroke:#263238;stroke-linecap:round;stroke-linejoin:round;stroke-miterlimit:10;" d="M152,336.25
				l2.25,11.5c0,0-4.75,2.75-19.25,4s-33-0.5-33-0.5l-3.5-7.5l-1.25,8.75c0,0-6,0-7.25,0s-2-0.5-2-0.5l2.25-9.25
				c0,0,1-9.25,5.75-11.5s8.75,0.25,12,3.25s7,2.5,12.25,2.5s27.5-2.25,27.5-2.25S151.5,333.5,152,336.25z"/>
			<g>
				<path style="fill:#92E3A9;stroke:#263238;stroke-linecap:round;stroke-linejoin:round;stroke-miterlimit:10;" d="M144.5,251.25
					c0,0,9,23,12.75,31.25s7.25,17.75,6.75,23s-6.75,19-6.75,19s-6-39.5-7.25-43.5s-7-26.25-7-26.25S140.5,250,144.5,251.25z"/>
				<g>
					<path style="fill:#92E3A9;stroke:#263238;stroke-linecap:round;stroke-linejoin:round;stroke-miterlimit:10;" d="
						M95.406,242.527c0,0-5.247,5.449-6.862,12.109c-1.615,6.66-2.825,89.81-2.825,91.223c0,1.413,6.055-1.816,7.266-2.422
						c1.211-0.605,6.256-10.091,6.256-10.091l2.422,9.687c0,0,11.1-1.211,20.384-1.211c9.284,0,33.704-2.22,33.704-2.22
						s2.22-13.522,2.018-20.787c-0.202-7.266-1.816-18.769-1.816-20.586c0-1.816-7.669-40.162-10.495-45.813
						c-2.826-5.651-6.458-10.697-7.064-11.1c-0.605-0.404-7.871-4.642-14.733-5.046c-6.862-0.404-11.504-2.22-17.558,0.605
						C100.048,239.701,95.406,242.527,95.406,242.527z"/>
					<path style="fill:none;stroke:#263238;stroke-linecap:round;stroke-linejoin:round;stroke-miterlimit:10;" d="M134.761,267.351
						c0,0,3.431,19.778,4.44,26.439c1.009,6.66,3.229,32.695,3.229,36.529c0,3.835,0,9.082,0,9.082"/>
					<path style="fill:none;stroke:#263238;stroke-linecap:round;stroke-linejoin:round;stroke-miterlimit:10;" d="M128.706,275.827
						c0,0,3.835,19.778,5.853,31.686c2.018,11.908,1.413,28.86,1.413,28.86"/>
					<polyline style="fill:none;stroke:#263238;stroke-linecap:round;stroke-linejoin:round;stroke-miterlimit:10;" points="
						106.909,277.442 124.266,275.827 124.871,279.662 108.12,281.074 					"/>
					<polyline style="fill:none;stroke:#263238;stroke-linecap:round;stroke-linejoin:round;stroke-miterlimit:10;" points="
						150.301,273.405 140.21,274.213 141.017,277.643 149.897,276.836 					"/>
				</g>
			</g>
		</g>
		<g>
			<path style="fill:#263238;stroke:#263238;stroke-linecap:round;stroke-linejoin:round;stroke-miterlimit:10;" d="
				M121.239,224.363c0,0-9.284-1.816-12.109-0.605c-2.826,1.211-5.449,6.055-6.256,7.669c-0.807,1.615-9.284,5.046-9.889,7.467
				s-0.202,6.458,0.807,7.467c1.009,1.009,6.862,0.605,8.275,1.009c1.413,0.404,20.384,12.916,23.613,14.935
				c3.229,2.018,8.88,4.844,9.687,4.036c0.807-0.807,5.853-13.32,6.66-19.173c0.807-5.853-0.202-7.265-2.826-12.109
				C136.577,230.216,126.082,224.968,121.239,224.363z"/>
			<g>
				<g>
					<path style="fill:#FFFFFF;stroke:#263238;stroke-linecap:round;stroke-linejoin:round;stroke-miterlimit:10;" d="
						M118.413,208.419c0,0,1.413,8.88,1.413,11.302c0,2.422-3.835,13.926-3.835,13.926s7.669,16.549,11.907,21.191
						c4.238,4.642,6.257,5.651,6.257,5.651s0.605-9.486,1.211-13.926c0.605-4.44,6.989-17.426,6.989-17.426
						s-9.612,1.482-10.823-4.774c-1.211-6.256-0.807-11.706-2.018-14.935C128.302,206.199,120.835,207.006,118.413,208.419z"/>
					<path style="fill:#263238;stroke:#263238;stroke-linecap:round;stroke-linejoin:round;stroke-miterlimit:10;" d="
						M132.051,226.173l-4.609-0.864l0.379,3.979c0,0,2.842,7.39,8.148,11.18c0.305,0.218,0.59,0.397,0.862,0.549
						c1.097-3.172,5.524-11.88,5.524-11.88S133.978,231.455,132.051,226.173z"/>
				</g>
				<g>
					<path style="fill:#FFFFFF;stroke:#263238;stroke-linecap:round;stroke-linejoin:round;stroke-miterlimit:10;" d="
						M148.294,205.941l-0.322,5.544c0,0,5.006,3.62,5.5,5.368c0.493,1.748-2.424,4.04-2.424,4.04s-0.446,9.563-1.282,11.057
						c-0.836,1.494-4.995,1.62-7.296,1.64c-2.301,0.021-13.712-3.259-15.675-5.012c-1.963-1.753-4.355-7.998-4.355-7.998
						s-2.522-8.934-2.906-10.294c-0.384-1.36,0.98-3.213,6.947-5.107C132.446,203.285,148.607,203.336,148.294,205.941z"/>
					<path style="fill:#263238;stroke:#263238;stroke-linecap:round;stroke-linejoin:round;stroke-miterlimit:10;" d="
						M121.318,212.455c0,0,1.387,3.072,3.957,1.134c2.57-1.938,3.108-5.553,3.108-5.553l-15.283,4.141c0,0-1.187,6.223,1.207,9.184
						c2.395,2.961,5.902,1.278,5.704-1.264C119.813,217.555,121.318,212.455,121.318,212.455z"/>
					<path style="fill:none;stroke:#263238;stroke-linecap:round;stroke-linejoin:round;stroke-miterlimit:10;" d="M146.879,223.956
						c0,0-3.327,0.1-5.29-1.652"/>
					<path style="fill:#263238;" d="M143.258,211.872c0.258,0.912,0.118,1.749-0.311,1.87c-0.429,0.121-0.986-0.52-1.243-1.432
						s-0.118-1.749,0.311-1.87C142.444,210.319,143.001,210.96,143.258,211.872z"/>
				</g>
				<g>
					<path style="fill:#263238;stroke:#263238;stroke-linecap:round;stroke-linejoin:round;stroke-miterlimit:10;" d="
						M112.899,212.788c0,0,9.014-1.496,19.891-4.567c10.877-3.071,15.623-4.83,15.623-4.83l-4.859-15.338
						c-0.575-1.355-1.642-2.433-2.984-3.035c-3.105-1.394-9.569-1.078-14.22-0.354c-6.629,1.033-11.763,2.902-14.412,7.634
						c-2.648,4.732-2.194,10.056-1.481,12.581C111.17,207.405,112.899,212.788,112.899,212.788z"/>
					<path style="fill:#263238;stroke:#263238;stroke-linecap:round;stroke-linejoin:round;stroke-miterlimit:10;" d="
						M129.1,209.263c0,0,16.525-0.891,22.85-2.257c6.325-1.366,11.533-8.918,11.533-8.918l-15.146,1.973
						C148.337,200.061,138.053,200.863,129.1,209.263z"/>
				</g>
				<path style="fill:#FFFFFF;stroke:#263238;stroke-linecap:round;stroke-linejoin:round;stroke-miterlimit:10;" d="
					M122.821,213.762c0,0-1.401-4.218-4.981-2.788c-3.581,1.43-1.607,8.423,1.074,11.231c2.68,2.808,5.991-1.062,5.991-1.062"/>
			</g>
		</g>
		<g>
			<g>
				<path style="fill:#263238;stroke:#263238;stroke-linecap:round;stroke-linejoin:round;stroke-miterlimit:10;" d="
					M140.412,299.036l17.576-13.182c0.118-0.089,0.266-0.13,0.413-0.116l12.33,1.182c0.689,0.066,0.894,0.974,0.299,1.329
					l-15.684,9.374L140.412,299.036z"/>
				<path style="fill:#FFFFFF;stroke:#263238;stroke-linecap:round;stroke-linejoin:round;stroke-miterlimit:10;" d="
					M129.513,299.844c0,0,2.826-0.202,4.642-2.018c1.816-1.816,5.046-7.266,6.458-7.669c1.413-0.404,8.678-1.615,10.091-1.615
					c1.413,0,2.22,1.009,1.009,2.22c-1.211,1.211-6.862,3.835-6.862,3.835l-0.605,2.018c0,0,15.338-1.816,16.549-1.816
					c1.211,0,2.018,1.211,2.018,2.018c0,0.807-3.229,3.229-4.238,4.238c-1.009,1.009-6.458,5.046-7.871,5.853
					c-1.413,0.807-15.944-0.404-16.549-0.404c-0.605,0-4.844,1.009-4.844,1.009L129.513,299.844z"/>
				<path style="fill:none;stroke:#263238;stroke-linecap:round;stroke-linejoin:round;stroke-miterlimit:10;" d="M160.997,298.633
					c0,0-6.458,1.413-7.871,2.22c-1.413,0.807-6.257,0-6.257,0"/>
				<polyline style="fill:none;stroke:#263238;stroke-linecap:round;stroke-linejoin:round;stroke-miterlimit:10;" points="
					156.355,302.669 151.915,304.082 147.273,304.284 				"/>
			</g>
			<path style="fill:#92E3A9;stroke:#263238;stroke-linecap:round;stroke-linejoin:round;stroke-miterlimit:10;" d="
				M106.506,261.498c0.202,3.633-4.238,25.631-4.238,25.631l1.009,3.229v0.807l28.053,7.669c0,0,0,7.669-1.211,11.1
				c-1.211,3.431-2.22,9.486-2.22,9.486s-12.311-3.027-22.402-6.458c-10.091-3.431-25.833-8.477-28.86-11.907
				c-3.027-3.431-1.211-12.109-0.807-13.522c0.404-1.413,11.705-31.08,13.926-35.117c2.22-4.036,5.449-7.871,9.687-6.66
				c4.238,1.211,7.467,6.66,7.871,9.082"/>
			<path style="fill:none;stroke:#263238;stroke-linecap:round;stroke-linejoin:round;stroke-miterlimit:10;" d="M88.173,291.856
				c2.062-1.123,4.052-2.137,4.811-2.306c1.816-0.404,8.88,1.211,8.88,1.211"/>
			<path style="fill:none;stroke:#263238;stroke-linecap:round;stroke-linejoin:round;stroke-miterlimit:10;" d="M82.287,295.202
				c0,0,1.707-1.009,3.777-2.176"/>
			<path style="fill:none;stroke:#263238;stroke-linecap:round;stroke-linejoin:round;stroke-miterlimit:10;" d="M94.892,285.111
				c-1.376-0.567-2.612-1.009-3.119-1.009c-1.413,0-7.669,3.027-7.669,3.027"/>
			<path style="fill:none;stroke:#263238;stroke-linecap:round;stroke-linejoin:round;stroke-miterlimit:10;" d="M100.249,287.533
				c0,0-1.162-0.564-2.638-1.235"/>
		</g>
	</g>
</g>
</svg>
