<?xml version="1.0" encoding="utf-8"?>
<!-- Generator: Adobe Illustrator 27.5.0, SVG Export Plug-In . SVG Version: 6.00 Build 0)  -->
<svg version="1.1" xmlns="http://www.w3.org/2000/svg" xmlns:xlink="http://www.w3.org/1999/xlink" x="0px" y="0px"
	 viewBox="0 0 750 500" style="enable-background:new 0 0 750 500;" xml:space="preserve">
<g id="Background_Simple">
	<g>
		<path style="fill:#92E3A9;" d="M632.122,139.985c0,0-102.786-105.269-236.354-113.391s-211.462,78.153-248.372,129.615
			C110.488,207.671,18.435,293.407,29.265,371.923c10.83,78.516,117.323,138.08,269.842,111.908
			c152.519-26.172,196.741-36.099,266.232-16.245c69.491,19.855,159.739-9.927,161.544-122.738S632.122,139.985,632.122,139.985z"/>
		<path style="opacity:0.7;fill:#FFFFFF;" d="M632.122,139.985c0,0-102.786-105.269-236.354-113.391
			s-211.462,78.153-248.372,129.615C110.488,207.671,18.435,293.407,29.265,371.923c10.83,78.516,117.323,138.08,269.842,111.908
			c152.519-26.172,196.741-36.099,266.232-16.245c69.491,19.855,159.739-9.927,161.544-122.738S632.122,139.985,632.122,139.985z"/>
	</g>
</g>
<g id="Floor">
	<g>
		
			<line style="fill:none;stroke:#263238;stroke-linecap:round;stroke-linejoin:round;stroke-miterlimit:10;" x1="673.743" y1="443.286" x2="721.75" y2="443.286"/>
		
			<line style="fill:none;stroke:#263238;stroke-linecap:round;stroke-linejoin:round;stroke-miterlimit:10;" x1="65.394" y1="443.286" x2="662.725" y2="443.286"/>
		
			<line style="fill:none;stroke:#263238;stroke-linecap:round;stroke-linejoin:round;stroke-miterlimit:10;" x1="42.571" y1="443.286" x2="56.737" y2="443.286"/>
	</g>
</g>
<g id="Megaphone">
	<g>
		<path style="fill:#FFFFFF;stroke:#263238;stroke-linecap:round;stroke-linejoin:round;stroke-miterlimit:10;" d="M653.502,328.479
			L653.502,328.479c3.422,0.833,6.871-1.266,7.704-4.688l4.081-16.764c0.833-3.422-1.266-6.871-4.688-7.704l0,0
			c-3.422-0.833-6.871,1.266-7.704,4.688l-4.081,16.764C647.982,324.197,650.081,327.646,653.502,328.479z"/>
		<path style="fill:#FFFFFF;stroke:#263238;stroke-linecap:round;stroke-linejoin:round;stroke-miterlimit:10;" d="M659.985,348.093
			L659.985,348.093c2.448,0.596,4.597-0.983,4.801-3.526l1.693-21.082c0.204-2.543-1.614-5.087-4.062-5.683l0,0
			c-2.448-0.596-4.597,0.983-4.801,3.525l-1.693,21.082C655.719,344.953,657.537,347.497,659.985,348.093z"/>
		<path style="fill:#FFFFFF;stroke:#263238;stroke-linecap:round;stroke-linejoin:round;stroke-miterlimit:10;" d="M614.916,324.769
			l21.314-4.427c7.499-0.156,14.987,0.663,22.275,2.437l14.317,3.485c3.162,0.77,6.349-1.17,7.119-4.332l3.004-12.34
			c0.77-3.162-1.17-6.349-4.332-7.119l-11.582-2.819c-8.778-2.137-17.166-5.634-24.862-10.366l-15.126-14.34L614.916,324.769z"/>
		<path style="fill:#263238;stroke:#263238;stroke-linecap:round;stroke-linejoin:round;stroke-miterlimit:10;" d="M659.015,297.27
			c2.631,0.917,5.302,1.724,8.017,2.384l11.582,2.819c3.162,0.77,5.101,3.957,4.332,7.119l-3.004,12.34
			c-0.77,3.162-3.957,5.101-7.119,4.332l-14.317-3.485c-1.796-0.437-3.605-0.815-5.423-1.136L659.015,297.27z"/>
		<path style="fill:#92E3A9;stroke:#263238;stroke-linecap:round;stroke-linejoin:round;stroke-miterlimit:10;" d="M612.067,330.894
			l0.885,0.215c2.538,0.618,5.096-0.939,5.714-3.477l12.479-51.265c0.618-2.538-0.939-5.096-3.477-5.714l-0.885-0.215
			c-2.538-0.618-5.096,0.939-5.714,3.477L608.59,325.18C607.972,327.718,609.529,330.276,612.067,330.894z"/>
		
			<line style="fill:none;stroke:#263238;stroke-width:2;stroke-linecap:round;stroke-linejoin:round;stroke-miterlimit:10;" x1="604.13" y1="279.155" x2="609.128" y2="287.042"/>
		
			<line style="fill:none;stroke:#263238;stroke-width:2;stroke-linecap:round;stroke-linejoin:round;stroke-miterlimit:10;" x1="596.077" y1="312.237" x2="604.141" y2="307.529"/>
		
			<line style="fill:none;stroke:#263238;stroke-width:2;stroke-linecap:round;stroke-linejoin:round;stroke-miterlimit:10;" x1="604.883" y1="297.373" x2="595.087" y2="294.989"/>
		<path style="fill:#263238;stroke:#263238;stroke-linecap:round;stroke-linejoin:round;stroke-miterlimit:10;" d="M656.034,339.966
			l-3.43,2.927c-0.406,0.347-0.693,0.812-0.819,1.331l0,0c-0.332,1.363,0.504,2.736,1.867,3.068l10.827,2.636l0.679-9.895
			L656.034,339.966z"/>
		<path style="fill:#92E3A9;" d="M673.528,310.254c0.195-0.802,1.004-1.294,1.806-1.099s1.294,1.004,1.099,1.806
			s-1.004,1.294-1.806,1.099S673.333,311.056,673.528,310.254z"/>
	</g>
</g>
<g id="Badge">
	<g>
		<g>
			<g>
				<polygon style="fill:#92E3A9;stroke:#263238;stroke-linecap:round;stroke-linejoin:round;stroke-miterlimit:10;" points="
					671.659,196.1 666.849,192.42 661.089,188.01 644.939,175.65 644.939,175.64 644.919,175.63 644.799,175.54 627.229,188.26 
					621.189,192.62 616.259,196.2 627.619,136.62 633.029,108.26 653.009,108.68 654.499,108.71 655.659,108.73 660.429,134.76 				
					"/>
			</g>
			<path style="fill:#263238;stroke:#263238;stroke-linecap:round;stroke-linejoin:round;stroke-miterlimit:10;" d="M660.429,134.76
				c-0.82-0.15-1.68-0.36-2.24-0.07c-1.04,0.54-1.26,2.9-2.36,3.32c-1.09,0.43-2.84-1.16-3.98-0.85c-1.13,0.31-1.84,2.57-3,2.76
				c-1.15,0.18-2.54-1.74-3.72-1.67c-1.16,0.06-2.33,2.13-3.51,2.07c-1.19-0.06-2.15-2.22-3.3-2.4c-1.17-0.18-2.74,1.6-3.86,1.31
				c-1.14-0.3-1.64-2.62-2.73-3.03c-1.1-0.42-3,0.99-4.04,0.46c-0.02-0.01-0.05-0.02-0.07-0.04l5.41-28.36l19.98,0.42l1.49,0.03
				l1.16,0.02L660.429,134.76z"/>
			<path style="fill:#92E3A9;stroke:#263238;stroke-linecap:round;stroke-linejoin:round;stroke-miterlimit:10;" d="M610.743,97.725
				c0.057-1.185-1.873-2.558-1.697-3.705c0.179-1.17,2.432-1.903,2.727-3.028c0.3-1.143-1.302-2.887-0.889-3.977
				c0.418-1.103,2.774-1.348,3.3-2.391c0.531-1.051-0.671-3.092-0.037-4.075c0.637-0.988,2.993-0.737,3.726-1.649
				c0.736-0.915-0.016-3.162,0.81-3.994c0.826-0.833,3.079-0.1,3.987-0.842c0.907-0.742,0.636-3.095,1.618-3.74
				c0.979-0.643,3.03,0.541,4.075,0.002c1.039-0.536,1.263-2.895,2.359-3.322c1.088-0.424,2.847,1.161,3.985,0.851
				c1.125-0.306,1.836-2.566,3.002-2.755c1.148-0.186,2.537,1.732,3.719,1.666c1.159-0.064,2.325-2.127,3.51-2.07
				s2.148,2.222,3.296,2.397c1.17,0.179,2.736-1.597,3.862-1.302c1.143,0.3,1.635,2.617,2.725,3.03
				c1.103,0.418,3.006-0.992,4.048-0.465c1.051,0.53,1.047,2.9,2.03,3.533c0.988,0.637,3.144-0.344,4.056,0.389
				c0.915,0.736,0.42,3.052,1.252,3.878c0.833,0.826,3.145,0.312,3.888,1.22c0.742,0.907-0.222,3.071,0.423,4.053
				c0.643,0.979,3.012,0.954,3.551,1.999c0.536,1.039-0.855,2.955-0.428,4.052c0.424,1.088,2.746,1.558,3.056,2.696
				c0.306,1.125-1.455,2.707-1.266,3.873c0.186,1.148,2.358,2.093,2.424,3.275c0.064,1.159-1.988,2.341-2.045,3.526
				s1.873,2.558,1.697,3.705c-0.179,1.17-2.432,1.903-2.727,3.028c-0.3,1.143,1.302,2.887,0.889,3.977
				c-0.418,1.103-2.774,1.348-3.3,2.391c-0.531,1.051,0.671,3.092,0.037,4.075c-0.637,0.988-2.993,0.737-3.726,1.65
				c-0.736,0.915,0.016,3.162-0.81,3.994c-0.826,0.833-3.079,0.1-3.987,0.842c-0.907,0.742-0.636,3.095-1.618,3.74
				c-0.979,0.643-3.03-0.541-4.075-0.001c-1.039,0.536-1.262,2.895-2.359,3.322c-1.088,0.424-2.847-1.161-3.985-0.851
				c-1.125,0.306-1.836,2.566-3.002,2.755c-1.148,0.186-2.537-1.732-3.719-1.666c-1.159,0.064-2.325,2.127-3.51,2.07
				c-1.185-0.057-2.148-2.222-3.295-2.397c-1.17-0.179-2.737,1.597-3.862,1.302c-1.143-0.3-1.635-2.617-2.725-3.03
				c-1.103-0.417-3.006,0.992-4.048,0.465c-1.051-0.531-1.047-2.9-2.03-3.533c-0.988-0.637-3.144,0.344-4.056-0.389
				c-0.915-0.736-0.42-3.053-1.252-3.878c-0.833-0.826-3.145-0.312-3.888-1.221c-0.742-0.907,0.221-3.071-0.423-4.053
				c-0.643-0.979-3.012-0.954-3.551-1.999c-0.536-1.039,0.855-2.955,0.428-4.052c-0.424-1.088-2.746-1.558-3.056-2.696
				c-0.306-1.125,1.455-2.707,1.266-3.873c-0.186-1.148-2.358-2.093-2.424-3.275C608.634,100.091,610.686,98.91,610.743,97.725z"/>
			
				<ellipse transform="matrix(0.9526 -0.3044 0.3044 0.9526 0.3002 200.5008)" style="fill:#263238;stroke:#263238;stroke-linecap:round;stroke-linejoin:round;stroke-miterlimit:10;" cx="643.276" cy="99.287" rx="27.69" ry="27.69"/>
			
				<ellipse transform="matrix(0.5504 -0.8349 0.8349 0.5504 206.3494 581.7368)" style="fill:#FFFFFF;stroke:#263238;stroke-linecap:round;stroke-linejoin:round;stroke-miterlimit:10;" cx="643.276" cy="99.287" rx="24.548" ry="24.548"/>
		</g>
		<g>
			
				<polygon style="fill:#92E3A9;stroke:#263238;stroke-width:0.5;stroke-linecap:round;stroke-linejoin:round;stroke-miterlimit:10;" points="
				625.447,95.5 626.247,97.962 628.836,97.962 626.742,99.484 627.542,101.946 625.447,100.424 623.353,101.946 624.153,99.484 
				622.058,97.962 624.647,97.962 			"/>
			
				<polygon style="fill:#92E3A9;stroke:#263238;stroke-width:0.5;stroke-linecap:round;stroke-linejoin:round;stroke-miterlimit:10;" points="
				634.33,95.5 635.13,97.962 637.719,97.962 635.625,99.484 636.425,101.946 634.33,100.424 632.236,101.946 633.036,99.484 
				630.941,97.962 633.53,97.962 			"/>
			
				<polygon style="fill:#92E3A9;stroke:#263238;stroke-width:0.5;stroke-linecap:round;stroke-linejoin:round;stroke-miterlimit:10;" points="
				643.214,95.5 644.014,97.962 646.603,97.962 644.508,99.484 645.308,101.946 643.214,100.424 641.119,101.946 641.919,99.484 
				639.825,97.962 642.414,97.962 			"/>
			
				<polygon style="fill:#92E3A9;stroke:#263238;stroke-width:0.5;stroke-linecap:round;stroke-linejoin:round;stroke-miterlimit:10;" points="
				652.097,95.5 652.897,97.962 655.486,97.962 653.391,99.484 654.192,101.946 652.097,100.424 650.003,101.946 650.802,99.484 
				648.708,97.962 651.297,97.962 			"/>
			
				<polygon style="fill:#92E3A9;stroke:#263238;stroke-width:0.5;stroke-linecap:round;stroke-linejoin:round;stroke-miterlimit:10;" points="
				660.98,95.5 661.78,97.962 664.369,97.962 662.275,99.484 663.075,101.946 660.98,100.424 658.886,101.946 659.686,99.484 
				657.591,97.962 660.18,97.962 			"/>
		</g>
	</g>
</g>
<g id="Shaking_Hands">
	<g>
		<g>
			<path style="fill:#FFFFFF;stroke:#263238;stroke-linecap:round;stroke-linejoin:round;stroke-miterlimit:10;" d="M418.978,55.086
				l3.088,22.644l-14.409,3.431c0,0-6.519,4.46-12.351,7.205c-5.832,2.745-9.949,3.774-12.008,3.774s-9.606-3.088-9.606-3.088
				s5.146-27.79,10.979-30.877C390.503,55.086,405.941,50.626,418.978,55.086z"/>
			<g>
				<path style="fill:#FFFFFF;stroke:#263238;stroke-linecap:round;stroke-linejoin:round;stroke-miterlimit:10;" d="
					M345.723,54.299c0,0,25.757-1.639,29.531-1.639c3.774,0,12.161,9.288,12.161,9.288s15.358,25.576,14.066,27.104
					c-3.246,3.841-5.829,1.059-5.829,1.059l-0.595,2.697c0,0-2.496,3.106-15.19,1.391c-12.694-1.715-16.811-5.489-19.899-6.175
					c-3.088-0.686-19.725-5.33-19.725-5.33L345.723,54.299z"/>
				
					<line style="fill:none;stroke:#263238;stroke-linecap:round;stroke-linejoin:round;stroke-miterlimit:10;" x1="395.652" y1="90.11" x2="391.406" y2="81.927"/>
				
					<line style="fill:none;stroke:#263238;stroke-linecap:round;stroke-linejoin:round;stroke-miterlimit:10;" x1="391.406" y1="93.902" x2="386.149" y2="84.848"/>
			</g>
			<path style="fill:#FFFFFF;stroke:#263238;stroke-linecap:round;stroke-linejoin:round;stroke-miterlimit:10;" d="M411.774,57.145
				c0,0-25.731-7.891-30.878-2.402c-5.146,5.489-16.125,19.899-13.723,21.614s10.979-4.803,13.037-6.175s4.117-3.774,4.117-3.774
				s7.205,7.891,18.526,4.803"/>
			<path style="fill:#FFFFFF;stroke:#263238;stroke-linecap:round;stroke-linejoin:round;stroke-miterlimit:10;" d="M383.472,84.362
				c0,0-2.439,8.82-1.501,10.321c0.938,1.501,2.627,1.877,3.753,1.501c1.126-0.375,2.252-1.501,2.252-1.501s0.375-7.506-0.751-9.383
				C386.099,83.423,385.161,82.11,383.472,84.362z"/>
			<path style="fill:#FFFFFF;stroke:#263238;stroke-linecap:round;stroke-linejoin:round;stroke-miterlimit:10;" d="M376.904,85.488
				c0,0-2.439,8.82-1.501,10.321s2.627,1.877,3.753,1.501c1.126-0.375,2.252-1.501,2.252-1.501s0.375-7.506-0.751-9.383
				C379.531,84.549,378.593,83.236,376.904,85.488z"/>
			<path style="fill:#FFFFFF;stroke:#263238;stroke-linecap:round;stroke-linejoin:round;stroke-miterlimit:10;" d="M370.298,85.804
				c0,0-1.871,6.764-1.151,7.915c0.72,1.151,2.015,1.439,2.878,1.151c0.863-0.288,1.727-1.151,1.727-1.151s0.288-5.757-0.576-7.196
				S371.593,84.077,370.298,85.804z"/>
			<path style="fill:#FFFFFF;stroke:#263238;stroke-linecap:round;stroke-linejoin:round;stroke-miterlimit:10;" d="M362.512,86.09
				c0,0-1.474,4.476-0.907,5.238c0.567,0.762,1.587,0.952,2.267,0.762s1.36-0.762,1.36-0.762s0.227-3.81-0.453-4.762
				C364.099,85.614,363.533,84.947,362.512,86.09z"/>
		</g>
		
			<rect x="417.731" y="48.7" transform="matrix(0.9788 -0.205 0.205 0.9788 -4.9875 88.1236)" style="fill:#FFFFFF;stroke:#263238;stroke-linecap:round;stroke-linejoin:round;stroke-miterlimit:10;" width="9.963" height="38.854"/>
		
			<rect x="424.851" y="46.122" transform="matrix(0.9788 -0.205 0.205 0.9788 -4.7037 90.1894)" style="fill:#92E3A9;stroke:#263238;stroke-linecap:round;stroke-linejoin:round;stroke-miterlimit:10;" width="15.94" height="43.337"/>
		
			<rect x="337.904" y="48.7" transform="matrix(-0.9788 -0.205 0.205 -0.9788 664.5148 205.1141)" style="fill:#FFFFFF;stroke:#263238;stroke-linecap:round;stroke-linejoin:round;stroke-miterlimit:10;" width="9.963" height="38.854"/>
		
			<rect x="324.806" y="46.122" transform="matrix(-0.9788 -0.205 0.205 -0.9788 644.5815 202.3763)" style="fill:#263238;stroke:#263238;stroke-linecap:round;stroke-linejoin:round;stroke-miterlimit:10;" width="15.94" height="43.337"/>
	</g>
</g>
<g id="Gears">
	<g>
		<path style="fill:#263238;stroke:#263238;stroke-linecap:round;stroke-linejoin:round;stroke-miterlimit:10;" d="M125.383,129.066
			v-10.343l-10.329-1.149c-0.567-2.185-1.429-4.249-2.533-6.156l6.524-8.157l-7.314-7.314l-8.122,6.496
			c-1.899-1.117-3.959-1.99-6.138-2.572l-1.154-10.376H85.975l-1.149,10.329c-2.185,0.567-4.249,1.429-6.156,2.533l-8.157-6.524
			l-7.314,7.314l6.496,8.122c-1.117,1.899-1.99,3.959-2.572,6.138l-10.376,1.154v10.343l10.329,1.149
			c0.567,2.185,1.429,4.249,2.533,6.156l-6.524,8.157l7.314,7.314l8.122-6.496c1.899,1.117,3.959,1.99,6.138,2.572l1.154,10.376
			h10.343l1.149-10.329c2.185-0.567,4.249-1.429,6.156-2.533l8.157,6.524l7.314-7.314l-6.496-8.122
			c1.117-1.899,1.99-3.959,2.572-6.138L125.383,129.066z M91.065,136.157c-6.817,0-12.344-5.526-12.344-12.344
			c0-6.817,5.527-12.344,12.344-12.344s12.344,5.527,12.344,12.344C103.409,130.631,97.883,136.157,91.065,136.157z"/>
		<path style="fill:#92E3A9;stroke:#263238;stroke-linecap:round;stroke-linejoin:round;stroke-miterlimit:10;" d="M166.028,108.305
			l-1.146-6.848l-6.965,0.384c-0.617-1.384-1.417-2.655-2.359-3.795l3.415-6.123l-5.652-4.032l-4.657,5.201
			c-1.381-0.529-2.841-0.879-4.349-1.022l-1.914-6.742l-6.848,1.146l0.384,6.965c-1.383,0.617-2.654,1.417-3.795,2.359l-6.123-3.415
			l-4.032,5.652l5.201,4.657c-0.529,1.381-0.879,2.841-1.022,4.349l-6.742,1.914l1.146,6.848l6.965-0.384
			c0.617,1.383,1.417,2.655,2.359,3.795l-3.415,6.123l5.652,4.032l4.657-5.201c1.381,0.529,2.841,0.879,4.349,1.022l1.914,6.742
			l6.848-1.146l-0.384-6.965c1.384-0.617,2.655-1.417,3.795-2.359l6.123,3.415l4.031-5.652l-5.2-4.657
			c0.529-1.381,0.878-2.841,1.022-4.349L166.028,108.305z M144.094,116.802c-4.513,0.755-8.785-2.291-9.54-6.804
			c-0.755-4.513,2.291-8.785,6.804-9.54c4.513-0.756,8.785,2.291,9.54,6.804C151.653,111.776,148.607,116.047,144.094,116.802z"/>
		<path style="fill:#FFFFFF;stroke:#263238;stroke-linecap:round;stroke-linejoin:round;stroke-miterlimit:10;" d="M149.79,171.318
			l-1.146-6.848l-6.965,0.384c-0.617-1.384-1.417-2.655-2.359-3.795l3.415-6.123l-5.652-4.031l-4.657,5.201
			c-1.381-0.529-2.841-0.879-4.349-1.022l-1.914-6.742l-6.848,1.146l0.384,6.965c-1.383,0.617-2.655,1.417-3.795,2.359l-6.123-3.415
			l-4.032,5.652l5.201,4.657c-0.529,1.381-0.879,2.841-1.022,4.349l-6.742,1.914l1.146,6.848l6.965-0.384
			c0.617,1.383,1.417,2.654,2.359,3.795l-3.415,6.123l5.652,4.032l4.657-5.201c1.381,0.529,2.841,0.879,4.349,1.022l1.914,6.742
			l6.848-1.146l-0.384-6.965c1.384-0.617,2.655-1.417,3.795-2.359l6.123,3.415l4.031-5.652l-5.2-4.657
			c0.529-1.381,0.878-2.841,1.022-4.349L149.79,171.318z M127.856,179.816c-4.513,0.755-8.785-2.291-9.54-6.804
			c-0.755-4.513,2.291-8.785,6.804-9.54c4.513-0.756,8.785,2.291,9.54,6.804C135.416,174.789,132.369,179.06,127.856,179.816z"/>
	</g>
</g>
<g id="Chart">
	<g>
		<g>
			<g>
				
					<rect x="63.269" y="313.645" style="fill:#263238;stroke:#263238;stroke-width:0.5;stroke-linecap:round;stroke-linejoin:round;stroke-miterlimit:10;" width="10.302" height="30.733"/>
				
					<rect x="79.458" y="324.701" style="fill:#92E3A9;stroke:#263238;stroke-linecap:round;stroke-linejoin:round;stroke-miterlimit:10;" width="10.302" height="19.677"/>
				
					<rect x="95.647" y="306.915" style="fill:#263238;stroke:#263238;stroke-width:0.5;stroke-linecap:round;stroke-linejoin:round;stroke-miterlimit:10;" width="10.302" height="37.463"/>
				
					<rect x="111.836" y="314.665" style="fill:#92E3A9;stroke:#263238;stroke-linecap:round;stroke-linejoin:round;stroke-miterlimit:10;" width="10.302" height="29.713"/>
				
					<rect x="128.025" y="307.877" style="fill:#263238;stroke:#263238;stroke-width:0.5;stroke-linecap:round;stroke-linejoin:round;stroke-miterlimit:10;" width="10.302" height="36.501"/>
				
					<rect x="144.214" y="286.245" style="fill:#92E3A9;stroke:#263238;stroke-linecap:round;stroke-linejoin:round;stroke-miterlimit:10;" width="10.302" height="58.133"/>
			</g>
			<g>
				
					<line style="fill:none;stroke:#263238;stroke-width:0.5;stroke-linecap:round;stroke-linejoin:round;stroke-miterlimit:10;" x1="166.09" y1="285.633" x2="172.116" y2="285.633"/>
				
					<line style="fill:none;stroke:#263238;stroke-width:0.5;stroke-linecap:round;stroke-linejoin:round;stroke-miterlimit:10;" x1="166.09" y1="297.384" x2="172.116" y2="297.384"/>
				
					<line style="fill:none;stroke:#263238;stroke-width:0.5;stroke-linecap:round;stroke-linejoin:round;stroke-miterlimit:10;" x1="166.09" y1="309.136" x2="172.116" y2="309.136"/>
				
					<line style="fill:none;stroke:#263238;stroke-width:0.5;stroke-linecap:round;stroke-linejoin:round;stroke-miterlimit:10;" x1="166.09" y1="320.887" x2="172.116" y2="320.887"/>
				
					<line style="fill:none;stroke:#263238;stroke-width:0.5;stroke-linecap:round;stroke-linejoin:round;stroke-miterlimit:10;" x1="166.09" y1="332.638" x2="172.116" y2="332.638"/>
				
					<line style="fill:none;stroke:#263238;stroke-width:0.5;stroke-linecap:round;stroke-linejoin:round;stroke-miterlimit:10;" x1="166.09" y1="344.39" x2="172.116" y2="344.39"/>
			</g>
		</g>
		<g>
			<polyline style="fill:none;stroke:#263238;stroke-linecap:round;stroke-linejoin:round;stroke-miterlimit:10;" points="
				69.16,302.316 84.947,311.864 101.357,294.28 117.574,295.647 133.288,289.41 151.064,266.019 			"/>
			<path style="fill:#263238;" d="M71.151,302.316c0-1.099-0.891-1.991-1.991-1.991c-1.099,0-1.991,0.891-1.991,1.991
				c0,1.099,0.891,1.991,1.991,1.991C70.26,304.306,71.151,303.415,71.151,302.316z"/>
			<path style="fill:#263238;" d="M86.937,311.864c0-1.099-0.891-1.991-1.991-1.991c-1.099,0-1.991,0.891-1.991,1.991
				s0.891,1.991,1.991,1.991C86.046,313.855,86.937,312.964,86.937,311.864z"/>
			<path style="fill:#263238;" d="M103.347,294.28c0-1.099-0.891-1.991-1.991-1.991c-1.099,0-1.991,0.891-1.991,1.991
				c0,1.099,0.891,1.991,1.991,1.991C102.456,296.271,103.347,295.379,103.347,294.28z"/>
			<path style="fill:#263238;" d="M119.565,295.647c0-1.099-0.891-1.991-1.991-1.991c-1.099,0-1.991,0.891-1.991,1.991
				c0,1.1,0.891,1.991,1.991,1.991C118.674,297.637,119.565,296.746,119.565,295.647z"/>
			<path style="fill:#263238;" d="M135.278,289.096c0-1.099-0.891-1.991-1.991-1.991s-1.991,0.891-1.991,1.991
				s0.891,1.991,1.991,1.991S135.278,290.195,135.278,289.096z"/>
			<path style="fill:#263238;" d="M153.055,266.019c0-1.099-0.891-1.991-1.991-1.991c-1.1,0-1.991,0.891-1.991,1.991
				c0,1.099,0.891,1.991,1.991,1.991C152.164,268.009,153.055,267.118,153.055,266.019z"/>
		</g>
	</g>
</g>
<g id="Device">
	<g>
		<g>
			<polygon style="fill:#263238;stroke:#263238;stroke-linecap:round;stroke-linejoin:round;stroke-miterlimit:10;" points="
				427.319,438.3 338.279,438.3 351.635,389.15 413.963,389.15 			"/>
			
				<rect x="315.128" y="438.3" style="fill:#263238;stroke:#263238;stroke-linecap:round;stroke-linejoin:round;stroke-miterlimit:10;" width="135.341" height="4.986"/>
		</g>
		
			<rect x="190.322" y="149.942" style="fill:#263238;stroke:#263238;stroke-linecap:round;stroke-linejoin:round;stroke-miterlimit:10;" width="384.954" height="244.367"/>
		
			<rect x="202.659" y="159.257" style="fill:#B2B2B2;stroke:#263238;stroke-linecap:round;stroke-linejoin:round;stroke-miterlimit:10;" width="360.28" height="225.736"/>
	</g>
</g>
<g id="Characters">
	<g>
		<g>
			<path style="fill:#92E3A9;stroke:#263238;stroke-linecap:round;stroke-linejoin:round;stroke-miterlimit:10;" d="
				M311.514,216.219l-23.346,3.897l7.364,107.654l33.825,2.731c0,0,7.353-41.388,7.773-48.111c0.42-6.723-11.96-57.137-11.96-57.137
				L311.514,216.219z"/>
			<path style="fill:#FFFFFF;stroke:#263238;stroke-linecap:round;stroke-linejoin:round;stroke-miterlimit:10;" d="
				M346.004,384.993c0.531-2.025,1.299-5.503,1.121-8.165c-0.266-3.988-1.329-10.104-1.329-10.104l-9.572,0.798l3.703,17.471
				H346.004z"/>
			<path style="fill:#263238;stroke:#263238;stroke-linecap:round;stroke-linejoin:round;stroke-miterlimit:10;" d="
				M243.281,384.993h96.881c-0.267-2.133-0.954-7.506-1.771-12.895c-1.051-6.933-8.194-55.464-8.194-55.464l-71.221-6.723
				c0,0-16.597,32.144-18.908,41.598s2.941,31.724,2.941,31.724L243.281,384.993z"/>
			<path style="fill:#263238;stroke:#263238;stroke-linecap:round;stroke-linejoin:round;stroke-miterlimit:10;" d="M337.13,143.1
				c0,0,5.462-1.261,7.773,7.353c2.311,8.614-0.42,13.026,0.63,17.228c1.05,4.202,3.301,14.065,0.57,23.939
				c-2.731,9.874-12.545,17.028-12.966,20.6c-0.42,3.572-0.42,3.572-0.42,3.572s-1.471,1.471-6.093,1.05
				c-4.622-0.42-10.294-3.782-10.294-3.782l0.63-7.143c0,0,7.983,0,9.874-1.471c1.891-1.471,10.084-15.967,10.715-20.169
				s1.051-16.177,0.42-19.749c-0.63-3.571-5.042-10.925-6.723-11.555c-1.681-0.63-9.454-6.093-9.454-6.093
				S332.508,140.368,337.13,143.1z"/>
			<path style="fill:#FFFFFF;stroke:#263238;stroke-linecap:round;stroke-linejoin:round;stroke-miterlimit:10;" d="
				M342.383,233.439c0,0,6.723,3.151,6.933,8.404c0.21,5.252-3.572,28.572-3.572,30.253c0,1.681-1.891,36.556-1.891,36.556
				l4.07,60.733l-9.572,0.532c0,0-8.363-44.877-7.523-50.34c0.84-5.462,5.883-32.354,6.303-37.186
				c0.42-4.832-0.63-25.421,0.84-31.514C339.441,244.783,342.383,233.439,342.383,233.439z"/>
			<path style="fill:#FFFFFF;stroke:#263238;stroke-linecap:round;stroke-linejoin:round;stroke-miterlimit:10;" d="
				M328.014,147.678c0,0,10.376,4.245,12.057,11.598c1.681,7.353-0.84,16.597,0,22.48c0.84,5.882-7.563,20.589-10.504,24.16
				c-2.941,3.572-10.084,2.311-10.084,2.311L320.548,220c0,0,4.397,14.699,3.767,18.48c-0.63,3.782-7.578,9.332-16.387,8.824
				c-10.925-0.63-14.297-10.802-14.297-10.802l1.471-23.32c0,0,0.641-5.795-0.41-14.409c-1.051-8.614,1.26-21.639,2.101-23.74
				c0.84-2.101,8.614-10.715,13.446-14.076c4.832-3.362,14.286-13.026,14.286-13.026S327.302,146.794,328.014,147.678z"/>
			<g>
				<path style="fill:#FFFFFF;stroke:#263238;stroke-linecap:round;stroke-linejoin:round;stroke-miterlimit:10;" d="
					M294.682,217.594c0,0-32.344,3.029-36.966,6.18c-4.622,3.151,2.101,70.591,2.101,70.591s-26.051,57.145-25.211,57.565
					c0.84,0.42,13.236,10.715,26.472,13.026c13.236,2.311,32.564,3.992,32.564,3.992s6.933-56.725,7.773-61.136
					c0.84-4.412-1.891-48.111-1.471-54.203C300.365,247.515,294.682,217.594,294.682,217.594z"/>
				<path style="fill:none;stroke:#263238;stroke-linecap:round;stroke-linejoin:round;stroke-miterlimit:10;" d="M295.611,285.935
					c1.707,3.965,3.283,6.539,3.283,6.539"/>
				<path style="fill:none;stroke:#263238;stroke-linecap:round;stroke-linejoin:round;stroke-miterlimit:10;" d="M287.319,231.592
					c1.391,12.584,3.533,32.145,4.222,39.453c0.442,4.684,1.813,9.219,3.254,12.902"/>
				<path style="fill:none;stroke:#263238;stroke-linecap:round;stroke-linejoin:round;stroke-miterlimit:10;" d="M286.068,220.325
					c0,0,0.332,2.969,0.835,7.51"/>
			</g>
			<g>
				<path style="fill:#263238;stroke:#263238;stroke-linecap:round;stroke-linejoin:round;stroke-miterlimit:10;" d="
					M328.014,147.678c0,0-3.411,5.848-7.066,10.234c-3.655,4.386-17.543,13.401-17.543,13.401s0.244,4.873-0.731,6.335
					c-0.975,1.462-4.142,0.487-4.142,0.487s-2.193,11.939-1.462,20.711c0.731,8.772,5.117,11.208,3.898,13.401
					c-1.218,2.193-8.905,8.032-19.383,3.89c-10.477-4.142-15.838-8.284-18.518-14.863c-2.68-6.579,6.712-41.656,13.535-52.864
					c6.822-11.208,23.147-18.518,33.137-17.299c9.99,1.218,27.777,6.579,29.239,10.721
					C340.441,145.973,328.014,147.678,328.014,147.678z"/>
				<g>
					<path style="fill:none;stroke:#5C5C5C;stroke-linecap:round;stroke-linejoin:round;stroke-miterlimit:10;" d="M296.793,175.033
						c0,0-9.4,10.457-11.336,21.748c-1.936,11.291,3.871,16.13,6.129,17.097"/>
					<path style="fill:none;stroke:#5C5C5C;stroke-linecap:round;stroke-linejoin:round;stroke-miterlimit:10;" d="M269.047,195.21
						c-0.243,2.087-0.069,4.224,0.604,6.409"/>
					<path style="fill:none;stroke:#5C5C5C;stroke-linecap:round;stroke-linejoin:round;stroke-miterlimit:10;" d="M313.012,154.279
						c-1.945,1.759-4.417,3.675-7.554,5.727c-12.765,8.346-29.827,18.374-34.98,30.083"/>
					<path style="fill:none;stroke:#5C5C5C;stroke-linecap:round;stroke-linejoin:round;stroke-miterlimit:10;" d="M319.974,141.941
						c0,0,1.075,3.378-3.766,9.073"/>
				</g>
			</g>
			<g>
				<path style="fill:#FFFFFF;stroke:#263238;stroke-linecap:round;stroke-linejoin:round;stroke-miterlimit:10;" d="M320.548,220
					c0,0,17.843,10.707,21.834,13.438s-2.731,28.362-2.101,33.405c0.63,5.042,2.521,17.017,0.63,22.059
					c-1.891,5.042-2.941,8.194-2.941,8.194l-3.572,23.11c0,0,5.883,44.329,5.672,44.96c-0.21,0.63-20.799,3.361-20.799,3.361
					s3.782-44.959,5.883-54.414c2.101-9.454,9.034-23.32,7.353-38.867C330.828,259.7,320.548,220,320.548,220z"/>
				<path style="fill:none;stroke:#263238;stroke-linecap:round;stroke-linejoin:round;stroke-miterlimit:10;" d="M336.738,275.273
					c-0.654,9.084-3.601,14.623-3.601,14.623"/>
				<path style="fill:none;stroke:#263238;stroke-linecap:round;stroke-linejoin:round;stroke-miterlimit:10;" d="M331.014,228.595
					c0,0,5.56,30.062,5.838,41.928"/>
				<path style="fill:none;stroke:#263238;stroke-linecap:round;stroke-linejoin:round;stroke-miterlimit:10;" d="M339.021,261.801
					c0,0-1.285-10.494-2.965-15.957"/>
			</g>
			<path style="fill:#263238;" d="M322.954,176.689c0,1.661-0.808,3.008-1.805,3.008c-0.997,0-1.805-1.347-1.805-3.008
				s0.808-3.008,1.805-3.008C322.146,173.681,322.954,175.028,322.954,176.689z"/>
			<path style="fill:#263238;" d="M338.294,176.689c0,1.661-0.808,3.008-1.805,3.008c-0.997,0-1.805-1.347-1.805-3.008
				s0.808-3.008,1.805-3.008C337.486,173.681,338.294,175.028,338.294,176.689z"/>
			<path style="fill:none;stroke:#263238;stroke-linecap:round;stroke-linejoin:round;stroke-miterlimit:10;" d="M315.736,170.974
				c0,0,4.512-3.309,10.226-1.504"/>
			<path style="fill:none;stroke:#263238;stroke-linecap:round;stroke-linejoin:round;stroke-miterlimit:10;" d="M338.595,170.974
				c-2.105-2.105-4.211-0.602-4.211-0.602s-2.707,3.609-2.105,6.016"/>
			
				<line style="fill:none;stroke:#263238;stroke-linecap:round;stroke-linejoin:round;stroke-miterlimit:10;" x1="332.579" y1="190.825" x2="326.865" y2="191.728"/>
			<path style="fill:none;stroke:#263238;stroke-linecap:round;stroke-linejoin:round;stroke-miterlimit:10;" d="M328.97,195.638
				c0,0-8.422,2.406-13.535-3.91"/>
			<polygon style="fill:#263238;stroke:#263238;stroke-linecap:round;stroke-linejoin:round;stroke-miterlimit:10;" points="
				319.483,208.228 311.224,205.563 318.443,214.286 			"/>
		</g>
		<g>
			<path style="fill:#263238;stroke:#263238;stroke-linecap:round;stroke-linejoin:round;stroke-miterlimit:10;" d="M468.858,219.76
				c0,0-3.073,4.491-4.254,9.926s-2.363,11.581-2.363,11.581s5.909-4.727,6.618-4.963c0.709-0.236-0.473-6.145-0.473-6.145
				l4.018-3.309L468.858,219.76z"/>
			<g>
				<path style="fill:#FFFFFF;stroke:#263238;stroke-linecap:round;stroke-linejoin:round;stroke-miterlimit:10;" d="
					M471.221,140.112c0,0-5.909,2.127-8.272,6.381c-2.363,4.254-8.508,14.181-7.563,17.489c0.945,3.309,1.418,4.727,1.418,4.727
					s-8.508,14.89-7.563,16.308c0.945,1.418,3.781,4.018,3.781,4.018s3.781,17.726,5.436,18.907
					c1.654,1.182,6.381,1.891,6.381,1.891l6.854,8.508l37.579-15.362l0.473-8.272c0,0,12.763-16.544,14.417-25.998
					c1.654-9.454-10.399-25.761-23.398-32.143C487.766,130.186,474.058,133.731,471.221,140.112z"/>
				<path style="fill:none;stroke:#263238;stroke-linecap:round;stroke-linejoin:round;stroke-miterlimit:10;" d="M459.034,173.799
					c0,0,2.669,2.288,5.72,2.288"/>
				<g>
					<path style="fill:#263238;stroke:#263238;stroke-linecap:round;stroke-linejoin:round;stroke-miterlimit:10;" d="
						M500.764,136.567c-12.999-6.381-26.707-2.836-29.543,3.545c0,0,1.182,0.945,4.963,0.709c3.781-0.236,12.763-4.018,15.126-0.709
						c2.363,3.309-7.09,6.145-10.635,11.108c-3.545,4.963-2.6,5.2,0.236,8.981c2.836,3.781,3.309,5.436,2.836,7.09
						c-0.473,1.654-1.182,3.072,1.891,3.545c3.072,0.473,4.018-7.09,8.745-4.727c4.727,2.363,5.436,9.454,3.781,14.181
						c-1.654,4.727-5.199,6.145-5.199,6.145s0.709,3.072,5.909,5.672c5.2,2.6,10.872,2.6,10.872,2.6s12.763-16.544,14.417-25.998
						C525.817,159.256,513.763,142.949,500.764,136.567z"/>
					<g>
						<path style="fill:none;stroke:#5C5C5C;stroke-linecap:round;stroke-linejoin:round;stroke-miterlimit:10;" d="
							M509.754,178.912c0.789,2.226,1.123,4.357,0.872,6.197"/>
						<path style="fill:none;stroke:#5C5C5C;stroke-linecap:round;stroke-linejoin:round;stroke-miterlimit:10;" d="
							M482.873,154.346c0,0,1.672,3.344,11.035,7.356c5.267,2.257,10.216,7.053,13.359,12.127"/>
						<path style="fill:none;stroke:#5C5C5C;stroke-linecap:round;stroke-linejoin:round;stroke-miterlimit:10;" d="M508.62,164.377
							c0,0,8.36,5.016,7.022,14.713"/>
					</g>
				</g>
				<path style="fill:#263238;" d="M462.949,169.301c0,1.632-0.688,2.954-1.536,2.954c-0.848,0-1.536-1.323-1.536-2.954
					c0-1.632,0.688-2.954,1.536-2.954C462.262,166.346,462.949,167.669,462.949,169.301z"/>
				<path style="fill:none;stroke:#263238;stroke-linecap:round;stroke-linejoin:round;stroke-miterlimit:10;" d="M457.986,162.801
					c0,0,4.254-4.963,8.036,0.236"/>
				<path style="fill:none;stroke:#263238;stroke-linecap:round;stroke-linejoin:round;stroke-miterlimit:10;" d="M456.332,189.745
					c0,0,5.672-0.473,9.217-4.018"/>
				<path style="fill:#FFFFFF;stroke:#263238;stroke-linecap:round;stroke-linejoin:round;stroke-miterlimit:10;" d="
					M492.965,186.436l-2.6,0.709c0,0-1.182,4.49-5.672,9.217"/>
			</g>
			<path style="fill:#FFFFFF;stroke:#263238;stroke-linecap:round;stroke-linejoin:round;stroke-miterlimit:10;" d="
				M509.982,199.435c0,0-36.87,15.362-38.524,17.253c-1.654,1.891-2.6,3.072-2.6,3.072l2.836,15.126l43.014-28.361L509.982,199.435z
				"/>
			<g>
				<path style="fill:#FFFFFF;stroke:#263238;stroke-linecap:round;stroke-linejoin:round;stroke-miterlimit:10;" d="
					M402.766,303.579l2.052,15.049l-9.576,2.28c0,0-4.332,2.964-8.208,4.788c-3.876,1.824-6.612,2.508-7.98,2.508
					c-1.368,0-6.384-2.052-6.384-2.052s3.42-18.469,7.296-20.521C383.842,303.579,394.102,300.615,402.766,303.579z"/>
				<g>
					<path style="fill:#FFFFFF;stroke:#263238;stroke-linecap:round;stroke-linejoin:round;stroke-miterlimit:10;" d="
						M354.54,309.888c0,0,18.025-2.664,20.054-2.947c2.029-0.282,7.234,4.085,7.234,4.085s10.172,12.605,9.592,13.523
						c-1.458,2.308-3.055,1.005-3.055,1.005l-0.118,1.495c0,0-1.11,1.857-8.065,1.884c-6.955,0.027-9.451-1.695-11.163-1.833
						c-1.712-0.138-15.187-3.585-15.187-3.585L354.54,309.888z"/>
					<polygon style="fill:#FFFFFF;stroke:#263238;stroke-linecap:round;stroke-linejoin:round;stroke-miterlimit:10;" points="
						348.499,308.552 355.112,309.735 354.384,324.638 348.368,324.246 					"/>
					<path style="fill:#FFFFFF;stroke:#263238;stroke-linecap:round;stroke-linejoin:round;stroke-miterlimit:10;" d="
						M275.214,222.833c0,0-18.804-1.312-22.74,1.749c-3.936,3.061-1.968,43.512,1.312,58.162c3.28,14.65,7.872,38.046,10.058,39.139
						c2.187,1.093,85.58,4.465,85.58,4.465l0.875-18.148l-64.37-13.867l-4.592-57.288"/>
					
						<line style="fill:none;stroke:#263238;stroke-linecap:round;stroke-linejoin:round;stroke-miterlimit:10;" x1="388.365" y1="325.554" x2="385.47" y2="321.471"/>
					
						<line style="fill:none;stroke:#263238;stroke-linecap:round;stroke-linejoin:round;stroke-miterlimit:10;" x1="386.365" y1="327.911" x2="382.861" y2="323.435"/>
				</g>
				<path style="fill:#FFFFFF;stroke:#263238;stroke-linecap:round;stroke-linejoin:round;stroke-miterlimit:10;" d="
					M397.978,304.947c0,0-17.101-5.244-20.521-1.596c-3.42,3.648-10.716,13.225-9.12,14.365c1.596,1.14,7.296-3.192,8.664-4.104
					c1.368-0.912,2.736-2.508,2.736-2.508s4.788,5.244,12.313,3.192"/>
				<path style="fill:#FFFFFF;stroke:#263238;stroke-linecap:round;stroke-linejoin:round;stroke-miterlimit:10;" d="
					M379.169,323.035c0,0-1.621,5.862-0.998,6.859c0.624,0.998,1.746,1.247,2.494,0.998c0.748-0.249,1.497-0.998,1.497-0.998
					s0.249-4.989-0.499-6.236C380.915,322.411,380.292,321.538,379.169,323.035z"/>
				<path style="fill:#FFFFFF;stroke:#263238;stroke-linecap:round;stroke-linejoin:round;stroke-miterlimit:10;" d="
					M374.804,323.783c0,0-1.621,5.862-0.998,6.859c0.624,0.998,1.746,1.247,2.494,0.998c0.748-0.25,1.496-0.998,1.496-0.998
					s0.249-4.989-0.499-6.236C376.55,323.16,375.927,322.287,374.804,323.783z"/>
				<path style="fill:#FFFFFF;stroke:#263238;stroke-linecap:round;stroke-linejoin:round;stroke-miterlimit:10;" d="
					M370.414,323.993c0,0-1.243,4.495-0.765,5.26c0.478,0.765,1.339,0.957,1.913,0.765c0.574-0.191,1.148-0.765,1.148-0.765
					s0.191-3.826-0.383-4.782C371.753,323.515,371.275,322.845,370.414,323.993z"/>
				<path style="fill:#FFFFFF;stroke:#263238;stroke-linecap:round;stroke-linejoin:round;stroke-miterlimit:10;" d="
					M365.24,324.184c0,0-0.979,2.975-0.603,3.481c0.377,0.506,1.055,0.633,1.507,0.506c0.452-0.127,0.904-0.506,0.904-0.506
					s0.151-2.532-0.301-3.165C366.295,323.867,365.918,323.424,365.24,324.184z"/>
			</g>
			<polygon style="fill:#FFFFFF;stroke:#263238;stroke-linecap:round;stroke-linejoin:round;stroke-miterlimit:10;" points="
				401.398,301.983 403.678,323.187 411.203,321.819 408.467,300.615 			"/>
			<polygon style="fill:#92E3A9;stroke:#263238;stroke-linecap:round;stroke-linejoin:round;stroke-miterlimit:10;" points="
				406.187,299.246 410.747,326.152 441.984,322.047 445.404,291.494 			"/>
			<polygon style="fill:#263238;stroke:#263238;stroke-linecap:round;stroke-linejoin:round;stroke-miterlimit:10;" points="
				430.712,323.528 441.984,322.047 445.404,291.494 437.17,293.122 			"/>
			<path style="fill:#92E3A9;stroke:#263238;stroke-linecap:round;stroke-linejoin:round;stroke-miterlimit:10;" d="
				M525.019,384.993l-2.547-49.038c0,0,10.716-46.97,8.436-72.963c-2.28-25.993-19.837-53.126-19.837-53.126
				s-41.27,25.765-45.602,30.325c-4.332,4.56-12.085,12.313-14.365,19.609c-2.28,7.296-11.173,52.214-11.173,52.214
				s-9.348,31.465-12.313,50.39c-1.803,11.515-1.58,18.709-1.129,22.589H525.019z"/>
			<path style="fill:none;stroke:#263238;stroke-linecap:round;stroke-linejoin:round;stroke-miterlimit:10;" d="M509.5,218.455
				c7.2-3.173,8.281-3.894,8.281-3.894"/>
			<path style="fill:none;stroke:#263238;stroke-linecap:round;stroke-linejoin:round;stroke-miterlimit:10;" d="M453.376,270.208
				c3.566-6.44,7.975-14.085,10.046-16.415c3.782-4.254,32.143-29.307,42.542-33.797"/>
			<path style="fill:none;stroke:#263238;stroke-linecap:round;stroke-linejoin:round;stroke-miterlimit:10;" d="M448.06,280.028
				c0,0,1.687-3.201,3.983-7.397"/>
			<path style="fill:none;stroke:#263238;stroke-linecap:round;stroke-linejoin:round;stroke-miterlimit:10;" d="M474.282,282.464
				c0.019,14.653-2.054,29.165-1.018,43.676c-5.183,18.658-14.512,35.243-21.223,52.749"/>
			<path style="fill:none;stroke:#263238;stroke-linecap:round;stroke-linejoin:round;stroke-miterlimit:10;" d="M478.075,252.376
				c0,0-4.254,6.381-3.781,18.199c0.058,1.446,0.077,3.422,0.065,5.778"/>
			<path style="fill:none;stroke:#263238;stroke-linecap:round;stroke-linejoin:round;stroke-miterlimit:10;" d="M519.199,258.993
				c0,0-9.454,72.794-10.399,78.702c-0.677,4.231-15.171,27.371-23.346,40.167"/>
			<polyline style="fill:none;stroke:#263238;stroke-linecap:round;stroke-linejoin:round;stroke-miterlimit:10;" points="
				456.743,364.34 437.409,360.978 438.67,355.093 457.584,358.456 			"/>
		</g>
	</g>
</g>
<g id="Text">
	<g>
		<g>
			<path style="fill:#263238;" d="M609.904,374.512v-12.483h3.668c0.75,0,1.358,0.139,1.826,0.416
				c0.468,0.277,0.812,0.681,1.032,1.21c0.221,0.529,0.332,1.169,0.332,1.919c0,0.812-0.139,1.467-0.417,1.965
				c-0.277,0.498-0.665,0.86-1.163,1.086c-0.499,0.227-1.087,0.34-1.765,0.34h-1.233v5.548H609.904z M612.185,367.36h0.863
				c0.411,0,0.732-0.059,0.964-0.177c0.231-0.118,0.39-0.309,0.478-0.57c0.087-0.262,0.131-0.614,0.131-1.056
				c0-0.452-0.033-0.819-0.101-1.102c-0.066-0.282-0.21-0.49-0.432-0.624c-0.221-0.133-0.567-0.2-1.04-0.2h-0.863V367.36z"/>
			<path style="fill:#263238;" d="M617.965,374.512v-12.483h2.989c0.843,0,1.555,0.1,2.135,0.301c0.58,0.2,1.022,0.542,1.325,1.024
				c0.304,0.483,0.455,1.141,0.455,1.973c0,0.504-0.046,0.956-0.139,1.356c-0.093,0.4-0.249,0.742-0.47,1.024
				c-0.222,0.283-0.527,0.501-0.917,0.655l1.741,6.149h-2.281l-1.51-5.718h-1.049v5.718H617.965z M620.245,367.36h0.709
				c0.442,0,0.794-0.064,1.056-0.192c0.263-0.128,0.45-0.334,0.563-0.616c0.113-0.283,0.17-0.645,0.17-1.087
				c0-0.627-0.115-1.097-0.347-1.41c-0.231-0.313-0.671-0.47-1.317-0.47h-0.833V367.36z"/>
			<path style="fill:#263238;" d="M629.94,374.682c-0.884,0-1.588-0.165-2.111-0.493c-0.524-0.329-0.899-0.802-1.125-1.418
				c-0.227-0.617-0.34-1.347-0.34-2.189v-4.67c0-0.843,0.113-1.564,0.34-2.166c0.226-0.601,0.601-1.061,1.125-1.379
				c0.523-0.318,1.228-0.478,2.111-0.478c0.903,0,1.615,0.159,2.134,0.478c0.52,0.318,0.895,0.778,1.126,1.379
				c0.231,0.602,0.347,1.323,0.347,2.166v4.685c0,0.833-0.116,1.555-0.347,2.166c-0.231,0.611-0.606,1.084-1.126,1.418
				C631.555,374.514,630.843,374.682,629.94,374.682z M629.94,373.001c0.38,0,0.66-0.082,0.84-0.246
				c0.18-0.164,0.301-0.391,0.362-0.679c0.061-0.287,0.092-0.601,0.092-0.94v-5.749c0-0.349-0.03-0.662-0.092-0.939
				c-0.062-0.278-0.183-0.496-0.362-0.655c-0.18-0.159-0.46-0.239-0.84-0.239c-0.36,0-0.632,0.08-0.817,0.239
				c-0.185,0.159-0.308,0.377-0.37,0.655c-0.062,0.277-0.092,0.591-0.092,0.939v5.749c0,0.339,0.028,0.652,0.085,0.94
				c0.056,0.288,0.177,0.515,0.361,0.679C629.292,372.919,629.569,373.001,629.94,373.001z"/>
			<path style="fill:#263238;" d="M635.194,374.512l0.216-12.483h2.358l1.772,8.646l1.849-8.646h2.281l0.231,12.483h-1.695
				l-0.185-8.677l-1.771,8.677h-1.372l-1.804-8.708l-0.169,8.708H635.194z"/>
			<path style="fill:#263238;" d="M649.143,374.682c-0.884,0-1.588-0.165-2.111-0.493c-0.525-0.329-0.9-0.802-1.125-1.418
				c-0.227-0.617-0.34-1.347-0.34-2.189v-4.67c0-0.843,0.113-1.564,0.34-2.166c0.225-0.601,0.6-1.061,1.125-1.379
				c0.523-0.318,1.227-0.478,2.111-0.478c0.903,0,1.615,0.159,2.134,0.478c0.52,0.318,0.895,0.778,1.126,1.379
				c0.231,0.602,0.347,1.323,0.347,2.166v4.685c0,0.833-0.116,1.555-0.347,2.166c-0.231,0.611-0.606,1.084-1.126,1.418
				C650.758,374.514,650.046,374.682,649.143,374.682z M649.143,373.001c0.38,0,0.66-0.082,0.84-0.246
				c0.18-0.164,0.301-0.391,0.362-0.679c0.062-0.287,0.092-0.601,0.092-0.94v-5.749c0-0.349-0.03-0.662-0.092-0.939
				c-0.061-0.278-0.183-0.496-0.362-0.655c-0.18-0.159-0.46-0.239-0.84-0.239c-0.36,0-0.632,0.08-0.817,0.239
				c-0.185,0.159-0.308,0.377-0.37,0.655c-0.061,0.277-0.092,0.591-0.092,0.939v5.749c0,0.339,0.028,0.652,0.085,0.94
				c0.056,0.288,0.177,0.515,0.361,0.679C648.495,372.919,648.772,373.001,649.143,373.001z"/>
			<path style="fill:#263238;" d="M655.615,374.512v-10.804h-1.988v-1.68h6.227v1.68h-1.957v10.804H655.615z"/>
			<path style="fill:#263238;" d="M661.056,374.512v-12.483h2.25v12.483H661.056z"/>
			<path style="fill:#263238;" d="M668.623,374.682c-0.884,0-1.588-0.165-2.111-0.493c-0.524-0.329-0.899-0.802-1.125-1.418
				c-0.227-0.617-0.34-1.347-0.34-2.189v-4.67c0-0.843,0.113-1.564,0.34-2.166c0.226-0.601,0.601-1.061,1.125-1.379
				c0.523-0.318,1.228-0.478,2.111-0.478c0.903,0,1.615,0.159,2.134,0.478c0.52,0.318,0.895,0.778,1.126,1.379
				c0.23,0.602,0.347,1.323,0.347,2.166v4.685c0,0.833-0.116,1.555-0.347,2.166c-0.231,0.611-0.606,1.084-1.126,1.418
				C670.238,374.514,669.526,374.682,668.623,374.682z M668.623,373.001c0.38,0,0.66-0.082,0.84-0.246
				c0.18-0.164,0.301-0.391,0.362-0.679c0.061-0.287,0.092-0.601,0.092-0.94v-5.749c0-0.349-0.03-0.662-0.092-0.939
				c-0.062-0.278-0.183-0.496-0.362-0.655c-0.18-0.159-0.46-0.239-0.84-0.239c-0.36,0-0.632,0.08-0.817,0.239
				c-0.185,0.159-0.308,0.377-0.37,0.655c-0.061,0.277-0.092,0.591-0.092,0.939v5.749c0,0.339,0.028,0.652,0.085,0.94
				c0.056,0.288,0.177,0.515,0.361,0.679C667.976,372.919,668.253,373.001,668.623,373.001z"/>
			<path style="fill:#263238;" d="M673.909,374.512v-12.483h1.587l3.036,7.12v-7.12h1.881v12.483h-1.511l-3.052-7.459v7.459H673.909
				z"/>
		</g>
		<g>
			<path style="fill:#263238;" d="M67.024,374.512v-12.483h2.25v12.483H67.024z"/>
			<path style="fill:#263238;" d="M71.17,374.512l0.216-12.483h2.358l1.772,8.646l1.849-8.646h2.281l0.231,12.483h-1.695
				l-0.186-8.677l-1.771,8.677h-1.372l-1.804-8.708l-0.169,8.708H71.17z"/>
			<path style="fill:#263238;" d="M81.635,374.512v-12.483h3.668c0.75,0,1.358,0.139,1.826,0.416
				c0.468,0.277,0.812,0.681,1.032,1.21c0.221,0.529,0.332,1.169,0.332,1.919c0,0.812-0.139,1.467-0.417,1.965
				c-0.277,0.498-0.665,0.86-1.163,1.086c-0.499,0.227-1.087,0.34-1.765,0.34h-1.233v5.548H81.635z M83.915,367.36h0.863
				c0.411,0,0.732-0.059,0.964-0.177c0.23-0.118,0.39-0.309,0.478-0.57c0.087-0.262,0.131-0.614,0.131-1.056
				c0-0.452-0.033-0.819-0.101-1.102c-0.066-0.282-0.21-0.49-0.432-0.624c-0.221-0.133-0.567-0.2-1.04-0.2h-0.863V367.36z"/>
			<path style="fill:#263238;" d="M89.695,374.512v-12.483h2.989c0.843,0,1.555,0.1,2.135,0.301c0.58,0.2,1.022,0.542,1.325,1.024
				c0.304,0.483,0.455,1.141,0.455,1.973c0,0.504-0.046,0.956-0.139,1.356c-0.093,0.4-0.249,0.742-0.47,1.024
				c-0.222,0.283-0.527,0.501-0.917,0.655l1.741,6.149h-2.281l-1.51-5.718h-1.049v5.718H89.695z M91.976,367.36h0.709
				c0.442,0,0.794-0.064,1.056-0.192c0.263-0.128,0.45-0.334,0.563-0.616c0.113-0.283,0.17-0.645,0.17-1.087
				c0-0.627-0.115-1.097-0.347-1.41c-0.231-0.313-0.671-0.47-1.317-0.47h-0.833V367.36z"/>
			<path style="fill:#263238;" d="M101.67,374.682c-0.884,0-1.588-0.165-2.111-0.493c-0.524-0.329-0.899-0.802-1.125-1.418
				c-0.227-0.617-0.34-1.347-0.34-2.189v-4.67c0-0.843,0.113-1.564,0.34-2.166c0.226-0.601,0.601-1.061,1.125-1.379
				c0.523-0.318,1.228-0.478,2.111-0.478c0.903,0,1.615,0.159,2.134,0.478c0.519,0.318,0.894,0.778,1.126,1.379
				c0.23,0.602,0.347,1.323,0.347,2.166v4.685c0,0.833-0.116,1.555-0.347,2.166c-0.232,0.611-0.607,1.084-1.126,1.418
				C103.285,374.514,102.573,374.682,101.67,374.682z M101.67,373.001c0.38,0,0.66-0.082,0.84-0.246
				c0.18-0.164,0.301-0.391,0.362-0.679c0.062-0.287,0.092-0.601,0.092-0.94v-5.749c0-0.349-0.03-0.662-0.092-0.939
				c-0.062-0.278-0.183-0.496-0.362-0.655c-0.18-0.159-0.46-0.239-0.84-0.239c-0.36,0-0.632,0.08-0.817,0.239
				c-0.185,0.159-0.308,0.377-0.37,0.655c-0.062,0.277-0.092,0.591-0.092,0.939v5.749c0,0.339,0.028,0.652,0.085,0.94
				c0.056,0.288,0.177,0.515,0.361,0.679C101.022,372.919,101.3,373.001,101.67,373.001z"/>
			<path style="fill:#263238;" d="M108.806,374.512l-2.513-12.483h2.02l1.648,8.831l1.541-8.831h2.065l-2.512,12.483H108.806z"/>
			<path style="fill:#263238;" d="M114.847,374.512v-12.483h5.239v1.603h-2.959v3.591h2.327v1.588h-2.327v4.13h2.99v1.572H114.847z"
				/>
			<path style="fill:#263238;" d="M121.412,374.512l0.216-12.483h2.358l1.772,8.646l1.849-8.646h2.281l0.231,12.483h-1.695
				l-0.186-8.677l-1.771,8.677h-1.372l-1.804-8.708l-0.169,8.708H121.412z"/>
			<path style="fill:#263238;" d="M131.877,374.512v-12.483h5.239v1.603h-2.959v3.591h2.327v1.588h-2.327v4.13h2.99v1.572H131.877z"
				/>
			<path style="fill:#263238;" d="M138.474,374.512v-12.483h1.587l3.036,7.12v-7.12h1.881v12.483h-1.511l-3.052-7.459v7.459H138.474
				z"/>
			<path style="fill:#263238;" d="M148.121,374.512v-10.804h-1.988v-1.68h6.227v1.68h-1.957v10.804H148.121z"/>
		</g>
		<g>
			<path style="fill:#263238;" d="M627.158,223.034c-0.257-0.123-0.531-0.309-0.824-0.555c-0.293-0.247-0.58-0.527-0.863-0.84
				c-0.282-0.314-0.526-0.625-0.731-0.933c-0.041,0.01-0.085,0.016-0.131,0.016c-0.047,0-0.096,0-0.146,0
				c-0.884,0-1.588-0.165-2.111-0.493c-0.524-0.329-0.899-0.802-1.125-1.418c-0.227-0.617-0.34-1.347-0.34-2.188v-4.67
				c0-0.843,0.113-1.564,0.34-2.166c0.226-0.601,0.601-1.061,1.125-1.379c0.523-0.318,1.227-0.477,2.111-0.477
				c0.903,0,1.618,0.159,2.142,0.477c0.524,0.318,0.899,0.778,1.125,1.379c0.227,0.602,0.34,1.323,0.34,2.166v4.685
				c0,0.597-0.057,1.136-0.17,1.619c-0.113,0.482-0.298,0.901-0.555,1.256c-0.257,0.354-0.596,0.629-1.018,0.824
				c0.134,0.145,0.272,0.293,0.416,0.447c0.144,0.154,0.288,0.298,0.432,0.432c0.144,0.133,0.283,0.241,0.416,0.323L627.158,223.034
				z M624.462,219.042c0.38,0,0.662-0.082,0.848-0.246c0.185-0.164,0.308-0.391,0.369-0.679c0.063-0.287,0.093-0.601,0.093-0.939
				v-5.749c0-0.349-0.03-0.662-0.093-0.939c-0.062-0.278-0.185-0.496-0.369-0.655c-0.186-0.159-0.468-0.239-0.848-0.239
				c-0.37,0-0.647,0.08-0.833,0.239c-0.185,0.159-0.306,0.377-0.361,0.655c-0.057,0.277-0.085,0.591-0.085,0.939v5.749
				c0,0.339,0.028,0.652,0.085,0.939c0.056,0.288,0.177,0.515,0.361,0.679C623.815,218.96,624.092,219.042,624.462,219.042z"/>
			<path style="fill:#263238;" d="M633.185,220.722c-0.925,0-1.644-0.17-2.157-0.509c-0.514-0.339-0.868-0.822-1.063-1.449
				c-0.195-0.626-0.293-1.376-0.293-2.25v-8.445h2.22v8.707c0,0.391,0.025,0.758,0.076,1.103c0.052,0.344,0.173,0.622,0.362,0.832
				c0.19,0.211,0.476,0.316,0.855,0.316c0.401,0,0.691-0.105,0.871-0.316c0.18-0.21,0.298-0.488,0.355-0.832
				c0.057-0.345,0.085-0.712,0.085-1.103v-8.707h2.203v8.445c0,0.874-0.098,1.624-0.292,2.25c-0.195,0.627-0.548,1.11-1.056,1.449
				C634.842,220.552,634.12,220.722,633.185,220.722z"/>
			<path style="fill:#263238;" d="M637.793,220.552l2.496-12.483h2.436l2.496,12.483h-2.111l-0.493-2.882h-2.173l-0.509,2.882
				H637.793z M640.675,216.221h1.695l-0.848-5.239L640.675,216.221z"/>
			<path style="fill:#263238;" d="M646.408,220.552v-12.483h2.28v10.911h3.022v1.572H646.408z"/>
			<path style="fill:#263238;" d="M652.896,220.552v-12.483h2.25v12.483H652.896z"/>
			<path style="fill:#263238;" d="M658.321,220.552v-10.804h-1.988v-1.68h6.227v1.68h-1.957v10.804H658.321z"/>
			<path style="fill:#263238;" d="M665.441,220.552v-4.763l-2.527-7.721h2.127l1.541,4.947l1.448-4.947h2.081l-2.497,7.721v4.763
				H665.441z"/>
		</g>
		<g>
			<path style="fill:#263238;" d="M85.172,220.722c-0.75,0-1.377-0.146-1.88-0.439c-0.504-0.293-0.884-0.722-1.141-1.287
				c-0.257-0.564-0.4-1.259-0.432-2.08l1.957-0.386c0.021,0.483,0.08,0.909,0.178,1.279c0.098,0.37,0.246,0.655,0.446,0.855
				c0.201,0.2,0.465,0.3,0.794,0.3c0.37,0,0.632-0.109,0.786-0.331c0.154-0.221,0.231-0.501,0.231-0.84
				c0-0.544-0.123-0.991-0.37-1.341c-0.246-0.35-0.575-0.698-0.986-1.048l-1.572-1.387c-0.441-0.381-0.793-0.805-1.056-1.271
				c-0.262-0.468-0.393-1.046-0.393-1.734c0-0.986,0.287-1.746,0.863-2.281c0.575-0.534,1.361-0.801,2.357-0.801
				c0.586,0,1.074,0.09,1.464,0.27c0.391,0.18,0.702,0.429,0.933,0.747c0.231,0.319,0.403,0.681,0.517,1.087
				c0.113,0.406,0.185,0.835,0.216,1.287l-1.942,0.339c-0.021-0.391-0.063-0.74-0.131-1.048c-0.066-0.309-0.185-0.55-0.354-0.725
				c-0.169-0.175-0.419-0.262-0.747-0.262c-0.339,0-0.599,0.11-0.778,0.331c-0.18,0.221-0.27,0.496-0.27,0.824
				c0,0.422,0.087,0.768,0.262,1.041c0.175,0.272,0.426,0.552,0.755,0.84l1.557,1.371c0.514,0.432,0.953,0.939,1.318,1.519
				c0.364,0.58,0.547,1.281,0.547,2.104c0,0.596-0.131,1.125-0.394,1.588c-0.262,0.462-0.626,0.824-1.094,1.086
				C86.346,220.59,85.799,220.722,85.172,220.722z"/>
			<path style="fill:#263238;" d="M93.063,220.722c-0.925,0-1.644-0.17-2.157-0.509c-0.514-0.339-0.868-0.822-1.063-1.449
				c-0.195-0.626-0.293-1.376-0.293-2.25v-8.445h2.22v8.707c0,0.391,0.025,0.758,0.076,1.103c0.052,0.344,0.173,0.622,0.362,0.832
				c0.19,0.211,0.476,0.316,0.855,0.316c0.401,0,0.691-0.105,0.871-0.316c0.18-0.21,0.298-0.488,0.354-0.832
				c0.057-0.345,0.085-0.712,0.085-1.103v-8.707h2.203v8.445c0,0.874-0.098,1.624-0.292,2.25c-0.195,0.627-0.548,1.11-1.056,1.449
				C94.72,220.552,93.998,220.722,93.063,220.722z"/>
			<path style="fill:#263238;" d="M98.364,220.552v-12.483h3.668c0.75,0,1.358,0.139,1.826,0.416
				c0.468,0.277,0.812,0.681,1.032,1.21c0.221,0.529,0.332,1.169,0.332,1.919c0,0.811-0.139,1.467-0.417,1.965
				c-0.277,0.498-0.665,0.86-1.163,1.086c-0.499,0.227-1.087,0.34-1.765,0.34h-1.233v5.548H98.364z M100.645,213.401h0.863
				c0.411,0,0.732-0.059,0.964-0.177c0.23-0.118,0.39-0.309,0.478-0.57c0.087-0.262,0.131-0.614,0.131-1.056
				c0-0.452-0.033-0.819-0.101-1.102c-0.066-0.282-0.21-0.49-0.432-0.624c-0.221-0.133-0.567-0.2-1.04-0.2h-0.863V213.401z"/>
			<path style="fill:#263238;" d="M106.425,220.552v-12.483h3.668c0.75,0,1.358,0.139,1.826,0.416
				c0.468,0.277,0.812,0.681,1.032,1.21c0.221,0.529,0.332,1.169,0.332,1.919c0,0.811-0.139,1.467-0.417,1.965
				c-0.277,0.498-0.665,0.86-1.163,1.086c-0.499,0.227-1.087,0.34-1.765,0.34h-1.233v5.548H106.425z M108.705,213.401h0.863
				c0.411,0,0.732-0.059,0.964-0.177c0.23-0.118,0.39-0.309,0.478-0.57c0.087-0.262,0.131-0.614,0.131-1.056
				c0-0.452-0.033-0.819-0.101-1.102c-0.066-0.282-0.21-0.49-0.432-0.624c-0.221-0.133-0.567-0.2-1.04-0.2h-0.863V213.401z"/>
			<path style="fill:#263238;" d="M117.938,220.722c-0.884,0-1.588-0.165-2.111-0.493c-0.524-0.329-0.899-0.802-1.125-1.418
				c-0.227-0.617-0.34-1.347-0.34-2.188v-4.67c0-0.843,0.113-1.564,0.34-2.166c0.226-0.601,0.601-1.061,1.125-1.379
				c0.523-0.318,1.228-0.477,2.111-0.477c0.903,0,1.615,0.159,2.134,0.477c0.52,0.318,0.895,0.778,1.126,1.379
				c0.23,0.602,0.347,1.323,0.347,2.166v4.685c0,0.833-0.116,1.555-0.347,2.166c-0.231,0.611-0.606,1.084-1.126,1.418
				C119.553,220.554,118.841,220.722,117.938,220.722z M117.938,219.042c0.38,0,0.66-0.082,0.84-0.246
				c0.18-0.164,0.301-0.391,0.362-0.679c0.062-0.287,0.092-0.601,0.092-0.939v-5.749c0-0.349-0.03-0.662-0.092-0.939
				c-0.062-0.278-0.183-0.496-0.362-0.655c-0.18-0.159-0.46-0.239-0.84-0.239c-0.36,0-0.632,0.08-0.817,0.239
				c-0.185,0.159-0.308,0.377-0.37,0.655c-0.062,0.277-0.092,0.591-0.092,0.939v5.749c0,0.339,0.028,0.652,0.085,0.939
				c0.056,0.288,0.177,0.515,0.361,0.679C117.29,218.96,117.567,219.042,117.938,219.042z"/>
			<path style="fill:#263238;" d="M123.224,220.552v-12.483h2.989c0.843,0,1.555,0.1,2.135,0.301c0.58,0.2,1.022,0.542,1.325,1.024
				c0.304,0.483,0.455,1.141,0.455,1.973c0,0.504-0.046,0.956-0.139,1.356c-0.093,0.4-0.249,0.742-0.47,1.025
				c-0.222,0.283-0.527,0.501-0.917,0.655l1.741,6.149h-2.281l-1.51-5.718h-1.049v5.718H123.224z M125.504,213.401h0.709
				c0.442,0,0.794-0.063,1.056-0.192c0.263-0.128,0.45-0.334,0.563-0.616c0.113-0.283,0.17-0.645,0.17-1.087
				c0-0.627-0.115-1.097-0.347-1.41s-0.671-0.47-1.317-0.47h-0.833V213.401z"/>
			<path style="fill:#263238;" d="M133.056,220.552v-10.804h-1.988v-1.68h6.227v1.68h-1.957v10.804H133.056z"/>
		</g>
		<g>
			<path style="fill:#263238;" d="M328.979,117.197c-0.914,0-1.631-0.18-2.149-0.54c-0.52-0.359-0.882-0.85-1.087-1.472
				c-0.206-0.621-0.309-1.338-0.309-2.149v-4.454c0-0.854,0.103-1.593,0.309-2.22c0.205-0.627,0.567-1.109,1.087-1.448
				c0.518-0.34,1.235-0.509,2.149-0.509c0.863,0,1.539,0.147,2.026,0.439c0.488,0.292,0.835,0.711,1.041,1.256
				c0.205,0.545,0.308,1.177,0.308,1.896v1.048h-2.189v-1.079c0-0.349-0.018-0.667-0.054-0.955
				c-0.036-0.288-0.134-0.517-0.293-0.686c-0.159-0.17-0.434-0.255-0.824-0.255c-0.391,0-0.676,0.09-0.855,0.27
				c-0.18,0.181-0.296,0.422-0.347,0.725c-0.052,0.304-0.077,0.645-0.077,1.025v5.425c0,0.452,0.036,0.824,0.107,1.117
				c0.072,0.293,0.203,0.514,0.394,0.663c0.189,0.148,0.449,0.223,0.778,0.223c0.38,0,0.649-0.09,0.809-0.27
				c0.159-0.18,0.26-0.418,0.301-0.717c0.041-0.298,0.061-0.632,0.061-1.001v-1.126h2.189v1.002c0,0.74-0.098,1.396-0.293,1.965
				c-0.195,0.57-0.536,1.018-1.024,1.341C330.548,117.035,329.863,117.197,328.979,117.197z"/>
			<path style="fill:#263238;" d="M337.363,117.197c-0.925,0-1.644-0.17-2.157-0.509c-0.514-0.339-0.868-0.822-1.064-1.449
				c-0.195-0.626-0.293-1.376-0.293-2.25v-8.445h2.22v8.707c0,0.391,0.025,0.758,0.076,1.103c0.052,0.344,0.173,0.622,0.362,0.832
				c0.19,0.211,0.476,0.316,0.855,0.316c0.401,0,0.691-0.105,0.871-0.316c0.18-0.21,0.298-0.488,0.355-0.832
				c0.057-0.345,0.085-0.712,0.085-1.103v-8.707h2.203v8.445c0,0.874-0.098,1.624-0.292,2.25c-0.195,0.627-0.548,1.11-1.056,1.449
				C339.02,117.027,338.298,117.197,337.363,117.197z"/>
			<path style="fill:#263238;" d="M345.808,117.197c-0.75,0-1.377-0.147-1.88-0.44c-0.504-0.293-0.884-0.722-1.141-1.287
				c-0.257-0.564-0.4-1.259-0.432-2.08l1.957-0.386c0.021,0.483,0.08,0.909,0.178,1.279c0.098,0.37,0.246,0.655,0.446,0.855
				c0.201,0.2,0.465,0.3,0.794,0.3c0.37,0,0.632-0.109,0.786-0.331c0.154-0.221,0.231-0.501,0.231-0.84
				c0-0.544-0.123-0.991-0.37-1.341c-0.246-0.35-0.575-0.698-0.986-1.048l-1.572-1.387c-0.441-0.381-0.793-0.805-1.056-1.271
				c-0.262-0.468-0.393-1.046-0.393-1.734c0-0.986,0.287-1.746,0.863-2.281c0.575-0.534,1.361-0.801,2.357-0.801
				c0.586,0,1.074,0.09,1.464,0.27c0.391,0.18,0.702,0.429,0.933,0.747c0.231,0.319,0.403,0.681,0.517,1.087
				c0.113,0.406,0.184,0.835,0.216,1.287l-1.942,0.339c-0.021-0.391-0.064-0.74-0.131-1.048c-0.066-0.309-0.184-0.55-0.354-0.725
				c-0.169-0.175-0.419-0.262-0.747-0.262c-0.339,0-0.599,0.11-0.778,0.331c-0.18,0.221-0.27,0.496-0.27,0.824
				c0,0.422,0.087,0.769,0.262,1.041c0.175,0.272,0.426,0.552,0.755,0.84l1.557,1.371c0.514,0.432,0.953,0.938,1.318,1.519
				c0.364,0.58,0.547,1.281,0.547,2.104c0,0.596-0.131,1.125-0.394,1.588c-0.262,0.462-0.626,0.824-1.094,1.086
				C346.982,117.065,346.435,117.197,345.808,117.197z"/>
			<path style="fill:#263238;" d="M351.526,117.027v-10.804h-1.988v-1.68h6.227v1.68h-1.957v10.804H351.526z"/>
			<path style="fill:#263238;" d="M360.234,117.197c-0.884,0-1.588-0.165-2.111-0.493c-0.525-0.329-0.9-0.802-1.125-1.418
				c-0.227-0.617-0.34-1.347-0.34-2.188v-4.67c0-0.843,0.113-1.564,0.34-2.166c0.225-0.601,0.6-1.061,1.125-1.379
				c0.523-0.318,1.228-0.478,2.111-0.478c0.903,0,1.615,0.159,2.134,0.478c0.52,0.318,0.895,0.778,1.126,1.379
				c0.23,0.602,0.347,1.323,0.347,2.166v4.685c0,0.833-0.116,1.555-0.347,2.166c-0.231,0.611-0.606,1.084-1.126,1.418
				C361.849,117.029,361.137,117.197,360.234,117.197z M360.234,115.517c0.38,0,0.66-0.082,0.84-0.246s0.301-0.391,0.362-0.679
				c0.062-0.287,0.092-0.601,0.092-0.939v-5.749c0-0.349-0.03-0.662-0.092-0.939c-0.062-0.278-0.183-0.496-0.362-0.655
				c-0.18-0.159-0.46-0.239-0.84-0.239c-0.36,0-0.632,0.08-0.817,0.239c-0.185,0.159-0.308,0.377-0.37,0.655
				c-0.061,0.277-0.092,0.591-0.092,0.939v5.749c0,0.339,0.028,0.652,0.085,0.939c0.056,0.288,0.177,0.515,0.361,0.679
				C359.586,115.435,359.864,115.517,360.234,115.517z"/>
			<path style="fill:#263238;" d="M365.489,117.027l0.216-12.483h2.358l1.772,8.646l1.849-8.646h2.281l0.232,12.483h-1.695
				l-0.186-8.677l-1.771,8.677h-1.372l-1.804-8.708l-0.169,8.708H365.489z"/>
			<path style="fill:#263238;" d="M375.954,117.027v-12.483h5.239v1.603h-2.959v3.591h2.327v1.588h-2.327v4.13h2.99v1.572H375.954z"
				/>
			<path style="fill:#263238;" d="M382.55,117.027v-12.483h2.989c0.843,0,1.555,0.1,2.135,0.301c0.58,0.2,1.022,0.542,1.325,1.024
				c0.304,0.483,0.455,1.141,0.455,1.973c0,0.504-0.046,0.956-0.139,1.356c-0.093,0.4-0.249,0.742-0.47,1.025
				c-0.222,0.283-0.527,0.501-0.917,0.655l1.741,6.149h-2.281l-1.51-5.718h-1.049v5.718H382.55z M384.83,109.876h0.709
				c0.442,0,0.794-0.063,1.056-0.192c0.263-0.128,0.45-0.334,0.563-0.616c0.113-0.283,0.17-0.645,0.17-1.087
				c0-0.627-0.115-1.097-0.347-1.41c-0.232-0.313-0.671-0.47-1.317-0.47h-0.833V109.876z"/>
			<path style="fill:#263238;" d="M394.91,117.027v-12.483h2.28v10.911h3.021v1.572H394.91z"/>
			<path style="fill:#263238;" d="M404.635,117.197c-0.884,0-1.588-0.165-2.111-0.493c-0.524-0.329-0.899-0.802-1.125-1.418
				c-0.227-0.617-0.34-1.347-0.34-2.188v-4.67c0-0.843,0.113-1.564,0.34-2.166c0.226-0.601,0.601-1.061,1.125-1.379
				c0.523-0.318,1.228-0.478,2.111-0.478c0.903,0,1.615,0.159,2.134,0.478c0.52,0.318,0.895,0.778,1.126,1.379
				c0.23,0.602,0.347,1.323,0.347,2.166v4.685c0,0.833-0.116,1.555-0.347,2.166c-0.231,0.611-0.606,1.084-1.126,1.418
				C406.25,117.029,405.538,117.197,404.635,117.197z M404.635,115.517c0.38,0,0.66-0.082,0.84-0.246
				c0.18-0.164,0.301-0.391,0.362-0.679c0.062-0.287,0.092-0.601,0.092-0.939v-5.749c0-0.349-0.03-0.662-0.092-0.939
				c-0.061-0.278-0.183-0.496-0.362-0.655c-0.18-0.159-0.46-0.239-0.84-0.239c-0.36,0-0.632,0.08-0.817,0.239
				c-0.185,0.159-0.308,0.377-0.37,0.655c-0.062,0.277-0.092,0.591-0.092,0.939v5.749c0,0.339,0.028,0.652,0.085,0.939
				c0.056,0.288,0.177,0.515,0.361,0.679C403.987,115.435,404.265,115.517,404.635,115.517z"/>
			<path style="fill:#263238;" d="M411.539,117.027v-4.763l-2.527-7.721h2.127l1.541,4.947l1.448-4.947h2.081l-2.497,7.721v4.763
				H411.539z"/>
			<path style="fill:#263238;" d="M416.193,117.027l2.496-12.483h2.436l2.496,12.483h-2.111l-0.493-2.882h-2.173l-0.509,2.882
				H416.193z M419.075,112.696h1.695l-0.848-5.239L419.075,112.696z"/>
			<path style="fill:#263238;" d="M424.809,117.027v-12.483h2.28v10.911h3.021v1.572H424.809z"/>
			<path style="fill:#263238;" d="M431.929,117.027v-10.804h-1.988v-1.68h6.227v1.68h-1.957v10.804H431.929z"/>
			<path style="fill:#263238;" d="M439.049,117.027v-4.763l-2.527-7.721h2.127l1.541,4.947l1.448-4.947h2.081l-2.497,7.721v4.763
				H439.049z"/>
		</g>
	</g>
</g>
</svg>
