<?xml version="1.0" encoding="utf-8"?>
<!-- Generator: Adobe Illustrator 27.5.0, SVG Export Plug-In . SVG Version: 6.00 Build 0)  -->
<svg version="1.1" xmlns="http://www.w3.org/2000/svg" xmlns:xlink="http://www.w3.org/1999/xlink" x="0px" y="0px"
	 viewBox="0 0 500 500" style="enable-background:new 0 0 500 500;" xml:space="preserve">
<g id="Background_Simple">
	<g>
		<path style="fill:#92E3A9;" d="M73.32,166.464c27.326-48.69,65.535-34.614,85.47-19.958
			c30.043,22.087,59.189,54.072,102.356,54.072c42.777,0,55.427-54.184,95.843-52.278c41.099,1.938,68.233,34.376,68.232,73.338
			c-0.002,58.31-21.901,98.639-61.381,116.355c-57.289,25.708-131.661,2.08-180.255-20.501
			c-28.786-13.377-84.12-54.861-103.516-84.702C73.009,221.928,55.666,197.92,73.32,166.464z"/>
		<path style="opacity:0.7;fill:#FFFFFF;" d="M73.32,166.464c27.326-48.69,65.535-34.614,85.47-19.958
			c30.043,22.087,59.189,54.072,102.356,54.072c42.777,0,55.427-54.184,95.843-52.278c41.099,1.938,68.233,34.376,68.232,73.338
			c-0.002,58.31-21.901,98.639-61.381,116.355c-57.289,25.708-131.661,2.08-180.255-20.501
			c-28.786-13.377-84.12-54.861-103.516-84.702C73.009,221.928,55.666,197.92,73.32,166.464z"/>
	</g>
</g>
<g id="Shadow">
	<g>
		<g>
			<path style="fill:#92E3A9;" d="M400.762,404.316l13.433-9.199c2.002-2.167,3.016-5.068,2.8-8.011l-6.754-92.128L275.88,393.044
				C256.86,393.044,400.762,404.316,400.762,404.316z"/>
		</g>
		<ellipse style="fill:#92E3A9;" cx="263.436" cy="437.614" rx="76.99" ry="8.792"/>
	</g>
</g>
<g id="Floor">
	
		<line style="fill:none;stroke:#263238;stroke-linecap:round;stroke-linejoin:round;stroke-miterlimit:10;" x1="43.22" y1="391.752" x2="456.78" y2="391.752"/>
</g>
<g id="Windows">
	<g>
		<g>
			<g>
				<defs>
					<path id="XMLID_14_" d="M421.163,136.376c-15.927-15.307-36.906-23.736-59.071-23.737c-0.001,0,0,0,0,0
						c-22.165,0-43.145,8.431-59.071,23.737l-1.228,1.18v102.695h120.6V137.556L421.163,136.376z M414.392,170.418h-49.3v-49.71
						c18.412,0.701,35.762,7.82,49.3,20.281V170.418z M309.792,231.234v-54.815h49.3v54.815H309.792z M365.092,231.234v-54.815h49.3
						v54.815H365.092z M359.092,120.708v49.71h-49.3v-29.43C323.33,128.528,340.68,121.408,359.092,120.708z"/>
				</defs>
				<use xlink:href="#XMLID_14_"  style="overflow:visible;fill:#92E3A9;"/>
				<clipPath id="XMLID_00000056390241103342851960000005221815378407417249_">
					<use xlink:href="#XMLID_14_"  style="overflow:visible;"/>
				</clipPath>
				
					<path id="XMLID_25_" style="opacity:0.4;clip-path:url(#XMLID_00000056390241103342851960000005221815378407417249_);fill:#FFFFFF;" d="
					M421.163,136.376c-15.927-15.307-36.906-23.736-59.071-23.737c-0.001,0,0,0,0,0c-22.165,0-43.145,8.431-59.071,23.737
					l-1.228,1.18v102.695h120.6V137.556L421.163,136.376z M414.392,170.418h-49.3v-49.71c18.412,0.701,35.762,7.82,49.3,20.281
					V170.418z M309.792,231.234v-54.815h49.3v54.815H309.792z M365.092,231.234v-54.815h49.3v54.815H365.092z M359.092,120.708
					v49.71h-49.3v-29.43C323.33,128.528,340.68,121.408,359.092,120.708z"/>
				
					<use xlink:href="#XMLID_14_"  style="overflow:visible;fill:none;stroke:#263238;stroke-width:0.75;stroke-linecap:round;stroke-linejoin:round;stroke-miterlimit:10;"/>
			</g>
			<g>
				<defs>
					<path id="XMLID_15_" d="M426.392,244.252h-128.6V135.923l1.171-1.172c34.81-34.808,91.448-34.808,126.257,0l1.171,1.172
						V244.252z M305.792,236.252h112.6V139.26c-31.384-30.161-81.216-30.162-112.6,0V236.252z"/>
				</defs>
				<use xlink:href="#XMLID_15_"  style="overflow:visible;fill:#92E3A9;"/>
				<clipPath id="XMLID_00000136408873478736673790000016974901942602134206_">
					<use xlink:href="#XMLID_15_"  style="overflow:visible;"/>
				</clipPath>
				
					<path id="XMLID_24_" style="opacity:0.7;clip-path:url(#XMLID_00000136408873478736673790000016974901942602134206_);fill:#FFFFFF;" d="
					M426.392,244.252h-128.6V135.923l1.171-1.172c34.81-34.808,91.448-34.808,126.257,0l1.171,1.172V244.252z M305.792,236.252
					h112.6V139.26c-31.384-30.161-81.216-30.162-112.6,0V236.252z"/>
				
					<use xlink:href="#XMLID_15_"  style="overflow:visible;fill:none;stroke:#263238;stroke-width:0.75;stroke-linecap:round;stroke-linejoin:round;stroke-miterlimit:10;"/>
			</g>
		</g>
		<g>
			<g>
				<defs>
					<path id="XMLID_28_" d="M196.98,136.376c-15.927-15.307-36.906-23.736-59.071-23.737c-0.001,0,0.001,0,0,0
						c-22.165,0-43.145,8.431-59.071,23.737l-1.229,1.18v102.695h120.6V137.556L196.98,136.376z M190.208,170.418h-49.3v-49.71
						c18.412,0.701,35.762,7.82,49.3,20.281V170.418z M85.608,231.234v-54.815h49.3v54.815H85.608z M140.908,231.234v-54.815h49.3
						v54.815H140.908z M134.908,120.708v49.71h-49.3v-29.43C99.146,128.528,116.496,121.408,134.908,120.708z"/>
				</defs>
				<use xlink:href="#XMLID_28_"  style="overflow:visible;fill:#92E3A9;"/>
				<clipPath id="XMLID_00000111154610849890890020000016261171541723490452_">
					<use xlink:href="#XMLID_28_"  style="overflow:visible;"/>
				</clipPath>
				
					<path id="XMLID_29_" style="opacity:0.4;clip-path:url(#XMLID_00000111154610849890890020000016261171541723490452_);fill:#FFFFFF;" d="
					M196.98,136.376c-15.927-15.307-36.906-23.736-59.071-23.737c-0.001,0,0.001,0,0,0c-22.165,0-43.145,8.431-59.071,23.737
					l-1.229,1.18v102.695h120.6V137.556L196.98,136.376z M190.208,170.418h-49.3v-49.71c18.412,0.701,35.762,7.82,49.3,20.281
					V170.418z M85.608,231.234v-54.815h49.3v54.815H85.608z M140.908,231.234v-54.815h49.3v54.815H140.908z M134.908,120.708v49.71
					h-49.3v-29.43C99.146,128.528,116.496,121.408,134.908,120.708z"/>
				
					<use xlink:href="#XMLID_28_"  style="overflow:visible;fill:none;stroke:#263238;stroke-width:0.75;stroke-linecap:round;stroke-linejoin:round;stroke-miterlimit:10;"/>
			</g>
			<g>
				<defs>
					<path id="XMLID_26_" d="M202.208,244.252h-128.6V135.923l1.171-1.172c34.81-34.808,91.448-34.808,126.257,0l1.171,1.172
						V244.252z M81.608,236.252h112.6V139.26c-31.384-30.161-81.216-30.162-112.6,0V236.252z"/>
				</defs>
				<use xlink:href="#XMLID_26_"  style="overflow:visible;fill:#92E3A9;"/>
				<clipPath id="XMLID_00000013156928674540995430000015904528420907069094_">
					<use xlink:href="#XMLID_26_"  style="overflow:visible;"/>
				</clipPath>
				
					<path id="XMLID_27_" style="opacity:0.7;clip-path:url(#XMLID_00000013156928674540995430000015904528420907069094_);fill:#FFFFFF;" d="
					M202.208,244.252h-128.6V135.923l1.171-1.172c34.81-34.808,91.448-34.808,126.257,0l1.171,1.172V244.252z M81.608,236.252h112.6
					V139.26c-31.384-30.161-81.216-30.162-112.6,0V236.252z"/>
				
					<use xlink:href="#XMLID_26_"  style="overflow:visible;fill:none;stroke:#263238;stroke-width:0.75;stroke-linecap:round;stroke-linejoin:round;stroke-miterlimit:10;"/>
			</g>
		</g>
	</g>
</g>
<g id="Envelope">
	<g>
		<polygon style="fill:#92E3A9;stroke:#263238;stroke-linecap:round;stroke-linejoin:round;stroke-miterlimit:10;" points="
			225.958,404.32 400.675,404.32 410.241,294.978 235.524,294.978 		"/>
		<g>
			<defs>
				<path id="XMLID_16_" d="M309.587,353.603c4.538,3.592,11.167,3.592,16.334,0l84.321-58.625l-9.566,109.342H225.958
					l9.566-109.342L309.587,353.603z"/>
			</defs>
			<use xlink:href="#XMLID_16_"  style="overflow:visible;fill:#92E3A9;"/>
			<clipPath id="XMLID_00000171702181061747187150000008652333687875768767_">
				<use xlink:href="#XMLID_16_"  style="overflow:visible;"/>
			</clipPath>
			<path style="opacity:0.4;clip-path:url(#XMLID_00000171702181061747187150000008652333687875768767_);fill:#FFFFFF;" d="
				M309.587,353.603c4.538,3.592,11.167,3.592,16.334,0l84.321-58.625l-9.566,109.342H225.958l9.566-109.342L309.587,353.603z"/>
			
				<use xlink:href="#XMLID_16_"  style="overflow:visible;fill:none;stroke:#263238;stroke-linecap:round;stroke-linejoin:round;stroke-miterlimit:10;"/>
		</g>
		<g>
			<defs>
				<path id="XMLID_17_" d="M225.958,404.32h174.718l-74.063-58.625c-4.538-3.592-11.167-3.592-16.334,0L225.958,404.32z"/>
			</defs>
			<use xlink:href="#XMLID_17_"  style="overflow:visible;fill:#92E3A9;"/>
			<clipPath id="XMLID_00000057840256633567136160000017689452842884790165_">
				<use xlink:href="#XMLID_17_"  style="overflow:visible;"/>
			</clipPath>
			<path style="opacity:0.3;clip-path:url(#XMLID_00000057840256633567136160000017689452842884790165_);fill:#FFFFFF;" d="
				M225.958,404.32h174.718l-74.063-58.625c-4.538-3.592-11.167-3.592-16.334,0L225.958,404.32z"/>
			
				<use xlink:href="#XMLID_17_"  style="overflow:visible;fill:none;stroke:#263238;stroke-linecap:round;stroke-linejoin:round;stroke-miterlimit:10;"/>
		</g>
		<path style="fill:#FFFFFF;stroke:#263238;stroke-linecap:round;stroke-linejoin:round;stroke-miterlimit:10;" d="M235.524,294.978
			h174.717l-94.901-58.625c-5.815-3.592-12.444-3.592-16.334,0L235.524,294.978z"/>
	</g>
</g>
<g id="Sofa">
	<g>
		<g>
			<defs>
				<path id="XMLID_18_" d="M137.643,382.333h17.935l-9.429-76.789c-0.399-3.251-3.358-5.886-6.608-5.886h-6.163H61.285
					l11.472,82.675H137.643z"/>
			</defs>
			<use xlink:href="#XMLID_18_"  style="overflow:visible;fill:#92E3A9;"/>
			<clipPath id="XMLID_00000136393440269153302370000017048238982818850177_">
				<use xlink:href="#XMLID_18_"  style="overflow:visible;"/>
			</clipPath>
			<path style="opacity:0.7;clip-path:url(#XMLID_00000136393440269153302370000017048238982818850177_);fill:#FFFFFF;" d="
				M137.643,382.333h17.935l-9.429-76.789c-0.399-3.251-3.358-5.886-6.608-5.886h-6.163H61.285l11.472,82.675H137.643z"/>
			
				<use xlink:href="#XMLID_18_"  style="overflow:visible;fill:none;stroke:#263238;stroke-width:0.75;stroke-linecap:round;stroke-linejoin:round;stroke-miterlimit:10;"/>
		</g>
		<g>
			<defs>
				<path id="XMLID_22_" d="M80.762,382.333H62.827l-9.429-76.789c-0.399-3.251,1.912-5.886,5.163-5.886h6.163
					c3.251,0,6.209,2.635,6.608,5.886L80.762,382.333z"/>
			</defs>
			<use xlink:href="#XMLID_22_"  style="overflow:visible;fill:#92E3A9;"/>
			<clipPath id="XMLID_00000157292717853749154460000013814169823038931634_">
				<use xlink:href="#XMLID_22_"  style="overflow:visible;"/>
			</clipPath>
			
				<path style="opacity:0.3;clip-path:url(#XMLID_00000157292717853749154460000013814169823038931634_);fill:#FFFFFF;stroke:#263238;stroke-width:0.75;stroke-linecap:round;stroke-linejoin:round;stroke-miterlimit:10;" d="
				M80.762,382.333H62.827l-9.429-76.789c-0.399-3.251,1.912-5.886,5.163-5.886h6.163c3.251,0,6.209,2.635,6.608,5.886
				L80.762,382.333z"/>
			
				<use xlink:href="#XMLID_22_"  style="overflow:visible;fill:none;stroke:#263238;stroke-width:0.75;stroke-linecap:round;stroke-linejoin:round;stroke-miterlimit:10;"/>
		</g>
		<g>
			<defs>
				<path id="XMLID_21_" d="M91.335,386.966l-3.249-37.141c-0.145-1.659-1.427-2.992-3.079-3.203l-1.336-0.171
					c-2.216-0.283-3.935-2.071-4.13-4.297l-0.593-6.772c-0.243-2.776,1.945-5.163,4.731-5.163H53.706
					c-2.786,0-4.974,2.387-4.731,5.163l0.593,6.772c0.195,2.225,1.914,4.014,4.13,4.297l1.336,0.171
					c1.652,0.211,2.934,1.544,3.079,3.203l3.249,37.141c0.237,2.708,2.504,4.785,5.222,4.785h29.973
					C93.839,391.752,91.572,389.674,91.335,386.966z"/>
			</defs>
			<use xlink:href="#XMLID_21_"  style="overflow:visible;fill:#92E3A9;"/>
			<clipPath id="XMLID_00000142891597008413115460000006179517304585793678_">
				<use xlink:href="#XMLID_21_"  style="overflow:visible;"/>
			</clipPath>
			<g style="opacity:0.3;clip-path:url(#XMLID_00000142891597008413115460000006179517304585793678_);">
				
					<path style="fill:#FFFFFF;stroke:#263238;stroke-width:0.75;stroke-linecap:round;stroke-linejoin:round;stroke-miterlimit:10;" d="
					M91.335,386.966l-3.249-37.141c-0.145-1.659-1.427-2.992-3.079-3.203l-1.336-0.171c-2.216-0.283-3.935-2.071-4.13-4.297
					l-0.593-6.772c-0.243-2.776,1.945-5.163,4.731-5.163H53.706c-2.786,0-4.974,2.387-4.731,5.163l0.593,6.772
					c0.195,2.225,1.914,4.014,4.13,4.297l1.336,0.171c1.652,0.211,2.934,1.544,3.079,3.203l3.249,37.141
					c0.237,2.708,2.504,4.785,5.222,4.785h29.973C93.839,391.752,91.572,389.674,91.335,386.966z"/>
			</g>
			
				<use xlink:href="#XMLID_21_"  style="overflow:visible;fill:none;stroke:#263238;stroke-width:0.75;stroke-linecap:round;stroke-linejoin:round;stroke-miterlimit:10;"/>
		</g>
		<g>
			<defs>
				<path id="XMLID_23_" d="M173.819,340.527c0.51-5.833,5.394-10.308,11.249-10.308h-14.503h-11.591
					c-5.855,0-10.739,4.475-11.249,10.308l-2.576,29.442h26.094L173.819,340.527z"/>
			</defs>
			<use xlink:href="#XMLID_23_"  style="overflow:visible;fill:#92E3A9;"/>
			<clipPath id="XMLID_00000173872492170750847610000015483079105974279865_">
				<use xlink:href="#XMLID_23_"  style="overflow:visible;"/>
			</clipPath>
			<path style="opacity:0.3;clip-path:url(#XMLID_00000173872492170750847610000015483079105974279865_);fill:#FFFFFF;" d="
				M173.819,340.527c0.51-5.833,5.394-10.308,11.249-10.308h-14.503h-11.591c-5.855,0-10.739,4.475-11.249,10.308l-2.576,29.442
				h26.094L173.819,340.527z"/>
			
				<use xlink:href="#XMLID_23_"  style="overflow:visible;fill:none;stroke:#263238;stroke-width:0.75;stroke-linecap:round;stroke-linejoin:round;stroke-miterlimit:10;"/>
		</g>
		<g>
			<defs>
				<path id="XMLID_20_" d="M164.943,369.969h-61.052c-2.996,0-5.425-2.429-5.425-5.425v-6.809c0-2.996,2.429-5.425,5.425-5.425
					h61.052c2.996,0,5.425,2.429,5.425,5.425v6.809C170.368,367.54,167.939,369.969,164.943,369.969z"/>
			</defs>
			<use xlink:href="#XMLID_20_"  style="overflow:visible;fill:#92E3A9;"/>
			<clipPath id="XMLID_00000155113871755276264230000000898202593475806863_">
				<use xlink:href="#XMLID_20_"  style="overflow:visible;"/>
			</clipPath>
			<g style="opacity:0.5;clip-path:url(#XMLID_00000155113871755276264230000000898202593475806863_);">
				<path style="fill:#FFFFFF;" d="M164.943,369.969h-61.052c-2.996,0-5.425-2.429-5.425-5.425v-6.809
					c0-2.996,2.429-5.425,5.425-5.425h61.052c2.996,0,5.425,2.429,5.425,5.425v6.809
					C170.368,367.54,167.939,369.969,164.943,369.969z"/>
			</g>
			
				<use xlink:href="#XMLID_20_"  style="overflow:visible;fill:none;stroke:#263238;stroke-width:0.75;stroke-linecap:round;stroke-linejoin:round;stroke-miterlimit:10;"/>
		</g>
		<g>
			<defs>
				<path id="XMLID_19_" d="M196.658,330.22h-11.591c-5.855,0-10.738,4.475-11.249,10.308l-2.576,29.442h-62.148l-2.576-29.442
					c-0.51-5.833-5.394-10.308-11.249-10.308H83.679c-2.786,0-4.974,2.387-4.731,5.163l0.593,6.772
					c0.195,2.225,1.914,4.014,4.13,4.297l1.336,0.171c1.652,0.211,2.934,1.544,3.079,3.203l3.249,37.141
					c0.237,2.708,2.504,4.785,5.223,4.785h87.223c2.718,0,4.986-2.078,5.223-4.785l3.249-37.141
					c0.145-1.659,1.427-2.992,3.079-3.203l1.336-0.17c2.216-0.283,3.935-2.072,4.13-4.297l0.592-6.772
					C201.632,332.607,199.445,330.22,196.658,330.22z"/>
			</defs>
			<use xlink:href="#XMLID_19_"  style="overflow:visible;fill:#92E3A9;"/>
			<clipPath id="XMLID_00000042012249885983148290000006697279920268364702_">
				<use xlink:href="#XMLID_19_"  style="overflow:visible;"/>
			</clipPath>
			
				<path style="opacity:0.7;clip-path:url(#XMLID_00000042012249885983148290000006697279920268364702_);fill:#FFFFFF;stroke:#263238;stroke-width:0.75;stroke-linecap:round;stroke-linejoin:round;stroke-miterlimit:10;" d="
				M196.658,330.22h-11.591c-5.855,0-10.738,4.475-11.249,10.308l-2.576,29.442h-62.148l-2.576-29.442
				c-0.51-5.833-5.394-10.308-11.249-10.308H83.679c-2.786,0-4.974,2.387-4.731,5.163l0.593,6.772
				c0.195,2.225,1.914,4.014,4.13,4.297l1.336,0.171c1.652,0.211,2.934,1.544,3.079,3.203l3.249,37.141
				c0.237,2.708,2.504,4.785,5.223,4.785h87.223c2.718,0,4.986-2.078,5.223-4.785l3.249-37.141c0.145-1.659,1.427-2.992,3.079-3.203
				l1.336-0.17c2.216-0.283,3.935-2.072,4.13-4.297l0.592-6.772C201.632,332.607,199.445,330.22,196.658,330.22z"/>
			
				<use xlink:href="#XMLID_19_"  style="overflow:visible;fill:none;stroke:#263238;stroke-width:0.75;stroke-linecap:round;stroke-linejoin:round;stroke-miterlimit:10;"/>
		</g>
	</g>
</g>
<g id="Character">
	<g>
		<g>
			<g>
				<g>
					<g>
						<path style="fill:#FFFFFF;stroke:#263238;stroke-linecap:round;stroke-linejoin:round;stroke-miterlimit:10;" d="
							M225.675,384.352l8.657,12.522c0,0,2.319,5.102,3.71,8.193c1.391,3.092,0.146,8.986,2.783,8.966
							c3.586-0.026,4.792-7.575,4.947-13.45c0.155-5.875,2.598-15.923-2.566-15.305l-5.164-0.022l-6.332-8.978L225.675,384.352z"/>
						<path style="fill:#92E3A9;stroke:#263238;stroke-linecap:round;stroke-linejoin:round;stroke-miterlimit:10;" d="
							M240.539,388.927l-1.455,4.391c0,0-3.524-1.082-4.887,0c-1.363,1.082,0.135,3.556,0.135,3.556s2.319,5.102,3.71,8.193
							c1.391,3.092,0.146,8.986,2.783,8.966c3.586-0.026,4.792-7.575,4.947-13.45c0.155-5.875,2.598-15.923-2.566-15.305
							l-5.164-0.022c-0.175,1.427,0.897,1.323,1.825,1.804C240.546,387.413,240.839,388.224,240.539,388.927z"/>
						<path style="fill:none;stroke:#263238;stroke-linecap:round;stroke-linejoin:round;stroke-miterlimit:10;" d="
							M236.049,396.597c0,0,4.579-2.675,4.839,0.501C241.149,400.275,236.049,396.597,236.049,396.597z"/>
						<path style="fill:none;stroke:#263238;stroke-linecap:round;stroke-linejoin:round;stroke-miterlimit:10;" d="M236.08,400.724
							c0,0-0.428-2.022,3.005-2.009"/>
						<path style="fill:none;stroke:#263238;stroke-linecap:round;stroke-linejoin:round;stroke-miterlimit:10;" d="
							M237.244,402.448c0,0-0.428-2.022,3.005-2.009"/>
						<path style="fill:none;stroke:#263238;stroke-linecap:round;stroke-linejoin:round;stroke-miterlimit:10;" d="
							M235.749,396.724c0,0-4.841,2.164-2.411,4.226C235.769,403.011,235.749,396.724,235.749,396.724z"/>
						<path style="fill:#263238;stroke:#263238;stroke-linecap:round;stroke-linejoin:round;stroke-miterlimit:10;" d="
							M244.744,390.381c0.038,4.905-0.676,7.871-1.299,15.768c-0.493,6.251-2.547,6.55-4.36,5.462
							c0.223,1.41,0.645,2.43,1.741,2.423c3.586-0.026,4.792-7.575,4.947-13.45c0.155-5.875,2.598-15.923-2.566-15.305
							C243.207,385.28,244.706,385.476,244.744,390.381z"/>
					</g>
					<g>
						<defs>
							<path id="XMLID_2_" d="M217.389,281.142c0,0,5.498,3.906,13.1,2.563c7.602-1.342,10.813-2.106,10.813-2.106
								s8.429,23.22,0.496,34.937c-7.933,11.716-21.968,37.712-21.968,37.712s5.004,2.685,3.051,3.417c0,0,4.638,3.905,9.031,15.256
								c0,0,1.831,4.394,3.417,4.76c0,0-2.685,10.544-9.031,10.374c0,0-7.567-10.008-14.28-16.354
								c-2.542-2.403-6.284-6.357-8.476-8.703c-1.187-1.27-1.839-2.945-1.812-4.683c0.046-2.948,12.363-60.452,14.682-60.086
								c0,0-2.075-3.661,0.122-5.614C216.535,292.615,215.803,287.244,217.389,281.142z"/>
						</defs>
						<use xlink:href="#XMLID_2_"  style="overflow:visible;fill:#92E3A9;"/>
						<clipPath id="XMLID_00000166646180640657628690000001028137142824347798_">
							<use xlink:href="#XMLID_2_"  style="overflow:visible;"/>
						</clipPath>
						<path style="opacity:0.3;clip-path:url(#XMLID_00000166646180640657628690000001028137142824347798_);" d="M225.924,361.791
							c0,0-2.166-3.39-8.838-5.18c-6.672-1.79,2.233-16.997,8.137-26.198c5.665-8.829,13.096-16.006,10.06-25.592
							c-3.036-9.586,12.629,8.993,12.629,8.993l-9.508,18.876l-8.206,12.53l-4.65,10.579L225.924,361.791z"/>
						
							<use xlink:href="#XMLID_2_"  style="overflow:visible;fill:none;stroke:#263238;stroke-linecap:round;stroke-linejoin:round;stroke-miterlimit:10;"/>
					</g>
					<g>
						<path style="fill:none;stroke:#263238;stroke-linecap:round;stroke-linejoin:round;stroke-miterlimit:10;" d="M224.381,301.19
							c1.103,0.446,2.279,0.956,3.417,1.511c2.457,1.199,4.733,2.611,5.702,4.049c2.563,3.805-3.661-0.021-7.933,0"/>
						<path style="fill:none;stroke:#263238;stroke-linecap:round;stroke-linejoin:round;stroke-miterlimit:10;" d="M219.22,299.327
							c0,0,1.133,0.35,2.772,0.947"/>
					</g>
					<path style="fill:none;stroke:#263238;stroke-linecap:round;stroke-linejoin:round;stroke-miterlimit:10;" d="M221.295,358.764
						c0,0-2.319,1.465-9.52,0"/>
					<path style="fill:none;stroke:#263238;stroke-linecap:round;stroke-linejoin:round;stroke-miterlimit:10;" d="M216.535,353.516
						c0,0-9.153-3.905-6.468-7.811"/>
				</g>
				<g>
					<path style="fill:#FFFFFF;stroke:#263238;stroke-linecap:round;stroke-linejoin:round;stroke-miterlimit:10;" d="
						M289.722,329.269c-1.742,1.271-7.323,4.556-7.323,4.556l3.58,8.625c0,0,7.186-6.242,9.601-8.299
						c1.181-1.005,4.752-3.987,4.752-3.987l-6.298-4.556C294.034,325.608,290.865,328.436,289.722,329.269z"/>
					<path style="fill:#92E3A9;" d="M230.489,283.705c0,0,1.318,11.6,7.514,28.394c1.425,3.862,2.188,7.939,2.224,12.056
						c0.124,14.088,4.438,44.006,14.671,43.494c13.018-0.651,28.315-24.711,32.871-24.06c0,0,0.651-9.764-5.207-10.74
						c0,0-13.995,7.485-19.202,13.995c0,0-1.325-25.06-0.349-31.895c0.976-6.835,6.614-20.016-8.113-40.682
						C254.898,274.267,253.271,280.451,230.489,283.705z"/>
					<path style="fill:none;stroke:#263238;stroke-linecap:round;stroke-linejoin:round;stroke-miterlimit:10;" d="M263.997,353.149
						c0.391,3.478,0.746,7.933,0.746,7.933"/>
					<g>
						<path style="fill:none;stroke:#263238;stroke-linecap:round;stroke-linejoin:round;stroke-miterlimit:10;" d="
							M261.525,360.027c0.676-2.129,1.369-5.169,1.509-8.952"/>
						<path style="fill:none;stroke:#263238;stroke-linecap:round;stroke-linejoin:round;stroke-miterlimit:10;" d="
							M260.105,363.523c0,0,0.33-0.581,0.77-1.678"/>
					</g>
					<g>
						<path style="fill:none;stroke:#263238;stroke-linecap:round;stroke-linejoin:round;stroke-miterlimit:10;" d="
							M250.448,303.094c0.609,0.06,1.226,0.183,1.846,0.383"/>
						<path style="fill:none;stroke:#263238;stroke-linecap:round;stroke-linejoin:round;stroke-miterlimit:10;" d="
							M252.294,297.618c0,0-14.646,6.835-13.913,8.787c0.606,1.617,5.064-2.96,10.46-3.333"/>
					</g>
					<path style="fill:none;stroke:#263238;stroke-linecap:round;stroke-linejoin:round;stroke-miterlimit:10;" d="M239.275,316.318
						c0.246,1.042,0.446,2.095,0.597,3.155c0.222,1.549,0.341,3.113,0.355,4.683c0.124,14.088,6.26,44.845,14.671,43.494
						c12.87-2.066,28.315-24.711,32.871-24.06c0,0,0.651-9.764-5.207-10.74c0,0-13.995,7.485-19.202,13.995
						c0,0-1.325-25.06-0.349-31.895c0.976-6.835,6.614-20.016-8.113-40.682"/>
					<g>
						<path style="fill:none;stroke:#263238;stroke-linecap:round;stroke-linejoin:round;stroke-miterlimit:10;" d="
							M233.807,298.851c1.091,3.588,2.715,8.766,4.548,14.06"/>
						<path style="fill:none;stroke:#263238;stroke-linecap:round;stroke-linejoin:round;stroke-miterlimit:10;" d="M232.38,294.043
							c0,0,0.257,0.897,0.71,2.423"/>
					</g>
					<path style="fill:#92E3A9;stroke:#263238;stroke-linecap:round;stroke-linejoin:round;stroke-miterlimit:10;" d="
						M317.748,330.121c0.687,0.797,0.319,2.028-0.695,2.313c-0.771,0.217-1.947,0.307-3.736,0.09
						c-5.37-0.651-17.737,1.627-17.737,1.627s-0.631-2.034,1.505-3.173c2.136-1.139-3.845-2.665-3.845-2.665
						s-1.79,1.729-3.519,0.956c0,0,0.329-5.875,4.882-9.764c1.511-1.29,3.038-2.034,7.865,1.139
						C307.088,323.681,312.054,323.514,317.748,330.121z"/>
					<path style="fill:none;stroke:#263238;stroke-linecap:round;stroke-linejoin:round;stroke-miterlimit:10;" d="M299.248,333.544
						c0,0-3.912,2.641-1.715,4.105c2.197,1.465,2.454-4.216,2.454-4.216s0.556,5.106,3.079,4.457
						c2.522-0.648-2.258-4.576-2.258-4.576L299.248,333.544z"/>
					<path style="fill:none;stroke:#263238;stroke-linecap:round;stroke-linejoin:round;stroke-miterlimit:10;" d="M302.266,333.116
						c0,0-0.583-1.65,0.556-2.952"/>
					<path style="fill:none;stroke:#263238;stroke-linecap:round;stroke-linejoin:round;stroke-miterlimit:10;" d="M304.124,332.887
						c0,0-0.244-1.258,0.488-1.909"/>
					<path style="fill:#263238;stroke:#263238;stroke-linecap:round;stroke-linejoin:round;stroke-miterlimit:10;" d="
						M317.42,332.272c0.724-0.444,0.924-1.459,0.328-2.151c-5.694-6.607-10.66-6.44-15.279-9.476
						c-4.828-3.173-6.354-2.43-7.865-1.139c-0.107,0.091-0.2,0.189-0.303,0.282c1.593,0.205,4.189,0.878,7.468,2.952
						c5.587,3.534,6.807,1.709,13.154,7.16C315.996,330.822,316.799,331.599,317.42,332.272z"/>
				</g>
				<g>
					<path style="fill:#263238;stroke:#263238;stroke-linecap:round;stroke-linejoin:round;stroke-miterlimit:10;" d="
						M257.301,274.267c-9.975-5.383-4.988-44.471-4.988-44.471l4.064-7.621c-5.911,3.087-5.727-12.192-5.727-12.192l-11.901,10.054
						c-20.213,3.325-21.825-3.009-21.825-3.009l-3.324-7.045c0,0-6.175,16.942-8.313,11.717l1.963,8.096
						c0,0-3.388,18.029,3.024,22.304c0,0,8.787,27.787,5.7,30.162c0,0,4.936,6.175,22.774,2.375
						C256.589,280.838,257.301,274.267,257.301,274.267z"/>
					<g>
						<path style="fill:none;stroke:#7F7F7F;stroke-linecap:round;stroke-linejoin:round;" d="M246.123,245.532
							c0.49-0.882,0.728-1.507,0.728-1.507"/>
						<path style="fill:none;stroke:#7F7F7F;stroke-linecap:round;stroke-linejoin:round;" d="M242.762,249.574
							c1.047-0.798,1.885-1.781,2.524-2.697"/>
						<path style="fill:none;stroke:#7F7F7F;stroke-linecap:round;stroke-linejoin:round;" d="M220.23,250.019
							c4.196-0.934,9.813-1.509,14.38,0.419"/>
						<path style="fill:none;stroke:#7F7F7F;stroke-linecap:round;stroke-linejoin:round;" d="M214.133,251.863
							c0,0,1.13-0.468,2.94-1.015"/>
					</g>
				</g>
				<g>
					<path style="fill:#FFFFFF;stroke:#263238;stroke-linecap:round;stroke-linejoin:round;stroke-miterlimit:10;" d="
						M191.831,149.976c6.967,15.675,9.741,23.462,12.508,31.587c2.681,7.871,9.794,32.062,9.794,32.062
						c-1.368,8.312-7.538,10.925-7.538,10.925s-9.144-30.162-10.806-36.575c-0.548-2.114-2.874-6.759-4.54-12.035
						c-3.385-10.727-6.86-25.015-6.86-25.015s-3.008-1.742-2.256-4.988c0,0-1.188-1.9,1.069-3.919
						c2.256-2.019,5.115-5.279,7.006-4.275c1.396,0.741,3.59,1.792,5.225,5.463C196.669,145.982,191.831,149.976,191.831,149.976z"
						/>
					<path style="fill:none;stroke:#263238;stroke-linecap:round;stroke-linejoin:round;stroke-miterlimit:10;" d="M196.383,184.651
						c0,0-0.594,2.256,1.069,4.037"/>
				</g>
				<g>
					<path style="fill:#FFFFFF;stroke:#263238;stroke-linecap:round;stroke-linejoin:round;stroke-miterlimit:10;" d="
						M292.393,163.846c-12.505,13.483-15.592,16.989-20.976,23.965c-1.809,2.343-4.23,4.37-7.801,8.433
						c-6.319,7.189-13.261,15.75-13.261,15.75c-1.836,8.222,2.911,12.95,2.911,12.95s20.985-25.09,24.922-30.417
						c1.648-2.23,3.911-3.976,8.195-9.672c5.95-7.911,8.469-12.647,12.133-16.111c1.239-1.171,3.172-2.123,4.906-4.734
						c0,0,1.811-1.319,0.472-4.034c-1.339-2.715-5.623-6.807-7.752-6.583c-1.572,0.166-1.15,0.321-4.037,3.115
						C289.923,158.62,292.393,163.846,292.393,163.846z"/>
					<path style="fill:none;stroke:#263238;stroke-linecap:round;stroke-linejoin:round;stroke-miterlimit:10;" d="M278.88,191.22
						c0,0-0.292,2.315-2.5,3.346"/>
				</g>
				<g>
					<path style="fill:#263238;stroke:#263238;stroke-linecap:round;stroke-linejoin:round;stroke-miterlimit:10;" d="
						M215.461,206.922c0,0,8.563,15.68,26.85,8.614l4.885-12.247l0.305-8.279l-7.54-11.311l-6.232-0.971l-4.918,1.141l-6.031,4.826
						l-3.151,2.492l-3.145,8.201L215.461,206.922z"/>
					<g>
						<defs>
							<path id="XMLID_3_" d="M219.7,219.538c0,0-1.259,7.506,6.341,8.337c7.6,0.831,10.581-7.514,10.581-7.514
								s-2.149,0.902-1.793-1.433c0.356-2.335,1.793-6.61,1.793-6.61l-11.682-3.444C224.939,208.876,224.64,222.007,219.7,219.538z"
								/>
						</defs>
						<use xlink:href="#XMLID_3_"  style="overflow:visible;fill:#FFFFFF;"/>
						<clipPath id="XMLID_00000106112766308816274220000002533651704480318135_">
							<use xlink:href="#XMLID_3_"  style="overflow:visible;"/>
						</clipPath>
						
							<path style="clip-path:url(#XMLID_00000106112766308816274220000002533651704480318135_);fill:#263238;stroke:#263238;stroke-linecap:round;stroke-linejoin:round;stroke-miterlimit:10;" d="
							M224.113,192.269c0,0-3.44,10.038-3.152,13.489c0.208,2.5,2.204,7.381,3.87,9.257c0.62,0.698,2.162,1.869,3.051,2.154
							c0.889,0.285,2.824,0.23,3.735,0.023c2.446-0.556,6.909-3.366,8.533-5.278c2.242-2.64,5.284-12.805,5.284-12.805l-2.738-11.13
							l-7.192-3.941l-6.69,1.141L224.113,192.269z"/>
						
							<use xlink:href="#XMLID_3_"  style="overflow:visible;fill:none;stroke:#263238;stroke-linecap:round;stroke-linejoin:round;stroke-miterlimit:10;"/>
					</g>
					<path style="fill:#FFFFFF;stroke:#263238;stroke-linecap:round;stroke-linejoin:round;stroke-miterlimit:10;" d="
						M224.11,190.959c0,0-3.44,10.038-3.152,13.489c0.208,2.5,2.204,7.381,3.87,9.257c0.62,0.698,2.162,1.869,3.051,2.154
						c0.889,0.285,2.824,0.23,3.735,0.022c2.446-0.556,6.909-3.366,8.533-5.278c2.242-2.64,5.284-12.805,5.284-12.805l-2.738-11.13
						l-7.192-3.941l-6.69,1.141L224.11,190.959z"/>
					<path style="fill:none;stroke:#263238;stroke-linecap:round;stroke-linejoin:round;stroke-miterlimit:10;" d="M231.565,197.955
						c0,0,0.446,2.886-1.51,4.708l1.27,2.455"/>
					<path style="fill:none;stroke:#263238;stroke-linecap:round;stroke-linejoin:round;stroke-miterlimit:10;" d="M228.354,207.507
						c0,0,3.014,1.751,5.24,0.31c0,0-0.822,3.557-2.813,3.31C228.79,210.88,228.354,207.507,228.354,207.507z"/>
					<path style="fill:#263238;" d="M229.537,198.169c-0.207,0.646-0.685,1.071-1.067,0.949c-0.382-0.123-0.524-0.746-0.316-1.393
						s0.685-1.071,1.067-0.949C229.603,196.899,229.744,197.523,229.537,198.169z"/>
					<path style="fill:none;stroke:#263238;stroke-linecap:round;stroke-linejoin:round;stroke-miterlimit:10;" d="M239.042,201.219
						c-1.781-1.471-3.542-1.136-3.542-1.136s0.994-1.917,3.602-0.884"/>
					<path style="fill:none;stroke:#263238;stroke-linecap:round;stroke-linejoin:round;stroke-miterlimit:10;" d="M231.002,195.13
						c0,0,0.104-1.24-2.206-1.981c-2.31-0.741-3.857,0.722-3.857,0.722"/>
					<path style="fill:none;stroke:#263238;stroke-linecap:round;stroke-linejoin:round;stroke-miterlimit:10;" d="M235.286,197.249
						c0.222,0.783,0.37-1.188,2.789-1.006c2.419,0.182,3.302,2.12,3.302,2.12"/>
					<path style="fill:#263238;stroke:#263238;stroke-linecap:round;stroke-linejoin:round;stroke-miterlimit:10;" d="
						M222.302,191.555c0,0,3.683,2.064,9.665-5.717c0,0,8.964,11.403,12.96,13.566c0,0-5.178,4.877-5.675,9.861
						c-0.497,4.984-0.317,8.776-3.113,9.245c0,0,14.368,3.771,15.238-11.307c0.87-15.079,0.855-16.406-6.693-24.486
						c-3.987-4.268-9.636-4.449-14.63-3.119c-4.461,1.188-8.399,3.39-10.164,8.024c-3.739,9.823-14.728,18.422-4.911,25.613
						c9.817,7.191,5.243-6.034,5.243-6.034s-1.956,3.12-2.432-0.208C217.101,202.165,222.8,198.966,222.302,191.555z"/>
					<path style="fill:#263238;stroke:#263238;stroke-linecap:round;stroke-linejoin:round;stroke-miterlimit:10;" d="
						M228.844,180.572c0,0-0.307-4.538,4.826-4.093C238.804,176.924,230.184,177.903,228.844,180.572z"/>
					<g>
						<g>
							<path style="fill:none;stroke:#7F7F7F;stroke-width:0.75;stroke-linecap:round;stroke-linejoin:round;" d="M223.188,193.477
								c0.06-0.657,0.072-1.35,0.022-2.084"/>
							<path style="fill:none;stroke:#7F7F7F;stroke-width:0.75;stroke-linecap:round;stroke-linejoin:round;" d="M218.698,206.831
								c-0.543-3.805,2.883-6.599,4.115-11.242"/>
							<path style="fill:none;stroke:#7F7F7F;stroke-width:0.75;stroke-linecap:round;stroke-linejoin:round;" d="M221.13,207.039
								c0,0-0.764,1.219-1.453,1.32"/>
						</g>
						<path style="fill:none;stroke:#7F7F7F;stroke-width:0.75;stroke-linecap:round;stroke-linejoin:round;" d="M221.356,209.323
							c0,0,0.475,1.828,0.356,3.431"/>
						<path style="fill:none;stroke:#7F7F7F;stroke-width:0.75;stroke-linecap:round;stroke-linejoin:round;" d="M238.949,212.753
							c0,0-0.116,3.038-0.774,4.047"/>
						<path style="fill:none;stroke:#7F7F7F;stroke-width:0.75;stroke-linecap:round;stroke-linejoin:round;" d="M248.032,199.901
							c-0.143,4.946,2.404,11.982-6.655,16.899"/>
						<path style="fill:none;stroke:#7F7F7F;stroke-width:0.75;stroke-linecap:round;stroke-linejoin:round;" d="M236.317,182.426
							c2.141,0.145,4.67,0.802,6.533,2.778c3.919,4.156,6.342,8.235,5.344,13.16"/>
						<path style="fill:none;stroke:#7F7F7F;stroke-width:0.75;stroke-linecap:round;stroke-linejoin:round;" d="M232.063,182.728
							c0,0,0.955-0.234,2.356-0.311"/>
					</g>
				</g>
			</g>
			<g>
				<g>
					
						<path id="XMLID_11_" style="fill:#263238;stroke:#263238;stroke-linecap:round;stroke-linejoin:round;stroke-miterlimit:10;" d="
						M308.997,163.186l-132.854-18.604c-4.123-0.577-6.998-4.388-6.42-8.511l10.968-78.328c0.577-4.123,4.388-6.998,8.511-6.42
						l132.854,18.604c4.123,0.577,6.998,4.388,6.42,8.511l-10.968,78.328C316.931,160.889,313.12,163.764,308.997,163.186z"/>
					<g>
						<defs>
							<path id="XMLID_10_" d="M309.213,162.526l-132.854-18.604c-4.123-0.577-6.998-4.388-6.42-8.511l10.968-78.328
								c0.577-4.123,4.388-6.998,8.511-6.42l132.854,18.604c4.123,0.577,6.998,4.388,6.42,8.511l-10.968,78.328
								C317.146,160.229,313.336,163.103,309.213,162.526z"/>
						</defs>
						<use xlink:href="#XMLID_10_"  style="overflow:visible;fill:#92E3A9;"/>
						<clipPath id="XMLID_00000047760693044864450430000004355046779835715461_">
							<use xlink:href="#XMLID_10_"  style="overflow:visible;"/>
						</clipPath>
						
							<polygon style="opacity:0.6;clip-path:url(#XMLID_00000047760693044864450430000004355046779835715461_);fill:#FFFFFF;" points="
							186.496,152.965 167.846,150.353 237.302,48.008 255.952,50.62 						"/>
						
							<polygon style="opacity:0.6;clip-path:url(#XMLID_00000047760693044864450430000004355046779835715461_);fill:#FFFFFF;" points="
							267.781,164.347 242.949,160.87 312.405,58.525 337.237,62.002 						"/>
						
							<polygon style="opacity:0.6;clip-path:url(#XMLID_00000047760693044864450430000004355046779835715461_);fill:#FFFFFF;" points="
							199.094,154.729 192.845,153.854 262.301,51.509 268.551,52.384 						"/>
						
							<use xlink:href="#XMLID_10_"  style="overflow:visible;fill:none;stroke:#263238;stroke-width:0.75;stroke-linecap:round;stroke-linejoin:round;stroke-miterlimit:10;"/>
					</g>
					<path style="fill:#263238;" d="M245.32,104.906c1.235,0.013,2.302-0.913,3.14-2.35l75.111,11.796l2.032-14.507l-75.377-8.643
						c-0.298-1.658-0.887-3.056-1.822-3.875c-3.158-2.765-14.628,0.101-19.366,1.446l-1.332-0.153
						c-0.126-0.199-0.278-0.38-0.454-0.539l6.212-31.251l-13.805-1.933l-3.187,31.432c-0.295,0.08-0.569,0.211-0.815,0.383
						l-2.394-0.488c-4.541-2.761-13.913-7.965-17.507-6.269c-0.864,0.408-1.625,1.203-2.269,2.234l-15.659-3.111l-2.048,14.629
						l15.964,1.619c0.444,1.228,1.149,2.106,2.149,2.38c1.955,0.536,5.189,0.228,8.651-0.254
						c-12.436,7.319-15.76,23.791-15.76,23.791l7.793-4.033l6.024,7.986c0.787-14.377,9.521-23.241,14.389-27.101l-7.873,50.135
						l12.516,1.753l5.851-51.03c0.002-0.001,0.004-0.002,0.006-0.004l0.31,0.049c3.532,4.695,10.236,15.981,6.891,30.691
						l7.986-6.024l6.386,6.018c0,0,1.274-16.068-8.019-26.55C241.486,104.143,243.716,104.889,245.32,104.906z"/>
					<polygon style="fill:#FFFFFF;stroke:#263238;stroke-linecap:round;stroke-linejoin:round;stroke-miterlimit:10;" points="
						178.085,77.233 176.076,91.58 218.519,95.739 323.861,112.282 325.872,97.917 219.915,85.768 					"/>
					<polygon style="fill:#FFFFFF;stroke:#263238;stroke-linecap:round;stroke-linejoin:round;stroke-miterlimit:10;" points="
						205.084,148.635 217.462,150.369 224.334,91.655 231.495,56.555 217.853,54.644 214.363,90.258 					"/>
					<path style="fill:#FFFFFF;stroke:#263238;stroke-linecap:round;stroke-linejoin:round;stroke-miterlimit:10;" d="
						M216.665,93.516c0,0-16.164,9.129-17.238,28.726l-5.893-7.813l-7.624,3.945c0,0,4.447-22.054,22.413-26.026L216.665,93.516z"/>
					<path style="fill:#FFFFFF;stroke:#263238;stroke-linecap:round;stroke-linejoin:round;stroke-miterlimit:10;" d="
						M222.137,94.282c0,0,13.035,13.218,8.684,32.355l7.813-5.893l6.247,5.887c0,0,1.782-22.428-14.402-31.181L222.137,94.282z"/>
					<path style="fill:#FFFFFF;stroke:#263238;stroke-linecap:round;stroke-linejoin:round;stroke-miterlimit:10;" d="
						M214.302,85.683c0,0-14.897-9.926-19.614-7.701c-4.717,2.226-6.359,16.122-1.824,17.365c4.535,1.243,16.099-2.151,21.015-1.462
						L214.302,85.683z"/>
					<path style="fill:#999999;stroke:#263238;stroke-linecap:round;stroke-linejoin:round;stroke-miterlimit:10;" d="
						M192.296,93.445c0.175,1.755,5.277,1.833,9.174,1.634c2.897-0.406,5.945-0.929,8.51-1.163
						C203.751,92.929,192.087,91.354,192.296,93.445z"/>
					<path style="fill:#FFFFFF;stroke:#263238;stroke-linecap:round;stroke-linejoin:round;stroke-miterlimit:10;" d="
						M225.22,87.212c0,0,17.05-5.453,20.974-2.017c3.924,3.436,1.686,17.249-3.016,17.198c-4.702-0.051-14.889-6.49-19.805-7.178
						L225.22,87.212z"/>
					<path style="fill:#999999;stroke:#263238;stroke-linecap:round;stroke-linejoin:round;stroke-miterlimit:10;" d="
						M244.248,100.72c-0.651,1.639-5.578,0.313-9.27-0.948c-2.674-1.187-5.462-2.526-7.863-3.456
						C233.375,97.077,245.023,98.767,244.248,100.72z"/>
					<path style="fill:#FFFFFF;stroke:#263238;stroke-linecap:round;stroke-linejoin:round;stroke-miterlimit:10;" d="
						M221.989,96.982l-7.148-1.001c-1.324-0.185-2.282-1.36-2.198-2.695l0.428-6.762c0.094-1.486,1.433-2.578,2.907-2.371
						l8.166,1.144c1.475,0.206,2.462,1.624,2.144,3.079l-1.446,6.619C224.557,96.301,223.313,97.168,221.989,96.982z"/>
				</g>
				<path style="fill:#FFFFFF;stroke:#263238;stroke-linecap:round;stroke-linejoin:round;stroke-miterlimit:10;" d="
					M188.189,148.406c0,0-1.912-2.784,2.494-4.869c3.314-1.568,2.375-3.56,4.512-3.325c2.167,0.239-2.81,5.462-2.137,7.362"/>
				<path style="fill:#FFFFFF;stroke:#263238;stroke-linecap:round;stroke-linejoin:round;stroke-miterlimit:10;" d="
					M296.815,164.39c0,0,2.884-1.935-0.494-5.448c-2.378-2.472,0.817-4.117-0.873-5.14c-2.262-1.369-1.504,6.487-2.838,7.998"/>
				<g>
					<path style="fill:#263238;" d="M285.645,146.537c-1.819-0.642-2.563-2.22-2.27-4.304l0.153-1.089l2.462,0.346l-0.176,1.255
						c-0.143,1.018,0.319,1.518,1.147,1.634c0.829,0.117,1.41-0.236,1.559-1.302c0.167-1.185-0.186-2.104-1.746-3.723
						c-1.894-1.981-2.443-3.411-2.19-5.211c0.283-2.012,1.406-3.303,3.287-3.45l0.203-1.444l2.131,0.299l-0.203,1.444
						c1.794,0.639,2.541,2.193,2.248,4.276l-0.067,0.474l-2.462-0.346l0.09-0.639c0.143-1.019-0.268-1.535-1.097-1.652
						c-0.827-0.116-1.365,0.266-1.501,1.237c-0.153,1.089,0.205,1.985,1.759,3.628c1.893,2.005,2.443,3.411,2.176,5.305
						c-0.299,2.131-1.472,3.439-3.373,3.559l-0.233,1.657l-2.131-0.299L285.645,146.537z"/>
					<path style="fill:#263238;" d="M292.854,143.904l0.183-1.302l2.462,0.346l-0.21,1.491c-0.166,1.184,0.294,1.683,1.124,1.8
						c0.829,0.117,1.41-0.236,1.576-1.42l0.522-3.718c0.166-1.184-0.291-1.707-1.12-1.824c-0.829-0.117-1.413,0.26-1.579,1.444
						l-0.02,0.142l-2.462-0.346l1.774-9.193l6.868,0.965l-0.333,2.369l-4.547-0.639l-0.77,3.924l0.048,0.007
						c0.584-0.714,1.377-1.037,2.42-0.891c1.917,0.269,2.699,1.756,2.356,4.195l-0.526,3.742c-0.373,2.652-1.912,3.981-4.469,3.622
						C293.593,148.258,292.481,146.556,292.854,143.904z"/>
					<path style="fill:#263238;" d="M302.211,145.219l1.225-8.714c0.373-2.652,1.984-3.971,4.54-3.612
						c2.559,0.36,3.742,2.071,3.369,4.724l-1.225,8.714c-0.373,2.652-1.982,3.972-4.54,3.612
						C303.024,149.583,301.839,147.871,302.211,145.219z M307.492,146.13l1.271-9.046c0.166-1.184-0.291-1.707-1.12-1.824
						c-0.829-0.117-1.413,0.26-1.579,1.444l-1.271,9.046c-0.166,1.184,0.291,1.706,1.12,1.823
						C306.742,147.69,307.326,147.314,307.492,146.13z"/>
				</g>
			</g>
		</g>
		<g>
			<g>
				<path style="fill:none;stroke:#263238;stroke-linecap:round;stroke-linejoin:round;stroke-miterlimit:10;" d="M279.365,207.413
					c0.529-0.486,1.071-0.976,1.627-1.471"/>
				<path style="fill:none;stroke:#263238;stroke-linecap:round;stroke-linejoin:round;stroke-miterlimit:10;" d="M261.332,229.939
					c2.636-5.568,7.612-12.734,16.801-21.382"/>
				<path style="fill:none;stroke:#263238;stroke-linecap:round;stroke-linejoin:round;stroke-miterlimit:10;" d="M259.595,234.345
					c0.238-0.764,0.525-1.573,0.868-2.424"/>
				<path style="fill:none;stroke:#263238;stroke-linecap:round;stroke-linejoin:round;stroke-miterlimit:10;" d="M258.997,243.944
					c0,0-0.594-1.434-0.435-4.22"/>
			</g>
			<g>
				
					<line style="fill:none;stroke:#263238;stroke-linecap:round;stroke-linejoin:round;stroke-miterlimit:10;" x1="207" y1="386.057" x2="207" y2="392.981"/>
				
					<line style="fill:none;stroke:#263238;stroke-linecap:round;stroke-linejoin:round;stroke-miterlimit:10;" x1="207" y1="376.445" x2="207" y2="383.625"/>
				
					<line style="fill:none;stroke:#263238;stroke-linecap:round;stroke-linejoin:round;stroke-miterlimit:10;" x1="207" y1="371.28" x2="207" y2="374.28"/>
			</g>
			<g>
				
					<line style="fill:none;stroke:#263238;stroke-linecap:round;stroke-linejoin:round;stroke-miterlimit:10;" x1="215.603" y1="400.938" x2="215.603" y2="404.102"/>
				
					<line style="fill:none;stroke:#263238;stroke-linecap:round;stroke-linejoin:round;stroke-miterlimit:10;" x1="215.603" y1="386.25" x2="215.603" y2="398.724"/>
				
					<line style="fill:none;stroke:#263238;stroke-linecap:round;stroke-linejoin:round;stroke-miterlimit:10;" x1="215.603" y1="380.402" x2="215.603" y2="383.625"/>
			</g>
			<g>
				<path style="fill:none;stroke:#263238;stroke-linecap:round;stroke-linejoin:round;stroke-miterlimit:10;" d="M287.511,367.354
					c0.506-0.247,1.017-0.501,1.534-0.761"/>
				<path style="fill:none;stroke:#263238;stroke-linecap:round;stroke-linejoin:round;stroke-miterlimit:10;" d="M270.673,373.68
					c4.441-1.085,9.498-2.868,15.251-5.567"/>
				<path style="fill:none;stroke:#263238;stroke-linecap:round;stroke-linejoin:round;stroke-miterlimit:10;" d="M244.361,369.665
					c3.78,3.455,10.791,6.924,23.082,4.703"/>
				<path style="fill:none;stroke:#263238;stroke-linecap:round;stroke-linejoin:round;stroke-miterlimit:10;" d="M240.441,364.316
					c0,0,0.523,1.412,1.935,3.213"/>
			</g>
			<g>
				
					<line style="fill:none;stroke:#263238;stroke-linecap:round;stroke-linejoin:round;stroke-miterlimit:10;" x1="259.002" y1="161.23" x2="262.645" y2="161.704"/>
				
					<line style="fill:none;stroke:#263238;stroke-linecap:round;stroke-linejoin:round;stroke-miterlimit:10;" x1="231.609" y1="157.669" x2="255.127" y2="160.726"/>
				
					<line style="fill:none;stroke:#263238;stroke-linecap:round;stroke-linejoin:round;stroke-miterlimit:10;" x1="221.304" y1="156.33" x2="226.515" y2="157.007"/>
			</g>
			<g>
				
					<line style="fill:none;stroke:#263238;stroke-linecap:round;stroke-linejoin:round;stroke-miterlimit:10;" x1="253.813" y1="55.118" x2="250.17" y2="54.644"/>
				
					<line style="fill:none;stroke:#263238;stroke-linecap:round;stroke-linejoin:round;stroke-miterlimit:10;" x1="281.207" y1="58.678" x2="257.688" y2="55.621"/>
				
					<line style="fill:none;stroke:#263238;stroke-linecap:round;stroke-linejoin:round;stroke-miterlimit:10;" x1="291.512" y1="60.018" x2="286.301" y2="59.34"/>
			</g>
		</g>
	</g>
</g>
</svg>
