<?xml version="1.0" encoding="utf-8"?>
<!-- Generator: Adobe Illustrator 27.5.0, SVG Export Plug-In . SVG Version: 6.00 Build 0)  -->
<svg version="1.1" xmlns="http://www.w3.org/2000/svg" xmlns:xlink="http://www.w3.org/1999/xlink" x="0px" y="0px"
	 viewBox="0 0 500 500" style="enable-background:new 0 0 500 500;" xml:space="preserve">
<g id="Background_Simple">
	<g>
		<path style="fill:#92E3A9;" d="M472.436,239.961C457.306,166.782,409.4,104.582,342.4,71.492
			C335.372,68.021,327.913,64.517,320,61c-99-44-156-6-185,38S70,219,47,256s-53,115,5,169s113,36,151,21s76-2,146-2s128-54,132-121
			C482.464,298.478,478.302,268.331,472.436,239.961z"/>
		<path style="opacity:0.7;fill:#FFFFFF;" d="M472.436,239.961C457.306,166.782,409.4,104.582,342.4,71.492
			C335.372,68.021,327.913,64.517,320,61c-99-44-156-6-185,38S70,219,47,256s-53,115,5,169s113,36,151,21s76-2,146-2s128-54,132-121
			C482.464,298.478,478.302,268.331,472.436,239.961z"/>
	</g>
</g>
<g id="Lock">
	<g>
		<g>
			<path style="fill:none;stroke:#263238;stroke-linecap:round;stroke-linejoin:round;stroke-miterlimit:10;" d="M355.826,256.797
				c-12.135-42.972-51.636-74.464-98.493-74.464c-40.112,0-74.833,23.078-91.611,56.681"/>
			<path style="fill:none;stroke:#263238;stroke-linecap:round;stroke-linejoin:round;stroke-miterlimit:10;" d="M359.645,282.548
				c-0.099-4.895-0.543-9.706-1.306-14.41"/>
			<path style="fill:none;stroke:#263238;stroke-linecap:round;stroke-linejoin:round;stroke-miterlimit:10;" d="M170.373,338.638
				C188.431,367.672,220.625,387,257.333,387c52.661,0,96.031-39.777,101.705-90.925"/>
			<path style="fill:none;stroke:#263238;stroke-linecap:round;stroke-linejoin:round;stroke-miterlimit:10;" d="M163.881,326.428
				c0.992,2.216,2.059,4.389,3.201,6.518"/>
			<path style="fill:none;stroke:#263238;stroke-linecap:round;stroke-linejoin:round;stroke-miterlimit:10;" d="M162.005,247.381
				c-4.522,11.553-7.005,24.13-7.005,37.286c0,12.062,2.087,23.636,5.919,34.382"/>
			<path style="fill:none;stroke:#263238;stroke-linecap:round;stroke-linejoin:round;stroke-miterlimit:10;" d="M328.035,305.376
				c0.977-3.346,1.723-6.791,2.221-10.316l-4.867-0.512c-1.373-0.145-2.369-1.375-2.225-2.748c0.145-1.372,1.37-2.374,2.748-2.225
				l4.868,0.512c0.13-1.792,0.22-3.595,0.22-5.42c0-7.019-1.003-13.801-2.836-20.231l-5.003,1.625
				c-0.257,0.083-0.517,0.123-0.773,0.123c-1.054,0-2.033-0.672-2.377-1.728c-0.427-1.314,0.292-2.724,1.605-3.15l5.027-1.633
				c-2.984-8.274-7.411-15.853-12.972-22.449l-4.132,3.72c-0.478,0.43-1.076,0.642-1.672,0.642c-0.685,0-1.365-0.279-1.858-0.827
				c-0.925-1.026-0.842-2.607,0.185-3.531l4.124-3.713c-6.039-6.254-13.161-11.454-21.084-15.266l-2.354,5.288
				c-0.415,0.931-1.328,1.484-2.285,1.484c-0.34,0-0.686-0.069-1.016-0.217c-1.262-0.562-1.829-2.039-1.268-3.3l2.337-5.249
				c-7.932-3.17-16.539-4.996-25.551-5.208v5.807c0,1.381-1.119,2.5-2.5,2.5c-1.381,0-2.5-1.119-2.5-2.5v-5.769
				c-8.99,0.389-17.565,2.377-25.438,5.707l2.34,5.255c0.562,1.262-0.005,2.739-1.267,3.301c-0.33,0.148-0.676,0.217-1.016,0.217
				c-0.958,0-1.871-0.553-2.285-1.483l-2.3-5.166c-7.828,3.961-14.853,9.27-20.766,15.635l4.077,3.671
				c1.026,0.924,1.109,2.505,0.185,3.531c-0.494,0.548-1.175,0.827-1.859,0.827c-0.596,0-1.194-0.212-1.672-0.642l-4.011-3.612
				c-5.417,6.684-9.678,14.335-12.502,22.654l4.917,1.598c1.314,0.427,2.032,1.838,1.605,3.15c-0.343,1.057-1.323,1.728-2.377,1.728
				c-0.256,0-0.517-0.04-0.773-0.123l-4.827-1.569c-1.598,6.035-2.46,12.369-2.46,18.906c0,2.272,0.118,4.516,0.32,6.736
				l4.769-0.501c1.372-0.153,2.603,0.852,2.747,2.225c0.145,1.373-0.852,2.603-2.225,2.748l-4.677,0.492
				c1.381,8.653,4.273,16.799,8.39,24.169l3.865-2.232c1.196-0.692,2.725-0.281,3.415,0.915c0.69,1.195,0.281,2.725-0.915,3.415
				l-3.776,2.181c4.67,7.169,10.544,13.479,17.351,18.629l2.472-3.402c0.812-1.116,2.376-1.362,3.492-0.553
				c1.117,0.811,1.365,2.375,0.553,3.492l-2.424,3.336c7.03,4.606,14.893,8.036,23.316,10.026l0.847-3.986
				c0.287-1.352,1.619-2.213,2.965-1.926c1.351,0.287,2.213,1.614,1.926,2.965l-0.836,3.934c3.936,0.65,7.971,1.005,12.09,1.005
				c4.533,0,8.963-0.431,13.27-1.215l-0.85-4.001c-0.287-1.351,0.575-2.678,1.926-2.965c1.343-0.287,2.678,0.574,2.965,1.926
				l0.849,3.994c8.392-2.128,16.209-5.693,23.173-10.423l-2.509-3.453c-0.811-1.117-0.564-2.681,0.553-3.492
				c1.118-0.811,2.68-0.564,3.492,0.553l2.493,3.431c6.729-5.268,12.517-11.675,17.074-18.939l-3.932-2.27
				c-1.195-0.69-1.605-2.22-0.915-3.415c0.69-1.196,2.222-1.605,3.415-0.915l3.952,2.281c1.612-3.006,3.021-6.138,4.208-9.376"/>
			<path style="fill:none;stroke:#263238;stroke-linecap:round;stroke-linejoin:round;stroke-miterlimit:10;" d="M214.569,260.727
				c-3.971,7.079-6.236,15.245-6.236,23.939c0,27.062,21.938,49,49,49c27.062,0,49-21.938,49-49c0-27.062-21.938-49-49-49
				c-15.47,0-29.266,7.169-38.246,18.367"/>
		</g>
		<path style="fill:none;stroke:#263238;stroke-linecap:round;stroke-linejoin:round;stroke-miterlimit:10;" d="M204.209,116.914
			c7.743-21.871,28.634-37.58,53.124-37.58c31.063,0,56.334,25.271,56.334,56.333v27.205"/>
		<path style="fill:none;stroke:#263238;stroke-linecap:round;stroke-linejoin:round;stroke-miterlimit:10;" d="M331.667,203.104
			v-67.437c0-40.987-33.346-74.333-74.334-74.333c-40.987,0-74.333,33.346-74.333,74.333v78.673c5.391-5.696,11.431-10.77,18-15.11
			v-63.563c0-4.133,0.447-8.163,1.296-12.044"/>
		<path style="fill:none;stroke:#263238;stroke-linecap:round;stroke-linejoin:round;stroke-miterlimit:10;" d="M313.667,172.799
			v26.431c6.569,4.34,12.609,9.414,18,15.11v-7.056"/>
	</g>
</g>
<g id="Password">
	<g>
		<path style="fill:#263238;stroke:#263238;stroke-linecap:round;stroke-linejoin:round;stroke-miterlimit:10;" d="M326.667,440.333
			H188c-7.548,0-13.667-6.119-13.667-13.667l0,0c0-7.548,6.119-13.667,13.667-13.667h138.667c7.548,0,13.667,6.119,13.667,13.667
			l0,0C340.333,434.215,334.215,440.333,326.667,440.333z"/>
		<g>
			<path style="fill:#92E3A9;" d="M192.852,425.172l-1.28-8.124h4.432l-1.28,8.124l7.337-3.692l1.378,4.186l-8.075,1.378
				l5.761,5.762l-3.545,2.609l-3.792-7.287l-3.791,7.287l-3.545-2.609l5.761-5.762l-8.075-1.378l1.379-4.186L192.852,425.172z"/>
		</g>
		<g>
			<path style="fill:#92E3A9;" d="M224.731,425.172l-1.28-8.124h4.432l-1.28,8.124l7.337-3.692l1.378,4.186l-8.075,1.378
				l5.761,5.762l-3.545,2.609l-3.792-7.287l-3.791,7.287l-3.545-2.609l5.761-5.762l-8.075-1.378l1.378-4.186L224.731,425.172z"/>
		</g>
		<g>
			<path style="fill:#92E3A9;" d="M256.61,425.172l-1.28-8.124h4.432l-1.28,8.124l7.337-3.692l1.378,4.186l-8.075,1.378l5.761,5.762
				l-3.545,2.609l-3.792-7.287l-3.791,7.287l-3.545-2.609l5.761-5.762l-8.075-1.378l1.378-4.186L256.61,425.172z"/>
		</g>
		<g>
			<path style="fill:#92E3A9;" d="M288.489,425.172l-1.28-8.124h4.432l-1.28,8.124l7.337-3.692l1.378,4.186L291,427.043l5.761,5.762
				l-3.545,2.609l-3.792-7.287l-3.792,7.287l-3.545-2.609l5.761-5.762l-8.075-1.378l1.378-4.186L288.489,425.172z"/>
		</g>
		<g>
			<path style="fill:#92E3A9;" d="M320.367,425.172l-1.28-8.124h4.432l-1.28,8.124l7.337-3.692l1.378,4.186l-8.075,1.378
				l5.761,5.762l-3.545,2.609l-3.792-7.287l-3.792,7.287l-3.545-2.609l5.761-5.762l-8.075-1.378l1.378-4.186L320.367,425.172z"/>
		</g>
	</g>
</g>
<g id="GPS">
	<g>
		<g>
			
				<line style="fill:none;stroke:#263238;stroke-linecap:round;stroke-linejoin:round;stroke-miterlimit:10;" x1="417.944" y1="393.221" x2="381.498" y2="393.221"/>
			<path style="fill:none;stroke:#263238;stroke-linecap:round;stroke-linejoin:round;stroke-miterlimit:10;" d="M426.615,325.013
				v22.885c0,5.019,4.069,9.087,9.087,9.087h2.253c4.921,0,8.909,3.989,8.909,8.909v16.774c0,5.828-4.725,10.553-10.553,10.553
				h-13.089"/>
			<path style="fill:none;stroke:#263238;stroke-linecap:round;stroke-linejoin:round;stroke-miterlimit:10;" d="M426.26,339.934
				h3.472c5.538,0,10.028-4.49,10.028-10.028v-5.958"/>
			<path style="fill:none;stroke:#263238;stroke-linecap:round;stroke-linejoin:round;stroke-miterlimit:10;" d="M406.366,324.658
				v7.105h3.892c5.895,0,10.674,4.779,10.674,10.674v1.405h4.974"/>
			
				<line style="fill:none;stroke:#263238;stroke-linecap:round;stroke-linejoin:round;stroke-miterlimit:10;" x1="392.138" y1="331.763" x2="383.985" y2="331.763"/>
			
				<line style="fill:none;stroke:#263238;stroke-linecap:round;stroke-linejoin:round;stroke-miterlimit:10;" x1="406.366" y1="331.763" x2="397.416" y2="331.763"/>
			
				<line style="fill:none;stroke:#263238;stroke-linecap:round;stroke-linejoin:round;stroke-miterlimit:10;" x1="435.141" y1="393.577" x2="435.141" y2="414.335"/>
			
				<line style="fill:none;stroke:#263238;stroke-linecap:round;stroke-linejoin:round;stroke-miterlimit:10;" x1="447.575" y1="374.038" x2="458.588" y2="374.038"/>
			<polyline style="fill:none;stroke:#263238;stroke-linecap:round;stroke-linejoin:round;stroke-miterlimit:10;" points="
				453.614,374.038 453.614,366.222 459.298,366.222 			"/>
			
				<line style="fill:none;stroke:#263238;stroke-linecap:round;stroke-linejoin:round;stroke-miterlimit:10;" x1="454.894" y1="342.42" x2="460.009" y2="342.42"/>
			<polyline style="fill:none;stroke:#263238;stroke-linecap:round;stroke-linejoin:round;stroke-miterlimit:10;" points="
				442.957,359.23 442.957,342.42 449.616,342.42 			"/>
			<path style="fill:none;stroke:#263238;stroke-linecap:round;stroke-linejoin:round;stroke-miterlimit:10;" d="M382.919,404.945
				l10.302-7.46h23.091c4.12,0,7.46,3.34,7.46,7.46v8.785"/>
			
				<line style="fill:none;stroke:#263238;stroke-linecap:round;stroke-linejoin:round;stroke-miterlimit:10;" x1="454.906" y1="389.792" x2="454.906" y2="413.124"/>
			<polyline style="fill:none;stroke:#263238;stroke-linecap:round;stroke-linejoin:round;stroke-miterlimit:10;" points="
				430.848,382.669 446.865,382.669 454.906,382.669 454.906,384.513 			"/>
			
				<line style="fill:none;stroke:#263238;stroke-linecap:round;stroke-linejoin:round;stroke-miterlimit:10;" x1="381.03" y1="382.669" x2="426.155" y2="382.669"/>
			<path style="fill:none;stroke:#263238;stroke-linecap:round;stroke-linejoin:round;stroke-miterlimit:10;" d="M439.162,382.846
				l-1.519-3.472c-1.652-3.777-5.384-6.217-9.506-6.217h-41.052v19.377"/>
			
				<line style="fill:none;stroke:#263238;stroke-linecap:round;stroke-linejoin:round;stroke-miterlimit:10;" x1="460.356" y1="401.013" x2="422.813" y2="401.013"/>
			<path style="fill:none;stroke:#263238;stroke-linecap:round;stroke-linejoin:round;stroke-miterlimit:10;" d="M438.557,365.891
				c0-2.007-1.627-3.633-3.633-3.633s-3.633,1.627-3.633,3.633c0,2.007,1.627,3.633,3.633,3.633S438.557,367.898,438.557,365.891z"
				/>
			
				<rect x="392.535" y="404.041" style="fill:none;stroke:#263238;stroke-linecap:round;stroke-linejoin:round;stroke-miterlimit:10;" width="22.405" height="6.661"/>
		</g>
		<path style="fill:#263238;stroke:#263238;stroke-linecap:round;stroke-linejoin:round;stroke-miterlimit:10;" d="M406.771,339.282
			c-9.801,0-17.747,7.945-17.747,17.747c0,9.801,17.747,31.871,17.747,31.871s17.747-22.07,17.747-31.871
			C424.518,347.228,416.573,339.282,406.771,339.282z M406.771,363.186c-3.4,0-6.157-2.757-6.157-6.157
			c0-3.4,2.757-6.157,6.157-6.157s6.157,2.757,6.157,6.157C412.928,360.429,410.172,363.186,406.771,363.186z"/>
		<path style="fill:#92E3A9;stroke:#263238;stroke-linecap:round;stroke-linejoin:round;stroke-miterlimit:10;" d="M403.138,336.86
			c-9.801,0-17.746,7.945-17.746,17.747c0,9.801,17.746,31.871,17.746,31.871s17.747-22.07,17.747-31.871
			C420.885,344.806,412.939,336.86,403.138,336.86z M403.138,360.764c-3.4,0-6.157-2.757-6.157-6.157c0-3.4,2.757-6.157,6.157-6.157
			c3.4,0,6.157,2.757,6.157,6.157C409.295,358.007,406.539,360.764,403.138,360.764z"/>
	</g>
</g>
<g id="Documents">
	<g>
		<polygon style="fill:#263238;stroke:#263238;stroke-linecap:round;stroke-linejoin:round;stroke-miterlimit:10;" points="
			464.647,299 475.941,247.235 448.647,247.235 		"/>
		<g>
			
				<rect x="400.104" y="203.103" style="fill:#FFFFFF;stroke:#263238;stroke-linecap:round;stroke-linejoin:round;stroke-miterlimit:10;" width="66.353" height="72.471"/>
			
				<rect x="395" y="198.765" style="fill:#FFFFFF;stroke:#263238;stroke-linecap:round;stroke-linejoin:round;stroke-miterlimit:10;" width="66.353" height="72.471"/>
			
				<rect x="399.706" y="207.126" style="fill:#FFFFFF;stroke:#263238;stroke-linecap:round;stroke-linejoin:round;stroke-miterlimit:10;" width="16.941" height="18.462"/>
			
				<line style="fill:none;stroke:#263238;stroke-linecap:round;stroke-linejoin:round;stroke-miterlimit:10;" x1="436.713" y1="207.706" x2="454.294" y2="207.706"/>
			
				<line style="fill:none;stroke:#263238;stroke-linecap:round;stroke-linejoin:round;stroke-miterlimit:10;" x1="422.765" y1="207.706" x2="432.607" y2="207.706"/>
			
				<line style="fill:none;stroke:#263238;stroke-linecap:round;stroke-linejoin:round;stroke-miterlimit:10;" x1="447.856" y1="214.294" x2="454.294" y2="214.294"/>
			
				<line style="fill:none;stroke:#263238;stroke-linecap:round;stroke-linejoin:round;stroke-miterlimit:10;" x1="422.765" y1="214.294" x2="444.337" y2="214.294"/>
			
				<line style="fill:none;stroke:#263238;stroke-linecap:round;stroke-linejoin:round;stroke-miterlimit:10;" x1="436.126" y1="220.882" x2="454.294" y2="220.882"/>
			
				<line style="fill:none;stroke:#263238;stroke-linecap:round;stroke-linejoin:round;stroke-miterlimit:10;" x1="422.765" y1="220.882" x2="430.848" y2="220.882"/>
			
				<line style="fill:none;stroke:#263238;stroke-linecap:round;stroke-linejoin:round;stroke-miterlimit:10;" x1="440.818" y1="227.471" x2="454.294" y2="227.471"/>
			
				<line style="fill:none;stroke:#263238;stroke-linecap:round;stroke-linejoin:round;stroke-miterlimit:10;" x1="422.765" y1="227.471" x2="434.367" y2="227.471"/>
			
				<line style="fill:none;stroke:#263238;stroke-linecap:round;stroke-linejoin:round;stroke-miterlimit:10;" x1="447.856" y1="234.059" x2="454.294" y2="234.059"/>
			
				<line style="fill:none;stroke:#263238;stroke-linecap:round;stroke-linejoin:round;stroke-miterlimit:10;" x1="430.261" y1="234.059" x2="441.405" y2="234.059"/>
			
				<line style="fill:none;stroke:#263238;stroke-linecap:round;stroke-linejoin:round;stroke-miterlimit:10;" x1="422.765" y1="234.059" x2="427.396" y2="234.059"/>
			<g>
				
					<circle style="fill:#263238;stroke:#263238;stroke-linecap:round;stroke-linejoin:round;stroke-miterlimit:10;" cx="408.291" cy="214.008" r="4.289"/>
				<path style="fill:#263238;stroke:#263238;stroke-linecap:round;stroke-linejoin:round;stroke-miterlimit:10;" d="
					M414.427,221.688c-0.772-1.357-2.214-2.195-3.775-2.195h-4.397c-1.412,0-2.737,0.687-3.551,1.841l-2.998,4.254h16.941
					L414.427,221.688z"/>
			</g>
		</g>
		<polygon style="fill:#92E3A9;stroke:#263238;stroke-linecap:round;stroke-linejoin:round;stroke-miterlimit:10;" points="
			385.588,235.941 396.412,299 464.647,299 458.059,241.588 419.471,241.588 414.294,235.471 		"/>
		<path style="fill:#263238;stroke:#263238;stroke-linecap:round;stroke-linejoin:round;stroke-miterlimit:10;" d="M429.24,262.294
			c-0.25-3.119-2.98-5.647-6.099-5.647c-3.119,0-5.445,2.528-5.195,5.647c0.163,2.037,1.387,3.816,3.083,4.81l-0.288,15.426h8.471
			l-2.712-15.178C428.288,266.428,429.417,264.513,429.24,262.294z"/>
	</g>
</g>
<g id="Fingerprint">
	<g>
		<path style="fill:#263238;" d="M458.906,123.349c0.118,0.42,0.5,0.694,0.915,0.694c0.086,0,0.172-0.012,0.259-0.036
			c0.506-0.143,0.8-0.669,0.658-1.174c-0.732-2.593-1.81-4.989-3.207-7.124c-0.288-0.439-0.877-0.563-1.318-0.275
			c-0.44,0.288-0.563,0.878-0.275,1.318C457.229,118.724,458.228,120.943,458.906,123.349z"/>
		<path style="fill:#263238;" d="M407.354,114.367c0.172,0.132,0.375,0.195,0.576,0.195c0.287,0,0.57-0.129,0.757-0.374
			c0.084-0.11,8.625-11.024,24.089-9.361c9.138,0.984,16.11,3.957,20.723,8.837c0.36,0.382,0.963,0.399,1.345,0.038
			c0.382-0.361,0.399-0.963,0.038-1.345c-4.933-5.218-12.302-8.387-21.902-9.421c-16.56-1.783-25.438,9.614-25.807,10.1
			C406.856,113.452,406.937,114.049,407.354,114.367z"/>
		<path style="fill:#263238;" d="M460.994,129.639c-5.006-0.927-7.168-6.038-8.906-10.146c-0.394-0.932-0.767-1.813-1.143-2.566
			c-2.223-4.446-11.726-9.021-20.641-8.257c-3.77,0.323-16.463,2.383-21.512,15.321c-2.249,5.764-2.326,12.12-1.994,16.438
			c0.038,0.499,0.456,0.879,0.948,0.879c0.024,0,0.049-0.001,0.074-0.003c0.524-0.04,0.916-0.498,0.876-1.022
			c-0.317-4.12-0.25-10.171,1.869-15.6c4.649-11.915,16.408-13.817,19.901-14.117c8.74-0.75,17.092,3.844,18.776,7.211
			c0.35,0.699,0.711,1.553,1.093,2.456c1.814,4.289,4.299,10.162,10.313,11.276c0.514,0.092,1.013-0.246,1.109-0.763
			C461.852,130.232,461.51,129.735,460.994,129.639z"/>
		<path style="fill:#263238;" d="M408.679,147.743c0.075,0,0.151-0.009,0.227-0.027c0.51-0.125,0.823-0.64,0.698-1.15
			c-0.003-0.01-0.247-1.017-0.496-2.659c-0.079-0.52-0.562-0.877-1.084-0.798c-0.52,0.079-0.877,0.564-0.798,1.084
			c0.264,1.734,0.519,2.782,0.529,2.825C407.862,147.452,408.251,147.743,408.679,147.743z"/>
		<path style="fill:#263238;" d="M460.637,137.543l-10.155-7.495c-0.1-0.542-0.355-1.54-0.992-3.291
			c-1.04-2.861-5.446-10.52-13.238-11.595c-4.724-0.652-9.483-0.042-13.402,1.717c-0.48,0.215-0.694,0.779-0.479,1.258
			c0.215,0.48,0.779,0.694,1.258,0.479c3.598-1.615,7.988-2.172,12.362-1.568c6.825,0.941,10.841,7.971,11.71,10.359
			c0.879,2.417,0.939,3.167,0.94,3.167c0,0.302,0.143,0.586,0.387,0.766l10.478,7.734c0.17,0.126,0.368,0.186,0.564,0.186
			c0.292,0,0.58-0.134,0.767-0.387C461.15,138.451,461.06,137.855,460.637,137.543z"/>
		<path style="fill:#263238;" d="M415.58,143.777c-1.649-5.566-2.707-13.537,1.621-19.901c0.973-1.431,2.211-2.678,3.679-3.706
			c0.431-0.301,0.535-0.895,0.234-1.326c-0.301-0.43-0.895-0.535-1.326-0.234c-1.658,1.161-3.058,2.572-4.161,4.195
			c-3.757,5.525-4.405,12.964-1.872,21.512c1.719,5.803-6.576,9.036-6.66,9.068c-0.491,0.186-0.738,0.735-0.553,1.227
			c0.144,0.381,0.506,0.615,0.891,0.615c0.112,0,0.226-0.02,0.337-0.062C411.248,153.85,417.357,149.775,415.58,143.777z"/>
		<path style="fill:#263238;" d="M459.847,144.749c-0.101-0.066-10.131-6.696-13.239-10.76c-1.746-2.282-1.936-3.057-2.138-3.878
			c-0.176-0.714-0.375-1.524-1.3-3.028c-2.034-3.305-6.839-6.774-13.684-5.68c-6.594,1.055-10.531,6.163-10.531,13.663
			c0,3.096,0.238,5.767,0.469,8.351c0.286,3.211,0.557,6.244,0.283,9.533c-0.434,5.21-7.639,7.107-7.764,7.139
			c-0.51,0.128-0.82,0.644-0.693,1.154c0.108,0.433,0.496,0.721,0.923,0.721c0.076,0,0.154-0.009,0.231-0.029
			c0.353-0.088,8.651-2.237,9.2-8.828c0.288-3.452,0.01-6.564-0.284-9.86c-0.227-2.542-0.461-5.171-0.461-8.182
			c0-6.581,3.254-10.876,8.928-11.783c5.921-0.948,10.036,1.992,11.763,4.798c0.769,1.25,0.917,1.85,1.073,2.485
			c0.24,0.974,0.487,1.981,2.474,4.58c3.303,4.32,13.281,10.915,13.704,11.194c0.439,0.289,1.029,0.167,1.319-0.271
			C460.407,145.628,460.286,145.038,459.847,144.749z"/>
		<path style="fill:#263238;" d="M431.377,145.199l-0.478-0.596c-3.675-4.578-5.7-7.099-2.695-12.035
			c1.046-1.719,2.223-2.569,3.48-2.511c1.854,0.077,4.046,2.113,5.582,5.186c0.869,1.737,3.129,4.43,6.91,8.233
			c0.371,0.373,0.973,0.374,1.346,0.004c0.373-0.371,0.375-0.973,0.004-1.346c-4.466-4.492-6.031-6.69-6.558-7.743
			c-1.898-3.796-4.592-6.128-7.206-6.236c-1.385-0.057-3.401,0.49-5.186,3.423c-3.699,6.076-0.957,9.491,2.837,14.217l0.476,0.594
			c4.008,5.009,17.528,16.135,18.102,16.606c0.177,0.145,0.391,0.216,0.604,0.216c0.275,0,0.548-0.118,0.736-0.348
			c0.334-0.406,0.275-1.006-0.131-1.34C449.061,161.41,435.261,150.054,431.377,145.199z"/>
		<path style="fill:#263238;" d="M449.054,145.575c-0.381-0.363-0.983-0.347-1.345,0.034c-0.362,0.381-0.347,0.983,0.034,1.345
			c4.005,3.809,7.676,7.01,7.713,7.042c0.18,0.157,0.403,0.234,0.625,0.234c0.266,0,0.53-0.111,0.718-0.327
			c0.345-0.396,0.304-0.997-0.093-1.343C456.669,152.528,453.028,149.353,449.054,145.575z"/>
		<path style="fill:#263238;" d="M452.926,156.77c-0.126-0.099-12.665-9.952-15.798-14.049c-3.088-4.038-4.322-8.132-4.334-8.173
			c-0.149-0.504-0.677-0.792-1.182-0.643c-0.504,0.149-0.792,0.677-0.644,1.181c0.053,0.18,1.335,4.46,4.648,8.792
			c3.279,4.288,15.612,13.98,16.135,14.391c0.174,0.137,0.381,0.203,0.587,0.203c0.282,0,0.562-0.125,0.75-0.364
			C453.411,157.693,453.339,157.094,452.926,156.77z"/>
		<path style="fill:#263238;" d="M432.13,160.451c-3.6,2.215-4.406,9.386-4.439,9.69c-0.056,0.523,0.322,0.992,0.845,1.048
			c0.034,0.004,0.069,0.005,0.102,0.005c0.48,0,0.893-0.362,0.945-0.85c0.194-1.814,1.21-6.836,3.544-8.272
			c1.909-1.176,6.045,2.715,7.747,4.783c0.333,0.406,0.934,0.464,1.34,0.131c0.406-0.334,0.465-0.933,0.131-1.339
			C441.705,164.866,435.972,158.086,432.13,160.451z"/>
		<path style="fill:#263238;" d="M425.404,149.364c-0.508,0.133-0.812,0.652-0.68,1.16c0.012,0.045,1.136,4.517-0.711,9.136
			c-1.801,4.502-5.287,5.891-5.441,5.95c-0.49,0.186-0.738,0.733-0.554,1.224c0.143,0.382,0.506,0.618,0.891,0.618
			c0.111,0,0.224-0.02,0.334-0.061c0.179-0.067,4.41-1.706,6.537-7.024c2.088-5.221,0.839-10.119,0.785-10.325
			C426.431,149.534,425.913,149.231,425.404,149.364z"/>
		<path style="fill:#263238;" d="M422.341,99.925c5.886-1.422,14.807-2.302,23.885,1.588c0.122,0.052,0.249,0.077,0.374,0.077
			c0.369,0,0.721-0.216,0.875-0.577c0.207-0.483-0.017-1.043-0.5-1.25c-9.558-4.096-18.916-3.179-25.081-1.688
			c-0.511,0.123-0.825,0.638-0.702,1.149C421.315,99.734,421.829,100.049,422.341,99.925z"/>
		<path style="fill:#263238;" d="M415.666,102.089c0.137,0,0.275-0.029,0.407-0.092c0.009-0.004,0.915-0.431,2.479-0.969
			c0.497-0.171,0.761-0.713,0.59-1.21c-0.171-0.497-0.712-0.762-1.21-0.59c-1.675,0.576-2.636,1.031-2.676,1.05
			c-0.475,0.226-0.676,0.793-0.451,1.268C414.968,101.888,415.31,102.089,415.666,102.089z"/>
	</g>
</g>
<g id="Email">
	<g>
		<g>
			<path style="fill:#FFFFFF;stroke:#263238;stroke-linecap:round;stroke-linejoin:round;stroke-miterlimit:10;" d="
				M109.177,377.671H49.744c-3.239,0-5.865-2.626-5.865-5.865v-34.409c0-3.239,2.626-5.865,5.865-5.865h59.433
				c3.239,0,5.865,2.626,5.865,5.865v34.409C115.042,375.045,112.416,377.671,109.177,377.671z"/>
			<path style="fill:none;stroke:#263238;stroke-linecap:round;stroke-linejoin:round;stroke-miterlimit:10;" d="M53.876,343.065
				l23.363,13.247c2.807,1.592,6.267,1.49,8.976-0.263l28.827-18.653"/>
			
				<line style="fill:none;stroke:#263238;stroke-linecap:round;stroke-linejoin:round;stroke-miterlimit:10;" x1="43.879" y1="337.397" x2="49.955" y2="340.842"/>
		</g>
		<g>
			<path style="fill:#92E3A9;stroke:#263238;stroke-linecap:round;stroke-linejoin:round;stroke-miterlimit:10;" d="
				M126.381,394.875H66.948c-3.239,0-5.865-2.626-5.865-5.865v-34.409c0-3.239,2.626-5.865,5.865-5.865h59.433
				c3.239,0,5.865,2.626,5.865,5.865v34.409C132.246,392.249,129.62,394.875,126.381,394.875z"/>
			
				<line style="fill:none;stroke:#263238;stroke-linecap:round;stroke-linejoin:round;stroke-miterlimit:10;" x1="114.64" y1="365.994" x2="132.246" y2="354.601"/>
			<path style="fill:none;stroke:#263238;stroke-linecap:round;stroke-linejoin:round;stroke-miterlimit:10;" d="M69.902,359.601
				l24.541,13.915c2.807,1.592,6.267,1.491,8.976-0.263l6.843-4.428"/>
			
				<line style="fill:none;stroke:#263238;stroke-linecap:round;stroke-linejoin:round;stroke-miterlimit:10;" x1="61.083" y1="354.601" x2="67.179" y2="358.058"/>
		</g>
		<g>
			
				<ellipse transform="matrix(0.3852 -0.9229 0.9229 0.3852 -246.5336 336.8199)" style="fill:#263238;stroke:#263238;stroke-linecap:round;stroke-linejoin:round;stroke-miterlimit:10;" cx="129.509" cy="353.428" rx="10.557" ry="10.557"/>
			<g>
				<path style="fill:#FFFFFF;" d="M125.331,350.559c1.104,0,1.35-0.533,1.571-1.143h0.96v9.088h-1.428v-6.932h-1.104V350.559z"/>
				<path style="fill:#FFFFFF;" d="M129.474,351.597c0-1.453,0.766-2.284,2.168-2.284c1.402,0,2.168,0.831,2.168,2.284v4.726
					c0,1.454-0.766,2.284-2.168,2.284c-1.402,0-2.168-0.831-2.168-2.284V351.597z M130.902,356.414c0,0.649,0.286,0.895,0.74,0.895
					c0.455,0,0.74-0.246,0.74-0.895v-4.908c0-0.649-0.285-0.895-0.74-0.895c-0.454,0-0.74,0.246-0.74,0.895V356.414z"/>
			</g>
		</g>
	</g>
</g>
<g id="Cards">
	<g>
		<g>
			<g>
				<path style="fill:#92E3A9;stroke:#263238;stroke-linecap:round;stroke-linejoin:round;stroke-miterlimit:10;" d="
					M115.539,219.224v39.04c0,2.78-2.26,5.04-5.04,5.04h-61.72c-2.78,0-5.04-2.26-5.04-5.04v-39.04c0-2.79,2.26-5.04,5.04-5.04
					h61.72C113.279,214.184,115.539,216.434,115.539,219.224z"/>
				
					<circle style="fill:#FFFFFF;stroke:#263238;stroke-linecap:round;stroke-linejoin:round;stroke-miterlimit:10;" cx="105.46" cy="220.794" r="3.779"/>
			</g>
			
				<rect x="43.739" y="229.774" style="fill:#263238;stroke:#263238;stroke-linecap:round;stroke-linejoin:round;stroke-miterlimit:10;" width="71.8" height="11.43"/>
		</g>
		<g>
			<g>
				<path style="fill:#FFFFFF;stroke:#263238;stroke-linecap:round;stroke-linejoin:round;stroke-miterlimit:10;" d="M132.04,234.71
					v39.04c0,2.78-2.26,5.04-5.04,5.04H65.28c-2.78,0-5.04-2.26-5.04-5.04v-39.04c0-2.79,2.26-5.04,5.04-5.04H127
					C129.78,229.67,132.04,231.92,132.04,234.71z"/>
				
					<circle style="fill:#FFFFFF;stroke:#263238;stroke-linecap:round;stroke-linejoin:round;stroke-miterlimit:10;" cx="121.961" cy="236.28" r="3.779"/>
			</g>
			
				<rect x="60.24" y="245.26" style="fill:#263238;stroke:#263238;stroke-linecap:round;stroke-linejoin:round;stroke-miterlimit:10;" width="71.8" height="11.43"/>
		</g>
	</g>
</g>
<g id="Money">
	<g>
		<g>
			
				<rect x="46.37" y="109.879" style="fill:#FFFFFF;stroke:#263238;stroke-linecap:round;stroke-linejoin:round;stroke-miterlimit:10;" width="77.731" height="46.76"/>
			
				<rect x="52.443" y="114.737" style="fill:#92E3A9;stroke:#263238;stroke-linecap:round;stroke-linejoin:round;stroke-miterlimit:10;" width="65.586" height="37.044"/>
			
				<circle style="fill:#FFFFFF;stroke:#263238;stroke-linecap:round;stroke-linejoin:round;stroke-miterlimit:10;" cx="85.236" cy="133.259" r="12.753"/>
		</g>
		<g>
			
				<rect x="48.465" y="106.358" transform="matrix(0.9945 0.1043 -0.1043 0.9945 14.0088 -8.4013)" style="fill:#FFFFFF;stroke:#263238;stroke-linecap:round;stroke-linejoin:round;stroke-miterlimit:10;" width="77.731" height="46.76"/>
			
				<rect x="54.537" y="111.216" transform="matrix(0.9945 0.1043 -0.1043 0.9945 14.0087 -8.4013)" style="fill:#92E3A9;stroke:#263238;stroke-linecap:round;stroke-linejoin:round;stroke-miterlimit:10;" width="65.586" height="37.044"/>
			<path style="fill:#FFFFFF;stroke:#263238;stroke-linecap:round;stroke-linejoin:round;stroke-miterlimit:10;" d="
				M100.013,131.068c0.735-7.005-4.348-13.279-11.353-14.013c-7.005-0.735-13.279,4.348-14.013,11.353
				c-0.735,7.005,4.348,13.279,11.353,14.013C93.005,143.156,99.279,138.073,100.013,131.068z"/>
		</g>
		<g>
			
				<rect x="53.503" y="100.252" transform="matrix(0.9533 0.3019 -0.3019 0.9533 41.6324 -22.1166)" style="fill:#FFFFFF;stroke:#263238;stroke-linecap:round;stroke-linejoin:round;stroke-miterlimit:10;" width="77.731" height="46.76"/>
			
				<rect x="59.576" y="105.111" transform="matrix(0.9533 0.3019 -0.3019 0.9533 41.6322 -22.1166)" style="fill:#92E3A9;stroke:#263238;stroke-linecap:round;stroke-linejoin:round;stroke-miterlimit:10;" width="65.586" height="37.044"/>
			<path style="fill:#FFFFFF;stroke:#263238;stroke-linecap:round;stroke-linejoin:round;stroke-miterlimit:10;" d="
				M104.527,127.482c2.126-6.715-1.593-13.882-8.308-16.008c-6.715-2.126-13.882,1.593-16.008,8.308
				c-2.126,6.715,1.593,13.882,8.308,16.008C95.234,137.917,102.4,134.197,104.527,127.482z"/>
		</g>
		<g>
			
				<ellipse transform="matrix(0.9751 -0.2217 0.2217 0.9751 -33.9017 27.6841)" style="fill:#FFFFFF;stroke:#263238;stroke-linecap:round;stroke-linejoin:round;stroke-miterlimit:10;" cx="106.349" cy="164.834" rx="17.981" ry="17.981"/>
			
				<line style="fill:none;stroke:#263238;stroke-linecap:round;stroke-linejoin:round;stroke-miterlimit:10;" x1="94.483" y1="153.545" x2="92.512" y2="153.545"/>
			
				<line style="fill:none;stroke:#263238;stroke-linecap:round;stroke-linejoin:round;stroke-miterlimit:10;" x1="92.36" y1="156.275" x2="90.54" y2="156.275"/>
			
				<line style="fill:none;stroke:#263238;stroke-linecap:round;stroke-linejoin:round;stroke-miterlimit:10;" x1="91.147" y1="159.763" x2="89.479" y2="159.763"/>
			
				<line style="fill:none;stroke:#263238;stroke-linecap:round;stroke-linejoin:round;stroke-miterlimit:10;" x1="90.692" y1="166.891" x2="88.72" y2="166.891"/>
			
				<ellipse transform="matrix(0.737 -0.6759 0.6759 0.737 -82.9225 116.567)" style="fill:#FFFFFF;stroke:#263238;stroke-linecap:round;stroke-linejoin:round;stroke-miterlimit:10;" cx="108.32" cy="164.834" rx="17.981" ry="17.981"/>
			
				<ellipse transform="matrix(0.9877 -0.1561 0.1561 0.9877 -24.3985 18.9257)" style="fill:#FFFFFF;stroke:#263238;stroke-width:2;stroke-linecap:round;stroke-linejoin:round;stroke-miterlimit:10;" cx="108.32" cy="164.834" rx="13.036" ry="13.036"/>
			<g>
				<path style="fill:#263238;" d="M107.439,156.946v-1.114h1.928v1.114c1.671,0.343,2.528,1.628,2.528,3.664v0.471h-2.229v-0.621
					c0-1.071-0.428-1.479-1.178-1.479c-0.75,0-1.178,0.407-1.178,1.479c0,3.085,4.607,3.235,4.607,7.521
					c0,2.036-0.879,3.342-2.55,3.685v1.093h-1.928v-1.093c-1.693-0.343-2.55-1.65-2.55-3.685v-1.029h2.228v1.178
					c0,1.071,0.472,1.457,1.221,1.457c0.75,0,1.221-0.386,1.221-1.457c0-3.085-4.607-3.236-4.607-7.521
					C104.953,158.596,105.789,157.31,107.439,156.946z"/>
			</g>
		</g>
		<g>
			
				<ellipse transform="matrix(0.9711 -0.2388 0.2388 0.9711 -32.6126 31.0866)" style="fill:#FFFFFF;stroke:#263238;stroke-linecap:round;stroke-linejoin:round;stroke-miterlimit:10;" cx="112.006" cy="150.155" rx="17.981" ry="17.981"/>
			
				<line style="fill:none;stroke:#263238;stroke-linecap:round;stroke-linejoin:round;stroke-miterlimit:10;" x1="100.14" y1="138.866" x2="98.169" y2="138.866"/>
			
				<line style="fill:none;stroke:#263238;stroke-linecap:round;stroke-linejoin:round;stroke-miterlimit:10;" x1="98.017" y1="141.595" x2="96.197" y2="141.595"/>
			
				<line style="fill:none;stroke:#263238;stroke-linecap:round;stroke-linejoin:round;stroke-miterlimit:10;" x1="96.804" y1="145.083" x2="95.136" y2="145.083"/>
			
				<line style="fill:none;stroke:#263238;stroke-linecap:round;stroke-linejoin:round;stroke-miterlimit:10;" x1="96.349" y1="152.211" x2="94.378" y2="152.211"/>
			
				<ellipse transform="matrix(0.6743 -0.7384 0.7384 0.6743 -73.7595 133.0645)" style="fill:#FFFFFF;stroke:#263238;stroke-linecap:round;stroke-linejoin:round;stroke-miterlimit:10;" cx="113.978" cy="150.155" rx="17.981" ry="17.981"/>
			
				<ellipse transform="matrix(0.3797 -0.9251 0.9251 0.3797 -68.2071 198.5907)" style="fill:#FFFFFF;stroke:#263238;stroke-width:2;stroke-linecap:round;stroke-linejoin:round;stroke-miterlimit:10;" cx="113.978" cy="150.155" rx="13.036" ry="13.036"/>
			<g>
				<path style="fill:#263238;" d="M113.096,142.267v-1.114h1.928v1.114c1.671,0.343,2.528,1.628,2.528,3.664v0.471h-2.229v-0.621
					c0-1.071-0.428-1.479-1.178-1.479c-0.75,0-1.178,0.407-1.178,1.479c0,3.085,4.607,3.235,4.607,7.521
					c0,2.036-0.879,3.342-2.55,3.685v1.093h-1.928v-1.093c-1.693-0.343-2.55-1.65-2.55-3.685v-1.029h2.228v1.178
					c0,1.071,0.471,1.457,1.221,1.457c0.75,0,1.221-0.386,1.221-1.457c0-3.085-4.607-3.235-4.607-7.521
					C110.61,143.916,111.446,142.631,113.096,142.267z"/>
			</g>
		</g>
	</g>
</g>
<g id="Character">
	<g>
		<path style="fill:#FFFFFF;stroke:#263238;stroke-linecap:round;stroke-linejoin:round;stroke-miterlimit:10;" d="M196.5,279.5
			c0,0,1,5.5,2.25,7.5s4.75,4.25,5,8.5s0,8.5,0,8.5s10.75,6.5,19.5,11s16.25,6.75,16.25,6.75L237,342.5c0,0-26.5-18.5-32.75-24.25
			s-12-12.25-13-12.5s-9-11.25-9.25-12.5s3.75-3.75,5-3.5s2.75-2.75,3.5-5.25s0.75-5.5,2.5-5.5S196.5,279.5,196.5,279.5z"/>
		<path style="fill:#263238;stroke:#263238;stroke-linecap:round;stroke-linejoin:round;stroke-miterlimit:10;" d="M160.196,279.738
			l30.718,31.154c0.922,0.935,2.375,1.087,3.471,0.364l7.901-5.215c1.42-0.937,1.656-2.925,0.495-4.169l-28.016-30.017
			c-0.764-0.819-1.95-1.092-2.996-0.69l-10.603,4.078C159.318,275.954,158.806,278.328,160.196,279.738z"/>
		<path style="fill:#92E3A9;stroke:#263238;stroke-linecap:round;stroke-linejoin:round;stroke-miterlimit:10;" d="M223.851,381.392
			c10.491,3.632,21.755,5.608,33.482,5.608c16.591,0,32.25-3.963,46.109-10.97c0.641-8.904,1.058-19.632,1.058-23.53
			c0-6.75,5.75-31.75,8.75-45.25s-1-28.5-4.5-42.75s-17.25-24-17.25-24l-34,16.25c0,0-25.5,22.75-27.75,35s6.75,23.5,6.75,26.25
			C236.5,320.272,227.112,364.532,223.851,381.392z"/>
		<path style="fill:none;stroke:#263238;stroke-linecap:round;stroke-linejoin:round;stroke-miterlimit:10;" d="M292.141,318.177
			c0,0,12.889-9.538,13.92-10.054"/>
		
			<line style="fill:none;stroke:#263238;stroke-linecap:round;stroke-linejoin:round;stroke-miterlimit:10;" x1="289.563" y1="322.56" x2="303.741" y2="319.466"/>
		<polygon style="fill:#263238;stroke:#263238;stroke-linecap:round;stroke-linejoin:round;stroke-miterlimit:10;" points="
			252.25,238 255.25,244.25 282.25,226.25 275,216.25 251,236.25 		"/>
		<path style="fill:#92E3A9;stroke:#263238;stroke-linecap:round;stroke-linejoin:round;stroke-miterlimit:10;" d="M278.905,223.645
			l-26.123,18.328c-1.479,1.038-2.038,2.964-1.345,4.633l5.313,12.784c0.788,1.896,3.083,2.641,4.834,1.569l30.296-18.549
			c1.676-1.026,2.11-3.269,0.938-4.847l-9.859-13.264C282.008,223.019,280.21,222.73,278.905,223.645z"/>
		<g>
			<path style="fill:#FFFFFF;stroke:#263238;stroke-linecap:round;stroke-linejoin:round;stroke-miterlimit:10;" d="
				M213.573,183.517c0,0,0.859,12.022,3.435,17.175c2.576,5.152,6.87,10.305,5.582,12.452c-1.288,2.147-3.435,7.299-0.429,9.446
				c3.006,2.147,5.582,1.718,5.582,1.718s7.426,17.963,12.544,19.009c8.891,1.819,22.665-14.286,23.953-14.716
				c1.288-0.429,12.452-8.158,13.31-18.033c0.859-9.876-4.294-24.045-8.587-25.762c-4.294-1.717-13.311,0.429-21.039-2.576
				C240.194,179.223,215.29,171.924,213.573,183.517z"/>
			<path style="fill:none;stroke:#263238;stroke-linecap:round;stroke-linejoin:round;stroke-miterlimit:10;" d="M227.313,204.985
				l1.288,3.864c0,0,4.723,1.288,7.729-3.006"/>
			<path style="fill:none;stroke:#263238;stroke-linecap:round;stroke-linejoin:round;stroke-miterlimit:10;" d="M224.121,199.066
				c0,0,2.223-3.839,9.497-1.818"/>
			<path style="fill:none;stroke:#263238;stroke-linecap:round;stroke-linejoin:round;stroke-miterlimit:10;" d="M230.991,226.95
				c0,0,2.627-0.202,4.041-1.414"/>
		</g>
		<path style="fill:#263238;stroke:#263238;stroke-linecap:round;stroke-linejoin:round;stroke-miterlimit:10;" d="M210.567,158.614
			c0,0-8.587,9.017-7.299,16.316s10.734,14.169,15.887,14.169c5.152,0,8.158-1.288,14.598-1.288c6.44,0,13.31,4.723,15.887,7.299
			c2.576,2.576,6.011,6.011,8.158,2.576c2.147-3.435,0.859-6.44,9.446-5.582c8.587,0.859,6.87,14.169,3.864,20.61
			c-3.006,6.441-5.152,9.875-8.587,9.875c-3.435,0-8.158-2.147-5.582,1.718c2.576,3.864,10.305,12.881,27.909,9.446
			c17.604-3.435,23.186-18.033,23.186-26.621c0-8.587-6.011-21.468-10.305-30.485c-4.294-9.017-12.881-27.909-33.92-33.92
			C242.77,136.716,219.155,144.444,210.567,158.614z"/>
		<path style="fill:#FFFFFF;stroke:#263238;stroke-linecap:round;stroke-linejoin:round;stroke-miterlimit:10;" d="M257.864,200.884
			c0,0-0.404-8.486,4.647-10.103c5.052-1.616,10.103,1.414,10.305,7.476c0.202,6.062-0.606,12.326-2.829,14.548
			c-2.223,2.223-8.284,0.404-8.284,0.404"/>
		<g>
			<path style="fill:#FFFFFF;stroke:#263238;stroke-linecap:round;stroke-linejoin:round;stroke-miterlimit:10;" d="M276.5,263
				c0,0-12.25,9-14.75,20s-8.5,42.25-8.5,42.25s-4-0.5-4,0.5s-1,3.75-1,3.75s-3.25,0-3.5,1.25s-27-12.5-33.75-17
				S195.75,303,194.25,301s-6.75-8.25-9.5-10.75s-8.25-6-9.25-6.75s-2.5-7.25-4.75-6.25s-1.75,5.5-0.75,7.25s5,9,5,9
				s-8.5,0.75-10.25,2s-2.75,5.5-0.75,7s6.5,2,6.5,2s1.25,6.25,3.75,8s6.75,3.5,9,4.5s10,1.25,10,1.25s10.5,11.75,17.75,19
				s35.75,27.75,40,29.25s9.25-1.75,11-4.25s31-43.75,38-57.5"/>
			<path style="fill:#92E3A9;stroke:#263238;stroke-linecap:round;stroke-linejoin:round;stroke-miterlimit:10;" d="M276.5,263
				c0,0-12.25,9-14.75,20s-8.5,42.25-8.5,42.25s-4-0.5-4,0.5s-1,3.75-1,3.75s-3.25,0-3.5,1.25
				c-0.117,0.587-6.084-2.136-13.077-5.656l-11.074,20.27c11.25,8.803,27.295,20.04,30.401,21.136c4.25,1.5,9.25-1.75,11-4.25
				c1.721-2.459,32.377-44.639,39.962-59.028"/>
		</g>
		<path style="fill:#FFFFFF;stroke:#263238;stroke-linecap:round;stroke-linejoin:round;stroke-miterlimit:10;" d="M195.75,282
			c0,0-3.25,8.75-4.75,9.5s-3,0.5-4-1.75s2.25-9.25,2.25-9.25s1-3.25,4-3.25s3.25,2.25,3.25,2.25L195.75,282z"/>
	</g>
</g>
</svg>
